<?xml version="1.0" encoding="UTF-8"?>
<svg version="1.1" xmlns="http://www.w3.org/2000/svg" width="512" height="512">
<path d="M0 0 C0.70643143 -0.00832352 1.41286285 -0.01664703 2.14070129 -0.02522278 C4.46796243 -0.04924575 6.7949426 -0.05808691 9.12231445 -0.06469727 C10.75031107 -0.07367206 12.37830688 -0.08279405 14.00630188 -0.09205627 C17.41828408 -0.10852975 20.83016838 -0.11624292 24.2421875 -0.11914062 C28.59206981 -0.12451148 32.94101775 -0.16214389 37.29063702 -0.20788479 C40.65464035 -0.23778886 44.01842275 -0.24486712 47.38254738 -0.24586678 C48.98478266 -0.25004552 50.58702004 -0.26238458 52.18912315 -0.28338432 C62.16801532 -0.40373421 71.17013573 -0.16897331 78.7532196 7.20851135 C80.77472538 9.453889 82.44600892 11.60222292 83.7980957 14.30639648 C84.8651699 14.30859632 84.8651699 14.30859632 85.95380116 14.31084061 C103.29911213 14.34796452 120.64421077 14.40705295 137.98936176 14.49029922 C146.37751378 14.53003295 154.76557274 14.56245412 163.15380859 14.57739258 C170.46881552 14.59043859 177.78361722 14.61747806 185.09850854 14.66100955 C188.96827798 14.68355844 192.83779492 14.69931114 196.70763588 14.69828033 C200.35789394 14.6975298 204.00759527 14.71563636 207.65770912 14.74756432 C209.62006391 14.7600055 211.58251253 14.75303006 213.54489136 14.74525452 C224.63917417 14.87462531 234.68721739 17.35017475 242.7980957 25.30639648 C250.73724249 34.2704741 254.65633888 45.27866855 254.1809082 57.25952148 C252.55787686 70.17752602 247.38072724 78.52621262 237.7277832 86.86108398 C235.7980957 88.30639648 235.7980957 88.30639648 231.7980957 90.30639648 C231.4680957 99.87639648 231.1380957 109.44639648 230.7980957 119.30639648 C233.29243164 119.25999023 235.78676758 119.21358398 238.35668945 119.16577148 C240.79929576 119.13448745 243.24187889 119.1102503 245.68457031 119.08666992 C247.36924391 119.06667762 249.05384921 119.03947426 250.73828125 119.00463867 C270.21581099 118.61220252 270.21581099 118.61220252 278.5480957 125.61889648 C283.30452004 131.3001811 286.89002372 135.59611968 286.97509766 143.25830078 C286.98793289 144.26753098 287.00076813 145.27676117 287.01399231 146.3165741 C287.02507271 147.95702446 287.02507271 147.95702446 287.03637695 149.63061523 C287.0444487 150.764814 287.05252045 151.89901276 287.06083679 153.06758118 C287.07468512 155.47765575 287.08540391 157.88775001 287.09326172 160.29785156 C287.10470883 162.73866608 287.12504305 165.17945704 287.15478516 167.62011719 C287.56446962 201.24399665 277.5946987 224.19470444 254.5559082 248.51342773 C233.76032838 269.57410702 209.9524414 282.87694948 182.375 293.20654297 C177.63102706 295.23132725 174.19725219 297.69284264 170.6730957 301.43139648 C147.77668402 324.78045551 115.48944216 343.38156067 83.7980957 351.30639648 C82.8080957 351.30639648 81.8180957 351.30639648 80.7980957 351.30639648 C80.7980957 364.50639648 80.7980957 377.70639648 80.7980957 391.30639648 C84.0980957 391.30639648 87.3980957 391.30639648 90.7980957 391.30639648 C102.92189486 393.75710499 113.211221 400.62937337 120.45825195 410.58764648 C126.78823765 420.41701002 128.98746005 430.65989369 127.7980957 442.30639648 C126.77856445 445.18920898 126.77856445 445.18920898 125.7980957 447.30639648 C126.7468457 447.47139648 127.6955957 447.63639648 128.6730957 447.80639648 C137.61622953 450.39519838 145.05271501 458.59062482 149.7980957 466.30639648 C154.19179675 475.15085963 155.97924374 483.01220504 156.0480957 492.80639648 C156.0687207 493.53987305 156.0893457 494.27334961 156.1105957 495.02905273 C156.15588155 501.35775047 154.75523103 505.26384202 150.27451229 509.94012165 C146.23555232 513.19266509 142.32947765 513.00767027 137.3160553 512.94804382 C136.36848356 512.95654934 135.42091183 512.96505486 134.44462579 512.97381812 C131.27308833 512.99608296 128.1027247 512.9826521 124.93115234 512.96923828 C122.65593119 512.97765146 120.38071701 512.98817657 118.10551453 513.00065613 C111.92778749 513.02773405 105.75046382 513.02299531 99.5727036 513.01095557 C94.41597932 513.00382943 89.25932989 513.01232005 84.10261148 513.02086097 C71.24238747 513.04196349 58.38244173 513.0327978 45.52223992 513.00938467 C35.05392209 512.9911369 24.58595702 513.0020343 14.11767578 513.03369141 C1.95448855 513.07047211 -10.20840514 513.08681581 -22.37166125 513.07427913 C-28.80779499 513.06778833 -35.24363191 513.06981259 -41.67973137 513.09360313 C-47.7316703 513.11483412 -53.78288289 513.10690373 -59.83477592 513.07650948 C-62.05555207 513.07017487 -64.27638444 513.07406012 -66.4971199 513.08892059 C-69.5298745 513.10756958 -72.56024492 513.08922141 -75.59288025 513.06156921 C-76.47109765 513.07563566 -77.34931504 513.08970211 -78.25414509 513.10419482 C-83.87924045 513.00088894 -86.79369541 511.72136155 -90.86999804 507.82389957 C-94.65558338 503.51080517 -94.55673752 498.74108 -94.5144043 493.24389648 C-94.50703247 492.11661133 -94.50703247 492.11661133 -94.49951172 490.96655273 C-94.213251 477.20255035 -89.71055329 466.45384654 -80.38549805 456.38842773 C-75.58155165 451.8079207 -70.83893426 448.32926625 -64.2019043 447.30639648 C-64.52416992 446.60514648 -64.84643555 445.90389648 -65.1784668 445.18139648 C-68.53821236 435.7433326 -65.9428932 425.24062153 -62.2019043 416.30639648 C-55.61063751 403.65038422 -45.65121345 396.82986769 -32.5144043 391.93139648 C-29.2019043 391.30639648 -29.2019043 391.30639648 -20.2019043 391.30639648 C-20.2019043 378.10639648 -20.2019043 364.90639648 -20.2019043 351.30639648 C-26.1419043 349.82139648 -26.1419043 349.82139648 -32.2019043 348.30639648 C-35.40421764 347.20340635 -38.5105623 346.07981558 -41.6394043 344.80639648 C-42.48212891 344.46455322 -43.32485352 344.12270996 -44.19311523 343.77050781 C-69.80348315 333.11370189 -94.86404313 317.52900668 -113.58984375 296.76757812 C-115.48818959 295.04690573 -117.11410547 294.39440341 -119.52612305 293.54467773 C-120.8097876 293.07976929 -120.8097876 293.07976929 -122.11938477 292.60546875 C-123.49054443 292.11711548 -123.49054443 292.11711548 -124.8894043 291.61889648 C-163.78503215 277.25165354 -198.35607858 251.37899618 -218.1394043 214.30639648 C-225.15561825 199.01406658 -225.84215542 184.52897181 -225.72338867 167.89477539 C-225.7017775 164.28521843 -225.72337061 160.67761517 -225.7487793 157.06811523 C-225.74613865 154.75170463 -225.74101912 152.43529524 -225.7331543 150.11889648 C-225.74125122 149.05106934 -225.74934814 147.98324219 -225.75769043 146.88305664 C-225.65811664 138.9158812 -224.07623114 133.54922677 -218.7644043 127.55639648 C-217.9187793 126.81389648 -217.0731543 126.07139648 -216.2019043 125.30639648 C-214.9953418 124.22358398 -214.9953418 124.22358398 -213.7644043 123.11889648 C-208.41579274 119.33573221 -203.11936458 119.02404832 -196.7409668 119.11108398 C-195.95039886 119.11391388 -195.15983093 119.11674377 -194.3453064 119.11965942 C-191.83901346 119.13078693 -189.33308785 119.15587723 -186.8269043 119.18139648 C-185.11987824 119.19143591 -183.41284653 119.20056007 -181.70581055 119.20874023 C-177.53770189 119.23070185 -173.36986522 119.26517977 -169.2019043 119.30639648 C-169.12196566 115.28498564 -169.1016322 111.2679596 -169.13476562 107.24584961 C-169.13783407 105.88023108 -169.12506279 104.51447625 -169.09570312 103.14916992 C-168.67914398 95.05871637 -168.67914398 95.05871637 -172.14257812 88.17407227 C-174.43495201 86.68082943 -176.73612703 85.48405673 -179.2019043 84.30639648 C-187.06220816 77.19018335 -191.46050663 68.11353859 -192.4597168 57.59155273 C-192.91950581 45.92823816 -189.75546132 35.4770154 -181.9519043 26.80639648 C-171.28367059 17.1080022 -162.84153225 14.84309321 -148.42041016 14.96582031 C-147.04964212 14.96666805 -145.67887272 14.96618858 -144.30810547 14.9644928 C-140.61235382 14.96363713 -136.91689826 14.98119273 -133.22121501 15.00221467 C-129.34952367 15.02105353 -125.47782446 15.02273756 -121.60609436 15.02629089 C-114.28584866 15.03559029 -106.96573844 15.06017533 -99.64555222 15.09033936 C-91.30694817 15.12394919 -82.96833742 15.14038588 -74.62968242 15.15542567 C-57.48701154 15.18672695 -40.34447227 15.23944616 -23.2019043 15.30639648 C-22.9129126 14.52611084 -22.6239209 13.7458252 -22.32617188 12.94189453 C-20.99516418 9.82175814 -19.43882177 8.33410461 -16.8894043 6.11889648 C-16.13014648 5.4447168 -15.37088867 4.77053711 -14.58862305 4.07592773 C-9.85060671 0.56312675 -5.83920176 0.04879144 0 0 Z " fill="#F7DA8C" transform="translate(225.201904296875,-0.306396484375)"/>
<path d="M0 0 C18.06371295 -0.09362613 36.12736254 -0.16406848 54.19126606 -0.20724869 C62.57949774 -0.2278349 70.96757826 -0.25587967 79.35571289 -0.30175781 C86.67061395 -0.34174678 93.98540549 -0.36746143 101.30041283 -0.37635398 C105.17025996 -0.38154843 109.03979388 -0.39367392 112.90954018 -0.42292023 C116.55968003 -0.45028061 120.20938075 -0.45840396 123.85961342 -0.45243073 C125.8220648 -0.45403801 127.78446951 -0.47545208 129.74679565 -0.49768066 C140.8561029 -0.44648116 150.88142375 2.03622711 159 10 C166.93914678 18.96407762 170.85824317 29.97227206 170.3828125 41.953125 C168.75978116 54.87112954 163.58263154 63.21981614 153.9296875 71.5546875 C152 73 152 73 148 75 C147.67 84.57 147.34 94.14 147 104 C149.49433594 103.95359375 151.98867188 103.9071875 154.55859375 103.859375 C157.00120005 103.82809096 159.44378319 103.80385382 161.88647461 103.78027344 C163.57114821 103.76028114 165.25575351 103.73307777 166.94018555 103.69824219 C186.41771528 103.30580603 186.41771528 103.30580603 194.75 110.3125 C199.50642433 115.99378462 203.09192801 120.2897232 203.17700195 127.9519043 C203.18983719 128.96113449 203.20267242 129.97036469 203.21589661 131.01017761 C203.22697701 132.65062798 203.22697701 132.65062798 203.23828125 134.32421875 C203.246353 135.45841751 203.25442474 136.59261627 203.26274109 137.76118469 C203.27658942 140.17125927 203.28730821 142.58135352 203.29516602 144.99145508 C203.30661313 147.4322696 203.32694735 149.87306055 203.35668945 152.3137207 C203.76637391 185.93760017 193.79660299 208.88830795 170.7578125 233.20703125 C149.96223268 254.26771053 126.1543457 267.570553 98.5769043 277.90014648 C93.83293136 279.92493076 90.39915649 282.38644616 86.875 286.125 C65.80339254 307.6131796 37.9493236 323.29640908 9.75 333.25 C8.90550293 333.56211426 8.06100586 333.87422852 7.19091797 334.19580078 C1.15070784 336.21160535 -2.99616445 336.0025705 -9 334 C-10.16378174 333.62149902 -10.16378174 333.62149902 -11.35107422 333.23535156 C-30.50571562 326.6687089 -48.60707687 317.90934856 -65 306 C-65.8360376 305.39720215 -65.8360376 305.39720215 -66.68896484 304.78222656 C-73.18786399 300.05610067 -79.31223831 294.97224201 -85.25 289.5625 C-85.81154785 289.05412598 -86.3730957 288.54575195 -86.95166016 288.02197266 C-89.43729548 285.70861677 -90.90887724 284.27336829 -92 281 C-87.94601164 278.87664552 -83.88916418 276.75889552 -79.82958984 274.64624023 C-78.44956146 273.92706367 -77.0703206 273.20637379 -75.69189453 272.48413086 C-73.70811794 271.44504384 -71.72155399 270.41146834 -69.734375 269.37890625 C-68.81383331 268.89448814 -68.81383331 268.89448814 -67.87469482 268.40028381 C-60.77703563 264.72809325 -53.27062988 263.39020135 -45.4453125 265.78027344 C-42.89998048 266.87911686 -40.45521004 268.08753783 -38 269.375 C-37.11078857 269.819646 -36.22157715 270.26429199 -35.30541992 270.72241211 C-32.52325993 272.12320446 -29.76041732 273.55688899 -27 275 C-25.62448975 275.7122876 -25.62448975 275.7122876 -24.22119141 276.43896484 C-19.34182419 278.96800617 -14.47978676 281.52704567 -9.63793945 284.12719727 C-3.78746978 287.24471539 3.7989172 286.86665694 10.234375 285.5390625 C16.05744808 283.26859823 21.20350214 278.81787676 24.4375 273.5 C28.8332226 263.12846031 25.45011612 250.11495639 23.5 239.5 C18.44456883 211.98205847 18.44456883 211.98205847 24.20361328 203.21679688 C28.11303357 198.3924511 32.48931009 194.06631074 36.9375 189.75 C37.9247018 188.7743207 38.91103581 187.79776256 39.89648438 186.8203125 C47.5008048 179.31484904 47.5008048 179.31484904 51.51953125 176.078125 C54.98205359 173.17724014 56.86193583 169.92112901 59 166 C59.433125 165.21625 59.86625 164.4325 60.3125 163.625 C62.1411804 156.64276576 61.43792963 150.44901951 58.19140625 144.03515625 C54.67541425 138.02915025 50.59847303 134.48355571 44 132 C39.82356559 131.03321958 35.62195892 130.44262946 31.375 129.875 C30.22451172 129.70959717 29.07402344 129.54419434 27.88867188 129.3737793 C24.59414765 128.90243538 21.29770757 128.44845055 18 128 C15.1662678 127.60694096 12.33310397 127.21007696 9.5 126.8125 C8.4584375 126.67457031 7.416875 126.53664063 6.34375 126.39453125 C4 126 4 126 2 125 C1.99576806 124.39223661 1.99153612 123.78447323 1.98717594 123.15829277 C1.8838056 108.36010351 1.77515837 93.56196003 1.66066074 78.76385307 C1.60541707 71.60755896 1.55194983 64.45125986 1.50268555 57.29492188 C1.459735 51.05640205 1.41342998 44.81791762 1.36312145 38.57945263 C1.33660784 35.27721046 1.31225775 31.97497546 1.29092598 28.67269516 C1.26680951 24.98340734 1.23676463 21.29421211 1.20532227 17.60498047 C1.1995668 16.51381424 1.19381134 15.42264801 1.18788147 14.29841614 C1.17809265 13.28888382 1.16830383 12.2793515 1.15821838 11.23922729 C1.15176583 10.36721113 1.14531328 9.49519497 1.1386652 8.59675407 C0.98272392 5.67647457 0.52714241 2.87447645 0 0 Z " fill="#FEE7B6" transform="translate(309,15)"/>
<path d="M0 0 C0.70643143 -0.00832352 1.41286285 -0.01664703 2.14070129 -0.02522278 C4.46796243 -0.04924575 6.7949426 -0.05808691 9.12231445 -0.06469727 C10.75031107 -0.07367206 12.37830688 -0.08279405 14.00630188 -0.09205627 C17.41828408 -0.10852975 20.83016838 -0.11624292 24.2421875 -0.11914062 C28.59206981 -0.12451148 32.94101775 -0.16214389 37.29063702 -0.20788479 C40.65464035 -0.23778886 44.01842275 -0.24486712 47.38254738 -0.24586678 C48.98478266 -0.25004552 50.58702004 -0.26238458 52.18912315 -0.28338432 C62.200441 -0.40412528 70.65536586 0.04469768 78.61625671 6.86378479 C85.74846478 14.31871477 86.23689855 23.41291462 86.13867188 33.25195312 C86.13910995 34.41394226 86.13954803 35.5759314 86.13999939 36.77313232 C86.13792078 40.58778079 86.11463281 44.40198169 86.09106445 48.21655273 C86.0854652 50.87170658 86.08104896 53.52683611 86.07820129 56.18199158 C86.06890959 62.43976946 86.04433522 68.69738846 86.01415282 74.95509666 C85.98051876 82.08453054 85.96410027 89.21397235 85.94906652 96.34346592 C85.91778274 110.99785773 85.86507876 125.65212488 85.7980957 140.30639648 C86.90209717 140.44215088 88.00609863 140.57790527 89.14355469 140.71777344 C93.27658743 141.22849034 97.40800425 141.7514023 101.5390625 142.27783203 C103.32022611 142.50311818 105.10180013 142.72518561 106.88378906 142.94384766 C109.45926197 143.26046278 112.03298971 143.588993 114.60668945 143.91967773 C115.3914415 144.01356277 116.17619354 144.10744781 116.98472595 144.20417786 C126.53599319 145.45920019 134.31326432 147.89725656 140.7980957 155.30639648 C145.02674615 161.96713202 146.76947404 168.43488235 145.7980957 176.30639648 C142.86650996 185.04856921 136.98792511 191.65367813 130.08325195 197.54858398 C125.75845461 201.30452602 121.62680195 205.22334669 117.5480957 209.24389648 C116.85458008 209.9084082 116.16106445 210.57291992 115.4465332 211.25756836 C108.95030634 217.67290351 105.61548879 222.51764976 105.3918457 231.83764648 C105.62428018 239.6242014 106.89294005 247.15779246 108.2980957 254.80639648 C113.32022618 282.14307427 113.32022618 282.14307427 108.26293945 290.49389648 C102.81513153 297.23465082 97.43501765 301.25975315 88.8527832 302.85327148 C77.73805336 303.56330337 69.9108941 299.02444269 60.42211914 293.75708008 C56.90009451 291.80993918 53.33835196 289.94257045 49.7734375 288.07543945 C48.11287451 287.20418303 46.45534006 286.32712369 44.80126953 285.44360352 C44.05643311 285.04641113 43.31159668 284.64921875 42.54418945 284.23999023 C41.89119873 283.8899292 41.23820801 283.53986816 40.56542969 283.17919922 C37.23600905 281.53495571 34.40115 281.09410588 30.7355957 280.99389648 C29.85774414 280.95651367 28.97989258 280.91913086 28.07543945 280.88061523 C17.71835197 282.22617249 7.99258737 288.69734833 -1.1394043 293.49389648 C-3.25165868 294.59976487 -5.36461741 295.70423713 -7.47889709 296.80622864 C-8.78457476 297.48710924 -10.0890283 298.17034394 -11.39207458 298.85624695 C-19.05316765 302.85972412 -27.10134593 303.76501141 -35.61987305 301.72827148 C-41.9792962 298.93571042 -47.30311818 293.06685889 -50.40112305 286.93139648 C-53.91855211 275.40109244 -50.33182575 262.09035162 -47.98095703 250.68310547 C-45.90048436 240.21848358 -43.72827017 228.4855159 -49.32299805 218.81030273 C-54.93863356 211.32668036 -62.1289078 205.15080352 -69.1940918 199.07592773 C-85.19207038 184.97654194 -85.19207038 184.97654194 -86.4753418 173.95874023 C-86.78637536 165.64457385 -84.93027087 159.52763881 -79.36987305 153.23217773 C-71.24756023 145.59047515 -61.4984401 144.47685516 -50.88378906 142.94384766 C-48.63979866 142.61895358 -46.39843558 142.27917244 -44.15698242 141.93725586 C-37.78663631 140.98878711 -31.65585621 140.25563442 -25.2019043 140.30639648 C-25.20559147 139.69109101 -25.20927864 139.07578554 -25.21307755 138.44183445 C-25.30156912 123.44238855 -25.36768199 108.44302321 -25.40915298 93.44338322 C-25.4297432 86.18953617 -25.45779551 78.9358638 -25.50366211 71.68212891 C-25.54363896 65.35681153 -25.56936284 59.03162072 -25.57825828 52.70618051 C-25.58345495 49.35944153 -25.59771858 46.01335007 -25.62482452 42.66667366 C-25.65393702 38.92274803 -25.65785682 35.17956781 -25.65600586 31.43554688 C-25.67038696 30.336465 -25.68476807 29.23738312 -25.69958496 28.10499573 C-25.65726595 20.17413467 -24.24934308 13.8771879 -19.01831055 7.74780273 C-18.27452148 7.12776367 -17.53073242 6.50772461 -16.7644043 5.86889648 C-15.65258789 4.91176758 -15.65258789 4.91176758 -14.51831055 3.93530273 C-9.7619764 0.59062931 -5.76863855 0.04820183 0 0 Z " fill="#D6D2FE" transform="translate(225.201904296875,-0.306396484375)"/>
<path d="M0 0 C6.39824299 4.63794198 10.24004533 10.10350917 13.56977844 17.17623901 C13.97211197 17.99792572 14.3744455 18.81961243 14.78897095 19.66619873 C16.05899988 22.26472965 17.30963075 24.87195888 18.55805969 27.48092651 C19.82001706 30.09551504 21.08613187 32.70792118 22.35928345 35.31707764 C23.1467053 36.93301405 23.92734986 38.55227656 24.70007324 40.17529297 C28.53538986 48.09074859 32.60005335 52.99502803 40.87055969 56.35592651 C44.98296827 57.38560041 49.10504417 57.9533047 53.30805969 58.48092651 C55.6167257 58.80593448 57.92531921 59.13145781 60.23384094 59.45748901 C61.35999817 59.60992065 62.4861554 59.76235229 63.6464386 59.91940308 C68.10320444 60.52281799 72.55135746 61.16646555 76.99555969 61.85592651 C77.68577209 61.95018921 78.3759845 62.0444519 79.08711243 62.14157104 C87.31274702 63.42235462 93.20557869 66.80274226 98.39399719 73.22311401 C102.65354751 79.37579781 104.05018559 85.94113517 102.87055969 93.35592651 C99.88920707 102.10122754 94.0811243 108.68550536 87.15571594 114.59811401 C82.8309186 118.35405605 78.69926594 122.27287672 74.62055969 126.29342651 C73.92704407 126.95793823 73.23352844 127.62244995 72.51899719 128.30709839 C66.02277032 134.72243354 62.68795278 139.56717979 62.46430969 148.88717651 C62.69674417 156.67373143 63.96540404 164.20732249 65.37055969 171.85592651 C67.21181897 181.87834864 68.22602643 191.1737794 67.87055969 201.35592651 C58.45970972 200.1057621 49.73116221 197.70566649 40.87055969 194.35592651 C39.90327942 193.99071899 39.90327942 193.99071899 38.91645813 193.61813354 C23.77820195 187.76120483 10.12163732 178.98039047 -2.12944031 168.35592651 C-3.48102234 167.20350464 -3.48102234 167.20350464 -4.85990906 166.02780151 C-30.32132548 143.69199345 -46.92112779 110.89581244 -51.12944031 77.35592651 C-51.31523796 72.62729809 -51.31526045 67.89989633 -51.31474304 63.16818237 C-51.31693112 60.92783647 -51.33513314 58.6879826 -51.35404968 56.44772339 C-51.35698429 55.00176151 -51.35896864 53.55579732 -51.35990906 52.10983276 C-51.36401794 50.81376099 -51.36812683 49.51768921 -51.37236023 48.18234253 C-50.80965926 39.31881262 -47.36690727 32.0855275 -43.43656921 24.22897339 C-42.51043282 22.36796803 -41.61068184 20.49568469 -40.71147156 18.62155151 C-36.68648252 10.41807175 -31.51096944 0.996154 -22.30522156 -2.24172974 C-14.98492787 -3.59539266 -6.49189986 -4.14994946 0 0 Z " fill="#F0E8FD" transform="translate(268.1294403076172,82.64407348632813)"/>
<path d="M0 0 C1.04832286 -0.00445668 1.04832286 -0.00445668 2.11782396 -0.0090034 C4.45359206 -0.01765681 6.78930871 -0.01919581 9.12509155 -0.02069092 C10.8025422 -0.02532156 12.4799918 -0.03034655 14.15744019 -0.03573608 C18.71145607 -0.04884043 23.26545722 -0.05530148 27.819489 -0.05974674 C30.66777143 -0.0626813 33.51604987 -0.06678688 36.36433029 -0.07125092 C45.28480403 -0.08492212 54.2052686 -0.09459001 63.12575209 -0.09845281 C73.40622204 -0.1029295 83.68655876 -0.1204609 93.96698821 -0.1494534 C101.92388574 -0.17111021 109.88074591 -0.18115926 117.83767259 -0.18249393 C122.58485375 -0.1835393 127.3319096 -0.1893898 132.0790596 -0.20731354 C136.54917157 -0.22386297 141.01906498 -0.22591656 145.48919678 -0.21717453 C147.12294477 -0.21640776 148.75670485 -0.220699 150.39042282 -0.23063278 C166.64416148 -0.32360611 179.48065238 2.29666778 191.6109314 13.64434814 C200.82019785 23.50150269 204.10021182 35.44663737 204.19296265 48.64044189 C204.22390015 49.74065674 204.22390015 49.74065674 204.25546265 50.86309814 C204.3007485 57.19179588 202.90009798 61.09788743 198.41937923 65.77416706 C194.38041926 69.0267105 190.47434459 68.84171568 185.46092224 68.78208923 C184.51335051 68.79059475 183.56577877 68.79910027 182.58949274 68.80786353 C179.41795527 68.83012837 176.24759165 68.81669751 173.07601929 68.80328369 C170.80079813 68.81169687 168.52558395 68.82222198 166.25038147 68.83470154 C160.07265443 68.86177946 153.89533076 68.85704072 147.71757054 68.84500098 C142.56084627 68.83787484 137.40419684 68.84636546 132.24747843 68.85490638 C119.38725441 68.8760089 106.52730867 68.86684321 93.66710686 68.84343008 C83.19878903 68.82518231 72.73082396 68.83607971 62.26254272 68.86773682 C50.09935549 68.90451752 37.9364618 68.92086122 25.7732057 68.90832454 C19.33707195 68.90183374 12.90123503 68.903858 6.46513557 68.92764854 C0.41319665 68.94887953 -5.63801595 68.94094914 -11.68990898 68.91055489 C-13.91068513 68.90422028 -16.1315175 68.90810553 -18.35225296 68.922966 C-21.38500755 68.94161499 -24.41537798 68.92326682 -27.44801331 68.89561462 C-28.3262307 68.90968107 -29.2044481 68.92374752 -30.10927814 68.93824023 C-35.73437351 68.83493435 -38.64882847 67.55540696 -42.72513109 63.65794498 C-46.51071643 59.34485058 -46.41187057 54.57512541 -46.36953735 49.07794189 C-46.3646228 48.32641846 -46.35970825 47.57489502 -46.35464478 46.80059814 C-46.0684746 33.0409489 -41.57138577 22.26245717 -32.2250061 12.21466064 C-23.14734622 3.52954822 -12.40805247 0.02953984 0 0 Z " fill="#676FB0" transform="translate(177.05703735351563,443.85955810546875)"/>
<path d="M0 0 C18.06371295 -0.09362613 36.12736254 -0.16406848 54.19126606 -0.20724869 C62.57949774 -0.2278349 70.96757826 -0.25587967 79.35571289 -0.30175781 C86.67061395 -0.34174678 93.98540549 -0.36746143 101.30041283 -0.37635398 C105.17025996 -0.38154843 109.03979388 -0.39367392 112.90954018 -0.42292023 C116.55968003 -0.45028061 120.20938075 -0.45840396 123.85961342 -0.45243073 C125.8220648 -0.45403801 127.78446951 -0.47545208 129.74679565 -0.49768066 C140.8561029 -0.44648116 150.88142375 2.03622711 159 10 C166.93914678 18.96407762 170.85824317 29.97227206 170.3828125 41.953125 C169.22605412 51.15997745 166.43136853 59.22542619 160 66 C159.12021484 66.93972656 159.12021484 66.93972656 158.22265625 67.8984375 C149.28725584 76.55974587 138.95972981 77.59068017 126.99145508 77.45410156 C125.62039219 77.45297054 124.24932688 77.45361191 122.87826538 77.45587158 C119.19080028 77.45700974 115.50386567 77.4336482 111.81652284 77.40557575 C107.95019428 77.38041044 104.08385083 77.37820827 100.217453 77.37347412 C92.91138919 77.36108845 85.60556749 77.32832727 78.29960984 77.28807616 C69.97548456 77.24322034 61.65134715 77.22133685 53.32713091 77.20129442 C36.21794771 77.15959014 19.10899953 77.08932487 2 77 C1.98969254 76.12383026 1.97938507 75.24766052 1.96876526 74.34494019 C1.87067082 66.07627206 1.76813967 57.8076733 1.66066074 49.53912163 C1.60556419 45.28847635 1.55216596 41.03782404 1.50268555 36.78710938 C1.4548456 32.68274304 1.40249672 28.57845644 1.34705925 24.47418594 C1.32672433 22.91057452 1.3079971 21.34694132 1.29092598 19.78329086 C1.26668458 17.58835761 1.23665871 15.39357234 1.20532227 13.19873047 C1.18977798 11.95074677 1.1742337 10.70276306 1.15821838 9.41696167 C1.00899072 6.19416794 0.55804077 3.1726404 0 0 Z " fill="#F7DA8C" transform="translate(309,15)"/>
<path d="M0 0 C0.70643143 -0.00832352 1.41286285 -0.01664703 2.14070129 -0.02522278 C4.46796243 -0.04924575 6.7949426 -0.05808691 9.12231445 -0.06469727 C10.75031107 -0.07367206 12.37830688 -0.08279405 14.00630188 -0.09205627 C17.41828408 -0.10852975 20.83016838 -0.11624292 24.2421875 -0.11914062 C28.59206981 -0.12451148 32.94101775 -0.16214389 37.29063702 -0.20788479 C40.65464035 -0.23778886 44.01842275 -0.24486712 47.38254738 -0.24586678 C48.98478266 -0.25004552 50.58702004 -0.26238458 52.18912315 -0.28338432 C62.200441 -0.40412528 70.65536586 0.04469768 78.61625671 6.86378479 C85.74846478 14.31871477 86.23689855 23.41291462 86.13867188 33.25195312 C86.13932899 34.99493683 86.13932899 34.99493683 86.13999939 36.77313232 C86.13792078 40.58778079 86.11463281 44.40198169 86.09106445 48.21655273 C86.0854652 50.87170658 86.08104896 53.52683611 86.07820129 56.18199158 C86.06890959 62.43976946 86.04433522 68.69738846 86.01415282 74.95509666 C85.98051876 82.08453054 85.96410027 89.21397235 85.94906652 96.34346592 C85.91778274 110.99785773 85.86507876 125.65212488 85.7980957 140.30639648 C77.9920269 137.77623573 72.82022882 134.67984849 68.7434082 127.35717773 C67.78440898 125.4538205 66.84502416 123.54048337 65.9230957 121.61889648 C65.41552734 120.60956055 64.90795898 119.60022461 64.38500977 118.56030273 C62.8382385 115.48415051 61.3153522 112.3971964 59.7980957 109.30639648 C58.06955341 105.79510462 56.31743811 102.29727066 54.5480957 98.80639648 C54.00306396 97.67004761 54.00306396 97.67004761 53.44702148 96.51074219 C50.1636539 90.03638355 45.60698891 85.39868683 39.22387695 81.89233398 C32.66197948 80.30733459 24.62193834 80.0317623 18.3605957 82.80639648 C7.4094516 89.96055965 3.00302025 102.46864895 -2.36791992 113.83691406 C-3.50884596 116.24028913 -4.66723325 118.63467955 -5.8269043 121.02905273 C-6.16254395 121.75528336 -6.49818359 122.48151398 -6.84399414 123.22975159 C-10.40691824 130.56578125 -15.49341212 136.25885307 -23.2019043 139.30639648 C-23.8619043 139.30639648 -24.5219043 139.30639648 -25.2019043 139.30639648 C-25.29551436 123.81584096 -25.36596497 108.32530671 -25.40915298 92.83453465 C-25.42974262 85.64122094 -25.45779381 78.44808341 -25.50366211 71.25488281 C-25.54364075 64.98230314 -25.56936326 58.70985111 -25.57825828 52.43714756 C-25.58345456 49.1184094 -25.59771753 45.80011957 -25.62482452 42.48147774 C-25.65393977 38.76868334 -25.65785671 35.05664053 -25.65600586 31.34375 C-25.67038696 30.25401886 -25.68476807 29.16428772 -25.69958496 28.04153442 C-25.65706722 20.13849102 -24.22997344 13.85449181 -19.01831055 7.74780273 C-17.90262695 6.81774414 -17.90262695 6.81774414 -16.7644043 5.86889648 C-15.65258789 4.91176758 -15.65258789 4.91176758 -14.51831055 3.93530273 C-9.7619764 0.59062931 -5.76863855 0.04820183 0 0 Z " fill="#A8DFF6" transform="translate(225.201904296875,-0.306396484375)"/>
<path d="M0 0 C0.33 0 0.66 0 1 0 C1 13.2 1 26.4 1 40 C4.3 40 7.6 40 11 40 C23.12379915 42.45070851 33.4131253 49.32297688 40.66015625 59.28125 C46.97575439 69.08827217 49.22825044 79.37149911 48 91 C47.36837348 92.35028521 46.70680921 93.68750506 46 95 C44.85877686 94.83766876 43.71755371 94.67533752 42.54174805 94.50808716 C35.16307724 93.69585633 27.74477709 93.86054027 20.33203125 93.87060547 C18.65074628 93.86924867 16.96946161 93.86746717 15.28817749 93.86529541 C10.7427891 93.86075422 6.19742352 93.86249697 1.65203476 93.8656745 C-3.11633615 93.86821525 -7.88470518 93.86585578 -12.65307617 93.86428833 C-20.65902048 93.86247164 -28.66495554 93.86485982 -36.67089844 93.86962891 C-45.91231241 93.87507056 -55.15370432 93.87330755 -64.39511776 93.8678025 C-72.34526985 93.86325712 -80.29541531 93.8626278 -88.24556828 93.86524117 C-92.98698857 93.8667961 -97.7283985 93.86701924 -102.46981812 93.86370468 C-106.9284302 93.86080525 -111.38701397 93.86283962 -115.84562302 93.86859894 C-117.47698291 93.86991544 -119.10834521 93.86955137 -120.73970413 93.86733627 C-128.55348487 93.85770883 -136.24950786 93.89754516 -144 95 C-147.93365972 87.66141935 -146.56639323 79.02031517 -144.375 71.25 C-140.36724369 59.60508569 -132.93740314 50.29661048 -121.9375 44.625 C-113.79127853 40.71043988 -107.13334996 39.70832601 -98.19946289 39.77294922 C-96.60322083 39.77251114 -96.60322083 39.77251114 -94.97473145 39.77206421 C-91.4739554 39.77345226 -87.9733949 39.78898895 -84.47265625 39.8046875 C-82.03885515 39.80841949 -79.60505254 39.81126558 -77.17124939 39.81326294 C-70.77782006 39.82088472 -64.38448217 39.84052081 -57.99108887 39.8626709 C-51.46217078 39.88316062 -44.93323787 39.89227135 -38.40429688 39.90234375 C-25.60281803 39.92376801 -12.80143094 39.95893839 0 40 C0 26.8 0 13.6 0 0 Z " fill="#F0EBFE" transform="translate(305,351)"/>
<path d="M0 0 C4.96210007 -0.09961748 9.9236054 -0.1718178 14.88647461 -0.21972656 C16.57114821 -0.23971886 18.25575351 -0.26692223 19.94018555 -0.30175781 C39.41771528 -0.69419397 39.41771528 -0.69419397 47.75 6.3125 C52.50642433 11.99378462 56.09192801 16.2897232 56.17700195 23.9519043 C56.19625481 25.46574959 56.19625481 25.46574959 56.21589661 27.01017761 C56.22328354 28.10381119 56.23067047 29.19744476 56.23828125 30.32421875 C56.246353 31.45841751 56.25442474 32.59261627 56.26274109 33.76118469 C56.27658942 36.17125927 56.28730821 38.58135352 56.29516602 40.99145508 C56.30661313 43.4322696 56.32694735 45.87306055 56.35668945 48.3137207 C56.76637391 81.93760017 46.79660299 104.88830795 23.7578125 129.20703125 C5.5210789 147.67624446 -15.42001062 160.94241743 -39.4375 170.6875 C-40.53449219 171.13432129 -41.63148438 171.58114258 -42.76171875 172.04150391 C-43.7878125 172.4441748 -44.81390625 172.8468457 -45.87109375 173.26171875 C-46.78818115 173.62225342 -47.70526855 173.98278809 -48.65014648 174.35424805 C-51 175 -51 175 -54 174 C-53.34515625 173.25878906 -52.6903125 172.51757812 -52.015625 171.75390625 C-25.78991099 141.66703576 -9.04792958 106.49572616 -3 67 C-2.82484863 65.91960449 -2.64969727 64.83920898 -2.46923828 63.72607422 C-0.5771085 50.70034459 -0.5508261 37.64116957 -0.375 24.5 C-0.33672942 22.11587257 -0.29767277 19.73175763 -0.2578125 17.34765625 C-0.1628207 11.56521667 -0.07750029 5.78269911 0 0 Z " fill="#FFC977" transform="translate(456,119)"/>
<path d="M0 0 C0.79056793 0.0028299 1.58113586 0.00565979 2.3956604 0.00857544 C4.90195334 0.01970295 7.40787895 0.04479324 9.9140625 0.0703125 C11.62108856 0.08035192 13.32812027 0.08947609 15.03515625 0.09765625 C19.2032649 0.11961787 23.37110158 0.15409579 27.5390625 0.1953125 C27.54492874 0.79569839 27.55079498 1.39608429 27.55683899 2.0146637 C27.62190778 8.39294622 27.70657984 14.77077544 27.80151367 21.14868164 C27.83430767 23.51352881 27.86247292 25.87844574 27.88549805 28.2434082 C28.33151595 72.89264728 37.44422771 116.60933206 64.5390625 153.1953125 C64.93335449 153.72801758 65.32764648 154.26072266 65.73388672 154.80957031 C70.72314486 161.5117879 75.90423029 168.01938713 81.5390625 174.1953125 C78.13150847 175.33116384 77.62169628 175.10537884 74.43359375 173.82421875 C73.6230957 173.50146973 72.81259766 173.1787207 71.97753906 172.84619141 C71.1109668 172.48702637 70.24439453 172.12786133 69.3515625 171.7578125 C68.4553418 171.39091309 67.55912109 171.02401367 66.63574219 170.64599609 C48.12480856 162.95557447 30.62124005 153.53980933 15.5390625 140.1953125 C14.55292969 139.33035156 13.56679688 138.46539062 12.55078125 137.57421875 C-7.19220897 120.02070573 -26.53325084 96.65490304 -28.69406128 69.23730469 C-29.01496583 62.41999982 -29.03114122 55.60721018 -28.98242188 48.78369141 C-28.9608107 45.17413445 -28.98240381 41.56653119 -29.0078125 37.95703125 C-29.00517185 35.64062065 -29.00005233 33.32421125 -28.9921875 31.0078125 C-29.00028442 29.93998535 -29.00838135 28.8721582 -29.01672363 27.77197266 C-28.91714985 19.80479721 -27.33526435 14.43814279 -22.0234375 8.4453125 C-20.755 7.3315625 -20.755 7.3315625 -19.4609375 6.1953125 C-18.254375 5.1125 -18.254375 5.1125 -17.0234375 4.0078125 C-11.67482594 0.22464823 -6.37839779 -0.08703566 0 0 Z " fill="#FEC977" transform="translate(28.4609375,118.8046875)"/>
<path d="M0 0 C1.08396057 -0.00043808 2.16792114 -0.00087616 3.284729 -0.00132751 C6.83966578 0.00074944 10.39412101 0.02402927 13.94897461 0.04760742 C16.42475629 0.05320725 18.90054131 0.05747552 21.37632751 0.06047058 C27.87170699 0.07188879 34.36688312 0.10133013 40.86218262 0.13458252 C47.49851096 0.16534857 54.13485934 0.17898986 60.77124023 0.1940918 C73.77718603 0.22620258 86.78299134 0.27678037 99.78881836 0.34057617 C99.78881836 0.67057617 99.78881836 1.00057617 99.78881836 1.34057617 C98.77174805 1.56100586 98.77174805 1.56100586 97.73413086 1.78588867 C86.30511955 4.54024874 78.05048635 9.19235563 71.78881836 19.34057617 C66.15743052 28.61482024 66.6722719 40.01381677 68.26147461 50.44213867 C70.6343829 59.62117312 77.08092232 67.0178158 84.78881836 72.34057617 C88.05050213 73.92016303 91.34884205 75.20566596 94.78881836 76.34057617 C94.78881836 76.67057617 94.78881836 77.00057617 94.78881836 77.34057617 C81.14087486 77.41020585 67.4929739 77.46345338 53.84488869 77.49601269 C47.5069614 77.51164257 41.16915599 77.53283213 34.83129883 77.56689453 C28.7104816 77.59958315 22.58978133 77.61744932 16.46888351 77.6252079 C14.13819921 77.63073434 11.80752102 77.64152602 9.47688675 77.65776634 C6.20263274 77.67966659 2.92885693 77.6825378 -0.34545898 77.68115234 C-1.30068451 77.69193817 -2.25591003 77.702724 -3.24008179 77.71383667 C-14.47900489 77.66265863 -22.88135734 74.58248624 -30.89868164 66.67651367 C-38.73093513 58.1001961 -41.73546827 48.06644421 -41.53149414 36.57104492 C-40.32222583 24.37513155 -35.58019495 15.70766224 -26.42993164 7.80151367 C-18.26404799 1.22344073 -10.31397436 -0.11062805 0 0 Z " fill="#FEC978" transform="translate(74.211181640625,14.659423828125)"/>
<path d="M0 0 C1.5910833 0.00022659 1.5910833 0.00022659 3.21430969 0.00045776 C4.91456551 0.01594162 4.91456551 0.01594162 6.64916992 0.03173828 C7.81848557 0.03456818 8.98780121 0.03739807 10.19255066 0.04031372 C13.92168475 0.05149516 17.65057735 0.07659644 21.37963867 0.10205078 C23.91023416 0.1120832 26.44083341 0.12120859 28.97143555 0.12939453 C35.17008544 0.15142786 41.3685948 0.18488544 47.56713867 0.22705078 C44.56713867 2.22705078 44.56713867 2.22705078 42.51635742 3.19970703 C36.21081521 6.23812893 32.70304881 9.96643018 29.56713867 16.22705078 C28.51505402 19.56752864 28.41316012 22.69759236 28.36181641 26.18896484 C28.34187119 27.38990784 28.32192596 28.59085083 28.30137634 29.82818604 C28.2763076 31.76585846 28.2763076 31.76585846 28.25073242 33.74267578 C28.23014904 35.08217999 28.20915221 36.42167791 28.1877594 37.76116943 C28.13268159 41.27920419 28.08320961 44.79729618 28.03491211 48.31542969 C27.98459243 51.90841743 27.92896111 55.50132251 27.8737793 59.09423828 C27.76637267 66.13843733 27.66488918 73.18271058 27.56713867 80.22705078 C26.92647461 80.43458984 26.28581055 80.64212891 25.62573242 80.85595703 C16.43241174 84.13047811 11.29691773 88.87954525 7.0567627 97.63427734 C6.52049255 98.7939502 6.52049255 98.7939502 5.97338867 99.97705078 C5.57817017 100.79399414 5.18295166 101.6109375 4.77575684 102.45263672 C3.52558429 105.03768486 2.29411094 107.63091868 1.06713867 110.22705078 C-0.55156802 113.65204783 -2.18936546 117.0669146 -3.83911133 120.47705078 C-4.37538147 121.63672363 -4.37538147 121.63672363 -4.92248535 122.81982422 C-8.54833176 130.30618113 -13.54863475 136.11003097 -21.43286133 139.22705078 C-22.09286133 139.22705078 -22.75286133 139.22705078 -23.43286133 139.22705078 C-23.52647139 123.73649526 -23.596922 108.24596101 -23.64011002 92.75518894 C-23.66069965 85.56187524 -23.68875084 78.36873771 -23.73461914 71.17553711 C-23.77459778 64.90295744 -23.80032029 58.6305054 -23.80921531 52.35780185 C-23.81441159 49.0390637 -23.82867457 45.72077387 -23.85578156 42.40213203 C-23.88489681 38.68933764 -23.88881374 34.97729483 -23.88696289 31.2644043 C-23.90134399 30.17467316 -23.9157251 29.08494202 -23.93054199 27.96218872 C-23.88802425 20.05914532 -22.46093047 13.77514611 -17.24926758 7.66845703 C-16.13358398 6.73839844 -16.13358398 6.73839844 -14.99536133 5.78955078 C-13.88354492 4.83242187 -13.88354492 4.83242187 -12.74926758 3.85595703 C-8.59980382 0.93803732 -5.04489216 -0.02408063 0 0 Z " fill="#7CC7EE" transform="translate(223.432861328125,-0.22705078125)"/>
<path d="M0 0 C0.64475784 -0.00029205 1.28951569 -0.00058411 1.95381165 -0.00088501 C4.05862478 0.00049452 6.16307193 0.0159895 8.26782227 0.03173828 C9.73755195 0.03547333 11.20728414 0.03831798 12.67701721 0.04031372 C16.52557375 0.04791148 20.37397681 0.06752631 24.22247314 0.08972168 C28.15749028 0.1102637 32.09253247 0.11933323 36.02758789 0.12939453 C43.7340377 0.15077628 51.44036151 0.184865 59.14672852 0.22705078 C59.14672852 0.55705078 59.14672852 0.88705078 59.14672852 1.22705078 C58.39649414 1.37400391 57.64625977 1.52095703 56.87329102 1.67236328 C48.9135418 3.41669119 41.33342536 5.95127528 35.49438477 11.91455078 C34.14672852 13.22705078 34.14672852 13.22705078 32.14672852 13.22705078 C31.87602539 13.80583984 31.60532227 14.38462891 31.32641602 14.98095703 C30.14451966 17.23125639 28.78313244 19.12454704 27.27172852 21.16455078 C21.69928488 29.46858443 19.02622178 39.25270391 20.14672852 49.22705078 C20.46929082 50.56303074 20.80117431 51.89683231 21.14672852 53.22705078 C20.1619326 53.24251198 20.1619326 53.24251198 19.15724182 53.25828552 C12.29467846 53.36686558 5.43223285 53.48141827 -1.43017578 53.59936523 C-3.98776779 53.64254977 -6.54538558 53.68423573 -9.10302734 53.72436523 C-12.78938549 53.78246895 -16.47561586 53.84604599 -20.16186523 53.91064453 C-21.29659775 53.92735703 -22.43133026 53.94406952 -23.60044861 53.96128845 C-29.75162331 54.07484075 -35.75109707 54.43649707 -41.85327148 55.22705078 C-45.78693121 47.88847013 -44.41966472 39.24736595 -42.22827148 31.47705078 C-38.22051518 19.83213647 -30.79067462 10.52366126 -19.79077148 4.85205078 C-13.27215748 1.71961613 -7.26067156 -0.02787206 0 0 Z " fill="#D3D4FE" transform="translate(202.853271484375,390.77294921875)"/>
<path d="M0 0 C1.57901344 0.00636726 1.57901344 0.00636726 3.18992615 0.01286316 C6.52141917 0.02953107 9.85228643 0.06716125 13.18359375 0.10546875 C15.45506933 0.12053094 17.72655448 0.13421665 19.99804688 0.14648438 C25.53927265 0.17939549 31.08013847 0.22947489 36.62109375 0.29296875 C33.77991215 2.18708981 31.02119759 3.53747848 27.93359375 4.98046875 C16.80093256 10.55351386 10.36235896 18.00212472 5.80859375 29.60546875 C3.83148281 35.7449185 3.38261452 41.32027024 3.30859375 47.73046875 C3.27958984 48.56384766 3.25058594 49.39722656 3.22070312 50.25585938 C3.16382802 55.79024437 3.86994042 58.95390041 7.62109375 63.29296875 C9.2720707 64.64568109 10.9367526 65.9820338 12.62109375 67.29296875 C5.77120602 67.44550233 -1.0782415 67.55034439 -7.92944336 67.62255859 C-10.25838589 67.65267214 -12.58721556 67.69357253 -14.91577148 67.74560547 C-18.26965213 67.81865604 -21.62202955 67.85248063 -24.9765625 67.87890625 C-26.01224869 67.90987396 -27.04793488 67.94084167 -28.11500549 67.9727478 C-34.26929185 67.97559234 -37.67543881 67.19860906 -42.11004639 62.81642151 C-45.77375354 58.41760259 -45.73385221 53.74229194 -45.69140625 48.23046875 C-45.6864917 47.47894531 -45.68157715 46.72742188 -45.67651367 45.953125 C-45.39034349 32.19347576 -40.89325466 21.41498402 -31.546875 11.3671875 C-22.27502237 2.49627985 -12.59186933 -0.19429264 0 0 Z " fill="#5159A2" transform="translate(176.37890625,444.70703125)"/>
<path d="M0 0 C0.33 0 0.66 0 1 0 C1 38.61 1 77.22 1 117 C-12.53 118.98 -26.06 120.96 -40 123 C-40 105.51 -40 88.02 -40 70 C-26.69639524 69.04974252 -13.33749935 69 0 69 C0 46.23 0 23.46 0 0 Z " fill="#FCE7B6" transform="translate(199,23)"/>
<path d="M0 0 C3.238125 0.61875 6.47625 1.2375 9.8125 1.875 C23.16092236 4.30502185 36.46394777 5.15838017 50 6 C50 17.22 50 28.44 50 40 C33.5 40 17 40 0 40 C0 26.8 0 13.6 0 0 Z " fill="#FECF71" transform="translate(206,351)"/>
<path d="M0 0 C0 13.2 0 26.4 0 40 C-16.17 40 -32.34 40 -49 40 C-49 28.78 -49 17.56 -49 6 C-46.81375 5.938125 -44.6275 5.87625 -42.375 5.8125 C-29.70098634 5.24255679 -17.17747649 2.66775807 -4.71118164 0.44311523 C-2 0 -2 0 0 0 Z " fill="#FBE2AA" transform="translate(305,351)"/>
<path d="M0 0 C0.9075 0.845625 1.815 1.69125 2.75 2.5625 C5.54454564 5.14670349 7.7251776 5.44007333 11.5 5.5625 C16.38393665 5.34351914 19.21505184 4.21720594 23 1 C26 -1 26 -1 29.5 -0.875 C33 0 33 0 35 1.625 C36.55164303 5.31015219 36.22738072 7.18865988 35 11 C29.99860378 16.89753017 23.90198052 20.52269351 16.16796875 21.46875 C6.67086514 21.54331019 -0.52915704 20.74286789 -7.9375 14.3203125 C-10.61388177 11.53241482 -11.86499976 9.62591018 -12.6875 5.8125 C-12 3 -12 3 -9.9375 0.5625 C-6.02030205 -1.52111593 -4.2260371 -1.26039703 0 0 Z " fill="#4C5863" transform="translate(245,181)"/>
<path d="M0 0 C3.5 0.5625 3.5 0.5625 5.6875 2.03515625 C8.36846477 5.77348428 8.08605034 9.07354076 8 13.5625 C8.01546875 14.36945313 8.0309375 15.17640625 8.046875 16.0078125 C8.02159961 19.8370336 7.96201833 21.91826323 5.6875 25.08984375 C2.44276156 27.27424802 0.31396909 27.17545932 -3.5 26.5625 C-6.60414451 23.67453698 -7.44137863 21.98319452 -8.03125 17.75 C-8.04178458 16.35416755 -8.03089735 14.95803021 -8 13.5625 C-8.02320313 12.51449219 -8.02320313 12.51449219 -8.046875 11.4453125 C-8.01964383 7.83718213 -7.57921805 5.69208298 -5.6875 2.59765625 C-3.5 0.5625 -3.5 0.5625 0 0 Z " fill="#4E5964" transform="translate(319.5,168.4375)"/>
<path d="M0 0 C3.6343027 2.78451722 4.87456646 4.23960788 5.62890625 8.8125 C5.6328572 10.20850325 5.61012202 11.60480366 5.5625 13 C5.57345703 13.69867188 5.58441406 14.39734375 5.59570312 15.1171875 C5.54509139 18.69375035 5.06819988 20.88648309 3.21875 23.96484375 C0.86403771 26.12471189 0.06607973 26.66497756 -3.0625 26.5625 C-7 26 -7 26 -8.71875 24.52734375 C-10.64269167 20.73225149 -10.47436474 17.19587742 -10.4375 13 C-10.45748047 12.19304687 -10.47746094 11.38609375 -10.49804688 10.5546875 C-10.49486396 6.69699439 -10.47713871 4.65404396 -8.15625 1.47265625 C-5.16187039 -0.57241823 -3.55510628 -0.6529787 0 0 Z " fill="#4D5965" transform="translate(197,169)"/>
<path d="M0 0 C6.24670676 4.87243127 11.44762347 10.34287041 14 18 C14.12025295 20.35192393 14.17532335 22.70753531 14.1875 25.0625 C14.20167969 26.31160156 14.21585938 27.56070313 14.23046875 28.84765625 C14 32 14 32 12 34 C0 7.99423631 0 7.99423631 0 0 Z " fill="#FDE7B8" transform="translate(166,208)"/>
</svg>
