<?xml version="1.0" encoding="UTF-8"?>
<svg version="1.1" xmlns="http://www.w3.org/2000/svg" width="512" height="512">
<path d="M0 0 C0.99350464 -0.00744736 0.99350464 -0.00744736 2.00708008 -0.01504517 C4.19182385 -0.02961423 6.37649499 -0.03646018 8.5612793 -0.04199219 C10.08579 -0.04774823 11.61030071 -0.05350591 13.1348114 -0.05926514 C16.3299493 -0.06976036 19.52506214 -0.0756126 22.72021484 -0.07910156 C26.80224909 -0.08458135 30.88394896 -0.10860435 34.96587849 -0.13707352 C38.11527963 -0.1557537 41.26460111 -0.16090836 44.41405296 -0.16243744 C45.9182639 -0.16545268 47.42247381 -0.17344288 48.92663002 -0.18662262 C51.03727846 -0.20379568 53.14712137 -0.20177607 55.2578125 -0.1953125 C56.45598099 -0.19895813 57.65414948 -0.20260376 58.8886261 -0.20635986 C64.80714808 0.42694763 69.42753715 2.51654482 73.32299805 7.16113281 C74.67428571 9.86370814 74.44710669 11.95507834 74.44604588 14.98262978 C74.44803692 16.23018409 74.45002797 17.47773841 74.45207936 18.76309741 C74.44922594 20.1603126 74.44628034 21.55752761 74.44325256 22.95474243 C74.44368826 24.42902246 74.44456314 25.90330242 74.44584173 27.37758195 C74.44808696 31.44343492 74.44406502 35.50926175 74.43906367 39.57511139 C74.43475976 43.95412192 74.43620555 48.33313089 74.43696594 52.71214294 C74.43749122 60.30394467 74.43434407 67.89573782 74.4287281 75.48753738 C74.42061355 86.46411096 74.41799793 97.44068038 74.41674011 108.41725664 C74.41454952 126.22446251 74.40788924 144.0316638 74.3984375 161.83886719 C74.38926357 179.14062477 74.38218264 196.44238111 74.37792969 213.74414062 C74.37766696 214.8099726 74.37740424 215.87580457 74.37713356 216.97393449 C74.37582855 222.32070665 74.37456484 227.66747882 74.37332165 233.01425099 C74.36294882 277.39654899 74.3445104 321.77883854 74.32299805 366.16113281 C43.63299805 366.16113281 12.94299805 366.16113281 -18.67700195 366.16113281 C-18.76515208 320.91096087 -18.83902088 275.66086977 -18.88126327 230.41063657 C-18.88626621 225.07079532 -18.89144349 219.73095426 -18.89672852 214.39111328 C-18.89777776 213.32802829 -18.898827 212.26494329 -18.89990804 211.1696436 C-18.9173225 193.9468422 -18.94886593 176.7240941 -18.98561314 159.50132434 C-19.02299358 141.83468483 -19.04523167 124.16807326 -19.05335593 106.50139582 C-19.05884972 95.59641643 -19.07621346 84.69158769 -19.10866782 73.78665467 C-19.12977994 66.31298477 -19.13620949 58.83939297 -19.13100746 51.3656954 C-19.12844053 47.05103097 -19.13242908 42.73663013 -19.15382385 38.42201233 C-19.17326424 34.4727555 -19.17428855 30.52393998 -19.16059753 26.574663 C-19.158905 25.14521632 -19.16400075 23.71574231 -19.17653468 22.28634958 C-19.28583807 9.05278492 -19.28583807 9.05278492 -14.67700195 4.16113281 C-10.15310229 0.06134874 -5.94826183 0.03396502 0 0 Z " fill="#FE8B56" transform="translate(436.677001953125,145.8388671875)"/>
<path d="M0 0 C1.19262451 -0.00088623 2.38524902 -0.00177246 3.61401367 -0.00268555 C4.95753398 0.01401226 6.30104018 0.03187683 7.64453125 0.05078125 C9.05509306 0.06161786 10.46565628 0.07227242 11.8762207 0.08276367 C17.07076971 0.13533562 22.26361503 0.24477236 27.45703125 0.36328125 C29.12523926 0.40128845 29.12523926 0.40128845 30.82714844 0.44006348 C38.32914903 0.61686711 45.8297986 0.82397902 53.33023071 1.05801392 C55.86980214 1.13642372 58.4095015 1.21079559 60.9493103 1.28109741 C64.56059487 1.38387421 68.17075028 1.50568714 71.78125 1.6328125 C72.87062866 1.66110138 73.96000732 1.68939026 75.08239746 1.71853638 C80.56517066 1.93341592 84.74238807 2.24733471 89.45703125 5.36328125 C90.89453125 7.05078125 90.89453125 7.05078125 91.45703125 9.36328125 C90.97282851 15.00899585 89.81952063 20.01211171 88.02026367 25.36816406 C87.77294998 26.12368561 87.52563629 26.87920715 87.27082825 27.65762329 C86.45909192 30.12983647 85.63640898 32.59822548 84.8125 35.06640625 C84.24027904 36.79406769 83.66836931 38.52183225 83.09675598 40.24969482 C81.90061869 43.85895131 80.69865781 47.46620564 79.49291992 51.07226562 C77.94967849 55.69026705 76.42434245 60.3139634 74.90368176 64.93944168 C73.72897669 68.50414158 72.54325074 72.06510165 71.35433388 75.62508392 C70.78721307 77.32865069 70.22389255 79.03348755 69.66448021 80.73960114 C68.88172033 83.12237992 68.08385297 85.4995724 67.28198242 87.87597656 C67.05481537 88.5783847 66.82764832 89.28079285 66.59359741 90.00448608 C65.21799995 94.01877733 63.80378583 96.71087399 60.45703125 99.36328125 C57.14991153 100.41874499 55.29877217 100.66544466 52.01953125 99.48828125 C48.16093695 96.28847134 45.41096443 92.38704938 42.45703125 88.36328125 C41.38407012 86.928746 40.30977431 85.49520838 39.234375 84.0625 C38.709646 83.36342529 38.18491699 82.66435059 37.64428711 81.9440918 C37.25249268 81.42242432 36.86069824 80.90075684 36.45703125 80.36328125 C35.91216064 80.6785376 35.36729004 80.99379395 34.8059082 81.31860352 C-29.58912239 118.4478098 -98.52834908 146.84680605 -170.54296875 165.36328125 C-171.23052246 165.54097046 -171.91807617 165.71865967 -172.62646484 165.9017334 C-219.81441728 178.08227678 -267.92532964 186.61672705 -316.54296875 190.36328125 C-318.51257568 190.51772705 -318.51257568 190.51772705 -320.52197266 190.67529297 C-341.57054913 192.29284184 -362.42687665 192.53998495 -383.54296875 192.36328125 C-383.54296875 173.88328125 -383.54296875 155.40328125 -383.54296875 136.36328125 C-371.22912567 135.24384097 -371.22912567 135.24384097 -366.0234375 135.15234375 C-287.50032392 133.39076358 -209.42366725 119.72309338 -75.54296875 72.36328125 C-74.39489746 71.86892578 -73.24682617 71.37457031 -72.06396484 70.86523438 C-49.29647231 60.99257733 -26.76793062 50.35561848 -5.16796875 38.11328125 C-4.37696777 37.67161621 -3.5859668 37.22995117 -2.77099609 36.77490234 C-0.43539951 35.45263006 -0.43539951 35.45263006 2.45703125 33.36328125 C2.45703125 29.89686114 1.88485995 29.22914504 -0.1328125 26.52734375 C-0.66970703 25.79257812 -1.20660156 25.0578125 -1.75976562 24.30078125 C-2.90176778 22.76601332 -4.04498661 21.2321499 -5.18945312 19.69921875 C-5.72763672 18.961875 -6.26582031 18.22453125 -6.8203125 17.46484375 C-7.31781006 16.79791504 -7.81530762 16.13098633 -8.32788086 15.44384766 C-9.72536004 13.05097694 -10.22046254 11.10750575 -10.54296875 8.36328125 C-8.77348947 2.17010377 -6.43707919 -0.01899146 0 0 Z " fill="#DA5B65" transform="translate(404.54296875,1.63671875)"/>
<path d="M0 0 C1.03717667 -0.0098568 1.03717667 -0.0098568 2.0953064 -0.01991272 C4.3828747 -0.03961702 6.67037738 -0.05130273 8.95800781 -0.0612793 C10.13229214 -0.06739259 10.13229214 -0.06739259 11.33029938 -0.07362938 C15.4750797 -0.09447932 19.61982704 -0.10878487 23.76464844 -0.11816406 C28.03625018 -0.12921778 32.30732947 -0.1636083 36.5787468 -0.20333576 C39.87140847 -0.22953832 43.16394643 -0.23785916 46.45670319 -0.24144554 C48.03070854 -0.24630324 49.60470868 -0.25789396 51.17861176 -0.27648354 C53.38771912 -0.30095083 55.59548485 -0.2998969 57.8046875 -0.29296875 C59.05916687 -0.29883499 60.31364624 -0.30470123 61.60614014 -0.31074524 C66.6989646 0.38799342 70.46718614 2.3701255 74.03613281 6.17700195 C76.09650508 9.83988599 76.28590226 13.23308873 76.28418064 17.38563919 C76.28617169 18.44558885 76.28816274 19.50553851 76.29021412 20.59760785 C76.28730128 21.76102287 76.28438844 22.92443789 76.28138733 24.12310791 C76.28224175 25.35975842 76.28309618 26.59640893 76.2839765 27.8705337 C76.28534042 31.3047928 76.28220903 34.7389951 76.27719843 38.17324734 C76.27288483 41.87600644 76.27434101 45.57876375 76.27510071 49.28152466 C76.27562536 55.6973843 76.27248464 62.11323379 76.26686287 68.52909088 C76.25874 77.80537261 76.25613184 87.08164942 76.25487488 96.35793433 C76.2526856 111.40765236 76.24602887 126.45736498 76.23657227 141.50708008 C76.22739494 156.12752251 76.22031567 170.74796347 76.21606445 185.3684082 C76.21580173 186.26942997 76.21553901 187.17045174 76.21526832 188.0987772 C76.2139633 192.61888418 76.21269958 197.13899116 76.21145642 201.65909815 C76.20108767 239.16507089 76.18265144 276.67103362 76.16113281 314.17700195 C45.14113281 314.17700195 14.12113281 314.17700195 -17.83886719 314.17700195 C-17.90498747 275.67871899 -17.96038614 237.18048952 -17.99206318 198.68216603 C-17.99581536 194.13845239 -17.99969832 189.59473886 -18.00366211 185.05102539 C-18.00444904 184.14644298 -18.00523597 183.24186056 -18.00604675 182.30986656 C-18.01910537 167.65751901 -18.04276173 153.00520673 -18.07032558 138.35288011 C-18.09836707 123.32142838 -18.11504079 108.28999515 -18.12113267 93.25851834 C-18.12525172 83.98116284 -18.13826761 74.703907 -18.16261659 65.42658217 C-18.17845827 59.0672315 -18.1832711 52.70793246 -18.17937132 46.34856348 C-18.17744732 42.67796879 -18.18042411 39.00754843 -18.19648361 35.33698463 C-18.21376355 31.3584519 -18.20783889 27.38014702 -18.19963074 23.40158081 C-18.20836926 22.24010053 -18.21710779 21.07862024 -18.22611111 19.88194358 C-18.19463676 14.25740289 -18.13272059 9.97653116 -14.83886719 5.17700195 C-9.97298706 0.67606283 -6.50735864 0.05119471 0 0 Z " fill="#FECC37" transform="translate(295.8388671875,197.822998046875)"/>
<path d="M0 0 C0.71241852 -0.0065712 1.42483704 -0.0131424 2.15884399 -0.01991272 C4.52158714 -0.039657 6.88426664 -0.05131188 9.24707031 -0.0612793 C10.05415688 -0.06535482 10.86124344 -0.06943035 11.69278717 -0.07362938 C15.96608729 -0.09449676 20.23935525 -0.10879453 24.51269531 -0.11816406 C28.92230029 -0.12921901 33.33139932 -0.16360602 37.74082565 -0.20333576 C41.13467329 -0.2295114 44.52840069 -0.23785681 47.92234039 -0.24144554 C49.54741068 -0.24631051 51.17247564 -0.25792205 52.7974472 -0.27648354 C55.07630673 -0.3008922 57.35386165 -0.29990734 59.6328125 -0.29296875 C60.92805847 -0.29883499 62.22330444 -0.30470123 63.55780029 -0.31074524 C68.89411926 0.42922698 71.76049242 2.64179965 75.21918488 6.68057728 C77.7263631 11.40369716 77.61993399 15.19860599 77.55621338 20.46542358 C77.55963108 21.49960533 77.56304878 22.53378707 77.56657004 23.59930766 C77.57315682 27.06347631 77.55115872 30.52686957 77.52929688 33.9909668 C77.52816858 36.47457867 77.52880191 38.95819188 77.53106689 41.44180298 C77.53197767 46.78822162 77.52063502 52.13439907 77.49811554 57.48075485 C77.46557776 65.21060062 77.45518672 72.94035201 77.45016357 80.67025883 C77.44141369 93.2121109 77.4148065 105.75385878 77.37695312 118.2956543 C77.34022506 130.47728963 77.31191721 142.65889664 77.29492188 154.84057617 C77.29334553 155.96729599 77.29334553 155.96729599 77.29173735 157.11677782 C77.28651712 160.88513979 77.2814623 164.65350197 77.27648973 168.42186427 C77.23503725 199.67366917 77.16130463 230.92528027 77.07519531 262.17700195 C46.05519531 262.17700195 15.03519531 262.17700195 -16.92480469 262.17700195 C-16.99094642 230.44762549 -17.04633684 198.71831557 -17.07800068 166.98889169 C-17.08175278 163.24259434 -17.08563575 159.49629713 -17.08959961 155.75 C-17.09038654 155.00418248 -17.09117347 154.25836496 -17.09198425 153.48994691 C-17.1050367 141.41518168 -17.12868966 129.34045932 -17.15626308 117.26571953 C-17.18432175 104.87510243 -17.20098192 92.48450777 -17.20707017 80.09386021 C-17.21118566 72.44870632 -17.22418218 64.8036736 -17.24855409 57.15855701 C-17.2662927 51.2953987 -17.26816913 45.43230252 -17.26412773 39.56911659 C-17.26495369 37.16450123 -17.27092943 34.75988132 -17.28242111 32.35529327 C-17.29733795 29.07327654 -17.29376085 25.79177902 -17.28556824 22.50975037 C-17.29430676 21.55740318 -17.30304529 20.605056 -17.31204861 19.62384981 C-17.27434166 14.03841765 -16.61424711 10.10823503 -13.92480469 5.17700195 C-9.13823419 0.74066832 -6.45117748 0.0491514 0 0 Z " fill="#39C6B3" transform="translate(154.9248046875,249.822998046875)"/>
<path d="M0 0 C0.72246414 -0.00671722 1.44492828 -0.01343445 2.18928528 -0.02035522 C4.57368886 -0.03932712 6.95781083 -0.04325899 9.34228516 -0.04541016 C11.00371414 -0.05183873 12.66514199 -0.05856714 14.3265686 -0.06558228 C17.80839665 -0.07755306 21.29012549 -0.08126332 24.77197266 -0.08007812 C29.22639521 -0.07987496 33.68017955 -0.10717469 38.13445091 -0.14162254 C41.56605939 -0.16389636 44.99751441 -0.16791552 48.42918777 -0.16685867 C50.07099227 -0.169214 51.71280104 -0.17803374 53.35453415 -0.19352341 C55.6547751 -0.21319375 57.95364159 -0.20734249 60.25390625 -0.1953125 C62.21437393 -0.19958755 62.21437393 -0.19958755 64.21444702 -0.20394897 C68.46144861 0.38896481 70.51817022 1.49778424 73.75634766 4.29052734 C76.73370628 9.03823839 77.17996832 13.13294334 77.11711121 18.60482788 C77.11967448 19.4266649 77.12223776 20.24850192 77.1248787 21.0952431 C77.12980818 23.84071514 77.11333758 26.58563356 77.09692383 29.33105469 C77.09607737 31.30235786 77.09655305 33.27366198 77.09825134 35.2449646 C77.09911201 40.59162918 77.08147458 45.9380918 77.06052947 51.28470945 C77.04177463 56.87409154 77.04001316 62.46347827 77.03645325 68.05288696 C77.0271293 78.63502282 77.00251071 89.21706569 76.97240478 99.7991606 C76.93260148 114.10029384 76.91640873 128.40145252 76.89889812 142.70262718 C76.87068993 165.23199689 76.81092263 187.76117036 76.75634766 210.29052734 C46.39634766 210.29052734 16.03634766 210.29052734 -15.24365234 210.29052734 C-15.40486448 159.58483218 -15.40486448 159.58483218 -15.43896484 138.37451172 C-15.46272084 123.71584491 -15.49068297 109.05726991 -15.54541016 94.39868164 C-15.58524463 83.72400698 -15.61107727 73.04940664 -15.62000632 62.37465972 C-15.62522679 56.72099624 -15.63751947 51.06754538 -15.66657257 45.41394997 C-15.69368798 40.0944069 -15.70210512 34.77516439 -15.69608307 29.45555878 C-15.69718504 27.50161036 -15.70516186 25.54765208 -15.72047424 23.59376335 C-15.74034153 20.92829293 -15.73560356 18.26396108 -15.72467041 15.59846497 C-15.73632178 14.82316667 -15.74797314 14.04786837 -15.75997758 13.24907619 C-15.7049913 8.29819094 -14.76329395 5.77532256 -11.24365234 2.29052734 C-7.72906941 -0.24057153 -4.23534022 0.02473482 0 0 Z " fill="#48C2DF" transform="translate(15.24365234375,301.70947265625)"/>
<path d="M0 0 C1.05692047 0.00212242 1.05692047 0.00212242 2.13519287 0.00428772 C4.37663084 0.00986692 6.61796743 0.02241552 8.859375 0.03515625 C10.38281105 0.04017394 11.90624868 0.04473638 13.4296875 0.04882812 C17.15628272 0.05982951 20.88281896 0.07707979 24.609375 0.09765625 C22.6377463 1.41207538 20.63755485 2.68479759 18.609375 3.91015625 C15.45625952 6.20930295 14.29463101 7.63238868 12.609375 11.09765625 C12.16070386 14.04702674 12.16070386 14.04702674 12.22461414 17.25706196 C12.21042933 19.12690297 12.21042933 19.12690297 12.19595796 21.03451854 C12.20058755 22.41504718 12.20549403 23.79557491 12.21064758 25.17610168 C12.20520851 26.64472637 12.19845711 28.11334668 12.19050568 29.5819599 C12.17245411 33.61827279 12.17304063 37.65440195 12.17663515 41.69074571 C12.17725818 46.04314875 12.16064655 50.39548971 12.14611816 54.74786377 C12.12330953 62.28886688 12.11144315 69.82982372 12.10698891 77.37085915 C12.10053302 88.2739452 12.07760554 99.17694754 12.05064561 110.07999989 C12.00735383 127.76906042 11.97740074 145.45811744 11.95581055 163.1472168 C11.93480802 180.33147919 11.90753927 197.51571278 11.87182617 214.69995117 C11.86962735 215.75902098 11.86742852 216.8180908 11.86516307 217.90925363 C11.8540936 223.22224598 11.84290075 228.53523805 11.83164656 233.84823 C11.73842761 277.93134812 11.66766656 322.01447928 11.609375 366.09765625 C1.379375 366.09765625 -8.850625 366.09765625 -19.390625 366.09765625 C-19.48101441 320.84750774 -19.55264393 275.59738086 -19.59488632 230.34716 C-19.59988926 225.00731876 -19.60506654 219.66747769 -19.61035156 214.32763672 C-19.6114008 213.26455172 -19.61245005 212.20146673 -19.61353108 211.10616703 C-19.63094555 193.88336563 -19.66248897 176.66061754 -19.69923618 159.43784778 C-19.73661662 141.77120826 -19.75885472 124.1045967 -19.76697898 106.43791926 C-19.77247276 95.53293987 -19.7898365 84.62811113 -19.82229087 73.7231781 C-19.84340299 66.24950821 -19.84983254 58.77591641 -19.84463051 51.30221884 C-19.84206358 46.9875544 -19.84605213 42.67315357 -19.8674469 38.35853577 C-19.88688728 34.40927894 -19.88791159 30.46046342 -19.87422058 26.51118644 C-19.87252805 25.08173976 -19.8776238 23.65226574 -19.89015773 22.22287302 C-19.99946111 8.98930835 -19.99946111 8.98930835 -15.390625 4.09765625 C-10.65629846 -0.19282718 -6.2227757 -0.02469355 0 0 Z " fill="#EC6A34" transform="translate(437.390625,145.90234375)"/>
<path d="M0 0 C1.05904289 0.00212242 1.05904289 0.00212242 2.13948059 0.00428772 C4.39120751 0.00987861 6.64283446 0.02242937 8.89453125 0.03515625 C10.4225246 0.04017243 11.95051952 0.04473513 13.47851562 0.04882812 C17.2213926 0.05984505 20.96419498 0.07710338 24.70703125 0.09765625 C22.70703125 2.09765625 22.70703125 2.09765625 20.26953125 3.47265625 C17.57182908 5.18339421 16.36286945 6.39407178 14.70703125 9.09765625 C14.25752215 11.59821526 14.25752215 11.59821526 14.32227039 14.3531456 C14.31281385 15.42354544 14.30335731 16.49394529 14.29361421 17.59678149 C14.29846178 18.77186936 14.30330936 19.94695722 14.30830383 21.15765381 C14.30165701 22.40655498 14.29501018 23.65545615 14.28816193 24.94220281 C14.27010335 28.41070466 14.2706977 31.87899279 14.2742914 35.3475306 C14.27491426 39.08713523 14.25830448 42.82666751 14.24377441 46.5662384 C14.22096237 53.045942 14.20909882 59.52559174 14.20464516 66.00533295 C14.19819011 75.37396692 14.17526412 84.74250345 14.14830186 94.1110982 C14.1050068 109.31054266 14.07505559 124.50998302 14.0534668 139.70947266 C14.03246525 154.47544367 14.00519736 169.24138115 13.96948242 184.00732422 C13.9672836 184.91730698 13.96508477 185.82728973 13.96281932 186.76484773 C13.95174987 191.32990718 13.94055702 195.89496631 13.92930281 200.46002531 C13.83607921 238.33920803 13.76532042 276.21840485 13.70703125 314.09765625 C3.14703125 314.09765625 -7.41296875 314.09765625 -18.29296875 314.09765625 C-18.36076959 275.59938828 -18.41448771 237.10113598 -18.44616474 198.60282033 C-18.44991692 194.05910668 -18.45379988 189.51539316 -18.45776367 184.97167969 C-18.4585506 184.06709727 -18.45933753 183.16251486 -18.46014831 182.23052086 C-18.47320693 167.57817331 -18.49686329 152.92586102 -18.52442714 138.2735344 C-18.55246863 123.24208268 -18.56914235 108.21064944 -18.57523423 93.17917264 C-18.57935328 83.90181713 -18.59236917 74.6245613 -18.61671815 65.34723647 C-18.63255984 58.9878858 -18.63737267 52.62858675 -18.63347288 46.26921777 C-18.63154889 42.59862309 -18.63452567 38.92820273 -18.65058517 35.25763893 C-18.66786512 31.2791062 -18.66194045 27.30080132 -18.6537323 23.32223511 C-18.66247082 22.16075482 -18.67120935 20.99927454 -18.68021268 19.80259788 C-18.64873833 14.17805719 -18.58682216 9.89718546 -15.29296875 5.09765625 C-10.34447329 0.52029795 -6.52128788 -0.04917364 0 0 Z " fill="#E7B835" transform="translate(296.29296875,197.90234375)"/>
<path d="M0 0 C0.70744354 0.00141495 1.41488708 0.0028299 2.14376831 0.00428772 C4.40578419 0.00989025 6.66770148 0.02244307 8.9296875 0.03515625 C10.46223815 0.04017093 11.99479036 0.04473389 13.52734375 0.04882812 C17.28649638 0.05986048 21.04557522 0.07712673 24.8046875 0.09765625 C24.0621875 0.65453125 23.3196875 1.21140625 22.5546875 1.78515625 C17.73314935 5.65527788 17.73314935 5.65527788 15.4351964 11.21547663 C15.28248488 13.91890366 15.26403907 16.59605176 15.28570557 19.30378723 C15.27445369 20.85990354 15.27445369 20.85990354 15.2629745 22.44745654 C15.24265229 25.92847083 15.25080923 29.40883659 15.25878906 32.88989258 C15.25005656 35.3832158 15.23957192 37.87653342 15.22746277 40.36984253 C15.20532912 45.74023971 15.19540225 51.11044761 15.19657135 56.48087502 C15.19824057 64.24555078 15.17790616 72.01004652 15.15221605 79.77467426 C15.11113173 92.37247914 15.0878213 104.97025165 15.07568359 117.56811523 C15.0638555 129.80512606 15.04365956 142.04207593 15.01220703 154.27905273 C15.01027093 155.033449 15.00833483 155.78784526 15.00634006 156.56510202 C14.99657549 160.34971924 14.98664638 164.13433601 14.97663546 167.91895258 C14.89380909 199.31182992 14.84092215 230.70468896 14.8046875 262.09765625 C4.2446875 262.09765625 -6.3153125 262.09765625 -17.1953125 262.09765625 C-17.26313777 230.36829539 -17.31684466 198.63896217 -17.34850849 166.90954598 C-17.35226059 163.16324863 -17.35614356 159.41695143 -17.36010742 155.6706543 C-17.36089435 154.92483678 -17.36168128 154.17901926 -17.36249206 153.41060121 C-17.37554451 141.33583598 -17.39919747 129.26111362 -17.42677089 117.18637382 C-17.45482956 104.79575672 -17.47148974 92.40516207 -17.47757798 80.01451451 C-17.48169347 72.36936062 -17.49468999 64.72432789 -17.5190619 57.0792113 C-17.53680051 51.216053 -17.53867694 45.35295682 -17.53463554 39.48977089 C-17.53546151 37.08515553 -17.54143725 34.68053562 -17.55292892 32.27594757 C-17.56784576 28.99393084 -17.56426866 25.71243331 -17.55607605 22.43040466 C-17.56481457 21.47805748 -17.5735531 20.5257103 -17.58255643 19.54450411 C-17.54484947 13.95907195 -16.88475492 10.02888933 -14.1953125 5.09765625 C-9.40039671 0.65358796 -6.34888939 -0.04751538 0 0 Z " fill="#01AD94" transform="translate(155.1953125,249.90234375)"/>
<path d="M0 0 C1.05692047 0.00424484 1.05692047 0.00424484 2.13519287 0.00857544 C4.3767626 0.01973449 6.61792686 0.04483057 8.859375 0.0703125 C10.38280671 0.08034786 11.90624471 0.08947274 13.4296875 0.09765625 C17.15638086 0.11965959 20.88283833 0.15415978 24.609375 0.1953125 C23.866875 0.7521875 23.124375 1.3090625 22.359375 1.8828125 C18.26477454 5.32599925 15.8405803 7.48596571 15.10156631 12.94964314 C15.07750827 14.44201363 15.0753024 15.93483428 15.09039307 17.42732239 C15.07914119 18.66492161 15.07914119 18.66492161 15.067662 19.92752284 C15.04737498 22.68997495 15.0554894 25.45160707 15.06347656 28.21411133 C15.0547421 30.19512749 15.04425676 32.17613659 15.03215027 34.15713501 C15.00425422 39.53482257 15.00088639 44.91228034 15.00187016 50.29002976 C14.99874417 55.91017717 14.97313249 61.5302206 14.94989014 67.15031433 C14.90930258 77.7926446 14.88898292 88.43491355 14.87591624 99.07730931 C14.86005555 111.19333205 14.82164383 123.30925031 14.78132296 135.4252125 C14.69888626 160.34854717 14.64561759 185.27187156 14.609375 210.1953125 C4.709375 210.1953125 -5.190625 210.1953125 -15.390625 210.1953125 C-15.48316986 183.81378299 -15.55457729 157.4322925 -15.59787369 131.05063343 C-15.61851014 118.80152172 -15.64665154 106.55251264 -15.69238281 94.3034668 C-15.73221728 83.62879214 -15.75804993 72.95419179 -15.76697898 62.27944487 C-15.77219944 56.62578139 -15.78449213 50.97233054 -15.81354523 45.31873512 C-15.84066063 39.99919205 -15.84907777 34.67994955 -15.84305573 29.36034393 C-15.84415769 27.40639552 -15.85213451 25.45243723 -15.8674469 23.49854851 C-15.88731419 20.83307809 -15.88257622 18.16874624 -15.87164307 15.50325012 C-15.88329443 14.72795183 -15.8949458 13.95265353 -15.90695024 13.15386134 C-15.85196071 8.20268372 -14.9094901 5.68092847 -11.390625 2.1953125 C-7.8397292 -0.38689272 -4.28231903 -0.03398666 0 0 Z " fill="#00A5C6" transform="translate(15.390625,301.8046875)"/>
</svg>
