<?xml version="1.0" encoding="UTF-8"?>
<svg version="1.1" xmlns="http://www.w3.org/2000/svg" width="512" height="512">
<path d="M0 0 C1.29834939 -0.00594224 2.59669878 -0.01188449 3.93439209 -0.0180068 C7.52272777 -0.03406387 11.11098325 -0.03772126 14.6993506 -0.03920174 C18.57539635 -0.04291722 22.45140119 -0.0580187 26.3274231 -0.07147217 C34.79428721 -0.09857732 43.26113232 -0.11067765 51.72803259 -0.11949348 C57.01744454 -0.12502682 62.30684922 -0.13350287 67.59625626 -0.14250183 C82.25010913 -0.16687546 96.9039562 -0.18747878 111.5578289 -0.19425201 C112.96318459 -0.19491071 112.96318459 -0.19491071 114.3969313 -0.19558272 C115.33602536 -0.19601927 116.27511943 -0.19645583 117.24267089 -0.19690561 C119.14551473 -0.19779253 121.04835856 -0.19868566 122.95120239 -0.19958496 C123.89507077 -0.20002782 124.83893915 -0.20047068 125.81140961 -0.20092696 C141.11050145 -0.2088256 156.40940293 -0.2437469 171.70842122 -0.29030401 C187.42720285 -0.33775149 203.14588896 -0.36265651 218.86474335 -0.36498785 C227.68582232 -0.36681984 236.50665295 -0.37828666 245.32766342 -0.41462708 C252.83714383 -0.44545639 260.34629909 -0.45565398 267.85583077 -0.43915087 C271.68512422 -0.43134805 275.51376312 -0.43314457 279.34297562 -0.46126556 C283.49962866 -0.49151157 287.65481304 -0.474982 291.81152344 -0.45410156 C293.01425962 -0.47021437 294.21699581 -0.48632718 295.45617855 -0.50292826 C303.37773646 -0.4099346 308.80622313 1.28015292 315.03274536 6.28088379 C320.94817952 13.37940478 321.32186152 20.38984244 321.25979614 29.24328613 C321.2600882 30.33656219 321.26038025 31.42983826 321.26068115 32.5562439 C321.25929092 36.15985121 321.24374388 39.76325022 321.22805786 43.36682129 C321.22432665 45.86931241 321.22148019 48.37180499 321.21948242 50.8742981 C321.21263363 56.78151518 321.19688027 62.68866574 321.17678344 68.59584868 C321.15219514 75.98433671 321.14148487 83.37283405 321.13040161 90.76135254 C321.10896657 103.93456738 321.07522638 117.10772087 321.03274536 130.28088379 C321.63734085 130.34210419 322.24193634 130.40332458 322.86485291 130.46640015 C323.66509384 130.55068268 324.46533478 130.63496521 325.28982544 130.72180176 C326.47515617 130.84456985 326.47515617 130.84456985 327.68443298 130.96981812 C350.90584763 134.04580795 372.05752616 149.19904663 386.46438599 167.05529785 C402.36079562 187.96624014 408.53070495 213.96230231 405.74856567 239.93371582 C404.01913318 252.13479252 400.17563231 263.1283312 395.03274536 274.28088379 C395.8667688 275.1638916 396.70079224 276.04689941 397.56008911 276.95666504 C403.54291798 283.32490728 409.32662282 289.74503108 414.79055786 296.56994629 C417.27181562 299.56993389 419.88148742 302.43232294 422.53274536 305.28088379 C426.89612802 309.9721463 431.01205712 314.8101117 435.02493286 319.80822754 C437.21261009 322.50239035 439.49356312 325.09294187 441.84133911 327.64807129 C446.27355469 333.7223864 445.80370803 341.11498867 445.03274536 348.28088379 C442.8744178 354.65547915 437.75705929 358.99196386 432.03274536 362.28088379 C426.10590689 364.26052027 418.70727299 364.41394607 412.97024536 361.84338379 C408.71154772 359.38511116 405.23227705 356.04062076 401.65774536 352.69494629 C399.09017757 350.33370091 396.44429786 348.14604204 393.72024536 345.96838379 C389.49877428 342.55667303 385.49186452 338.98785206 381.53274536 335.28088379 C376.67061581 330.72951618 371.68293983 326.41723054 366.47024536 322.26525879 C364.27116486 320.47498171 362.22281635 318.59633843 360.15774536 316.65588379 C357.38814511 314.00501974 357.38814511 314.00501974 354.80227661 314.45275879 C350.66935507 315.68855479 346.69207563 317.29286575 342.70657349 318.93322754 C338.12486451 320.72979914 333.55920446 321.87161845 328.73953247 322.87902832 C327.48249008 323.1432962 326.22544769 323.40756409 324.93031311 323.67984009 C323.97411575 323.87818451 323.0179184 324.07652893 322.03274536 324.28088379 C322.02687912 325.16736099 322.02101288 326.0538382 322.01496887 326.96717834 C321.95696366 335.33866006 321.8848421 343.7098772 321.79703045 352.08110142 C321.75238345 356.38441136 321.71311501 360.68762787 321.68630981 364.99108887 C321.66022001 369.14746698 321.61977794 373.30348445 321.5695591 377.4596386 C321.55292865 379.0419356 321.54139062 380.62429493 321.53513145 382.20666695 C321.52544833 384.43043573 321.49734111 386.65328983 321.46511841 388.87683105 C321.45401535 390.14035904 321.44291229 391.40388702 321.43147278 392.70570374 C320.69432537 399.31531869 318.19496534 403.9590252 313.03274536 408.28088379 C307.03274536 411.28088379 307.03274536 411.28088379 281.03274536 411.28088379 C281.03274536 432.40088379 281.03274536 453.52088379 281.03274536 475.28088379 C288.29274536 475.28088379 295.55274536 475.28088379 303.03274536 475.28088379 C310.40385057 477.12366009 313.35446326 477.89714645 318.03274536 483.28088379 C320.81868659 488.13381368 321.97570801 492.72905875 321.03274536 498.28088379 C319.09144673 504.2034898 316.03989502 507.68879816 311.03274536 511.28088379 C308.48159707 512.55645794 306.69574664 512.40860813 303.83822823 512.41231155 C302.17655088 512.41807327 302.17655088 512.41807327 300.48130429 512.42395139 C299.2541029 512.42308491 298.02690151 512.42221842 296.76251221 512.42132568 C294.81866931 512.42578237 294.81866931 512.42578237 292.83555686 512.43032908 C289.22613694 512.4384182 285.61673688 512.44018973 282.00730896 512.44092655 C278.1188656 512.44277393 274.23043262 512.45031993 270.34199524 512.45706177 C261.83125021 512.4706618 253.32050989 512.47667314 244.8097558 512.48107243 C239.49456717 512.48383349 234.17938036 512.48807074 228.86419296 512.4925766 C214.14710415 512.50477421 199.43001681 512.51507075 184.71292305 512.51845169 C183.29905455 512.51878104 183.29905455 512.51878104 181.85662305 512.51911704 C180.91177635 512.51933532 179.96692965 512.5195536 178.99345124 512.51977849 C177.0788149 512.52022196 175.16417857 512.52066852 173.24954224 512.52111816 C171.82495116 512.52145031 171.82495116 512.52145031 170.37158047 512.52178916 C154.99915927 512.52573306 139.6267856 512.54317238 124.25438274 512.56647769 C108.47024638 512.59021374 92.68613382 512.60265466 76.90197933 512.60381961 C68.04058489 512.6047354 59.17925228 512.61046297 50.31787491 512.62863922 C42.76775126 512.64407102 35.21770852 512.64914275 27.6675721 512.64090112 C23.81800407 512.63700474 19.96859879 512.63787422 16.11905098 512.65195847 C11.93685585 512.66711902 7.75502453 512.65880043 3.57281494 512.64837646 C2.36792077 512.65643287 1.1630266 512.66448927 -0.07837951 512.67278981 C-17.12285061 512.57372981 -32.23157437 506.63171339 -44.96725464 495.28088379 C-45.97852417 494.40883301 -45.97852417 494.40883301 -47.01022339 493.51916504 C-58.04423122 483.33885221 -66.47531412 467.29551641 -67.09720647 452.10707825 C-67.09953712 450.8995072 -67.10186776 449.69193614 -67.10426903 448.44777203 C-67.10692085 447.7697585 -67.10957268 447.09174498 -67.11230487 446.39318559 C-67.11997653 444.11669852 -67.12055622 441.84026559 -67.12115479 439.56376648 C-67.12517084 437.91680829 -67.1296093 436.26985108 -67.13443434 434.62289506 C-67.14639016 430.09305124 -67.15204602 425.56321806 -67.1566155 421.03336155 C-67.16257548 416.14897345 -67.17418447 411.26459804 -67.18490601 406.38021851 C-67.20942296 394.58086494 -67.22405718 382.78150718 -67.23696607 370.98213598 C-67.24067886 367.64827786 -67.24465203 364.31442016 -67.24871874 360.98056245 C-67.27395876 340.26954548 -67.29600789 319.55852784 -67.30844688 298.84749889 C-67.3113765 294.05063563 -67.31433817 289.25377239 -67.31735229 284.45690918 C-67.31809835 283.26469713 -67.3188444 282.07248508 -67.31961305 280.84414539 C-67.33225918 261.54294593 -67.3654725 242.24183873 -67.40715413 222.94068237 C-67.44961561 203.11550866 -67.47314689 183.29038212 -67.47836745 163.46516305 C-67.48177703 152.33781353 -67.4934787 141.21060814 -67.52647018 130.08330345 C-67.5545299 120.60390836 -67.5654441 111.12468695 -67.55427472 101.64525356 C-67.54910303 96.81283693 -67.55187761 91.9807837 -67.57674026 87.14842033 C-67.59936091 82.71458277 -67.59839443 78.28136693 -67.57953639 73.84751753 C-67.5767542 72.25317159 -67.5822345 70.65878232 -67.59734933 69.0645056 C-67.76824744 49.84579989 -61.99930553 32.87553261 -48.54147339 18.66369629 C-34.61064085 5.76869196 -18.80927535 -0.02700122 0 0 Z " fill="#E38895" transform="translate(66.96725463867188,-0.2808837890625)"/>
<path d="M0 0 C9.73627628 -0.13949787 19.4723118 -0.24587209 29.20938683 -0.31087303 C33.73158641 -0.3420829 38.2530984 -0.38436373 42.77490234 -0.45263672 C47.14513454 -0.5182024 51.51470868 -0.5537837 55.88539505 -0.56926346 C57.54630507 -0.5802836 59.20718223 -0.60180303 60.8678093 -0.63438034 C70.44974993 -0.81474503 78.39293353 -0.65046855 86 6 C91.91543416 13.09852099 92.28911616 20.10895865 92.22705078 28.96240234 C92.22734283 30.05567841 92.22763489 31.14895447 92.22793579 32.27536011 C92.22654556 35.87896742 92.21099852 39.48236643 92.1953125 43.0859375 C92.19158129 45.58842862 92.18873483 48.0909212 92.18673706 50.59341431 C92.17988827 56.50063139 92.16413491 62.40778195 92.14403808 68.31496489 C92.11944978 75.70345292 92.10873951 83.09195026 92.09765625 90.48046875 C92.07622121 103.65368359 92.04248102 116.82683708 92 130 C92.60459549 130.0612204 93.20919098 130.1224408 93.83210754 130.18551636 C94.63234848 130.26979889 95.43258942 130.35408142 96.25708008 130.44091797 C97.44241081 130.56368607 97.44241081 130.56368607 98.65168762 130.68893433 C121.87310226 133.76492416 143.0247808 148.91816284 157.43164062 166.77441406 C173.32805026 187.68535635 179.49795958 213.68141852 176.71582031 239.65283203 C174.98638782 251.85390873 171.14288694 262.84744741 166 274 C166.83402344 274.88300781 167.66804688 275.76601563 168.52734375 276.67578125 C174.51017262 283.04402349 180.29387745 289.4641473 185.7578125 296.2890625 C188.23907026 299.2890501 190.84874206 302.15143915 193.5 305 C197.86338266 309.69126251 201.97931176 314.52922791 205.9921875 319.52734375 C208.17986473 322.22150656 210.46081776 324.81205808 212.80859375 327.3671875 C217.24080932 333.44150261 216.77096267 340.83410488 216 348 C213.84167244 354.37459536 208.72431393 358.71108007 203 362 C197.07316152 363.97963648 189.67452763 364.13306228 183.9375 361.5625 C179.67880235 359.10422738 176.19953168 355.75973697 172.625 352.4140625 C170.05743221 350.05281712 167.4115525 347.86515825 164.6875 345.6875 C160.46602892 342.27578924 156.45911916 338.70696827 152.5 335 C147.63787045 330.44863239 142.65019447 326.13634675 137.4375 321.984375 C135.2384195 320.19409792 133.19007099 318.31545464 131.125 316.375 C128.35488967 313.72383053 128.35488967 313.72383053 125.765625 314.171875 C122.99393372 315.00181646 120.31969649 315.99087183 117.63574219 317.06982422 C93.20628846 326.85228395 66.49809921 326.76298457 42 317 C32.36996612 312.84769507 21.04091424 307.55604787 14.49087906 299.03728676 C11.60809486 295.49406834 9.36265502 293.31264758 4.83144379 292.27300644 C0.89278554 292.01828761 -3.00430557 292.0122426 -6.94628906 292.09521484 C-8.45507196 292.09743449 -9.96386383 292.09603972 -11.47264099 292.09132385 C-14.71048467 292.08863323 -17.94685059 292.11076851 -21.18442535 292.15235519 C-26.31331485 292.21752358 -31.44125493 292.22342508 -36.57049561 292.22109985 C-46.53922944 292.22455685 -56.50716585 292.28676339 -66.47562408 292.35616302 C-79.14910109 292.44221119 -91.82240697 292.50468286 -104.49619269 292.50820124 C-109.58477148 292.51161393 -114.6719417 292.54535473 -119.76017714 292.60351157 C-122.93911492 292.63400577 -126.11776219 292.63948067 -129.29683113 292.63870049 C-130.75929804 292.64346518 -132.22177715 292.65842846 -133.68401146 292.68494225 C-144.48826536 292.87326135 -153.20732238 291.15911734 -161.47084427 283.79939842 C-170.72752695 274.45037184 -171.59846318 263.95533943 -171.54518127 251.40211296 C-171.54058395 250.55656412 -171.53598663 249.71101528 -171.53125 248.83984375 C-171.53394987 247.08207485 -171.5378364 245.32430741 -171.54284668 243.56654358 C-171.54871693 239.89765079 -171.54025817 236.2291497 -171.52148438 232.56030273 C-171.49867922 227.87761019 -171.51184329 223.19583413 -171.53577423 218.51317501 C-171.55028509 214.8884043 -171.5456024 211.26384797 -171.53526306 207.63907051 C-171.53261123 205.91324312 -171.53581067 204.18739571 -171.54518127 202.46159172 C-171.61788006 185.31556894 -171.61788006 185.31556894 -167 178 C-166.54238281 177.20207031 -166.08476562 176.40414062 -165.61328125 175.58203125 C-160.06906765 168.03990284 -153.31496067 163.4957749 -144 162 C-139.11418989 161.72492577 -134.23311656 161.76029011 -129.34155273 161.79223633 C-127.86406562 161.79440053 -126.3865768 161.79558454 -124.90908813 161.79586792 C-121.74053518 161.79791511 -118.57206367 161.80558135 -115.40353203 161.8173008 C-110.38958962 161.83452371 -105.3757905 161.83119276 -100.36183167 161.82365417 C-86.108736 161.80450831 -71.8558288 161.79783874 -57.6027832 161.84545898 C-49.72079779 161.87162495 -41.83922194 161.87292057 -33.95723301 161.84631175 C-29.79122482 161.83333407 -25.62610552 161.8333154 -21.46017265 161.8641758 C-17.54366699 161.89313531 -13.62852401 161.8896424 -9.71202469 161.86156845 C-8.27815557 161.85708082 -6.84419038 161.86448623 -5.41045952 161.88489723 C2.34967039 162.17651536 2.34967039 162.17651536 9.36521339 159.43424511 C11.08554407 157.7080579 12.52195892 155.93088412 14 154 C14.79180664 153.53360107 15.58361328 153.06720215 16.39941406 152.58666992 C18.67800954 150.32788529 18.52328929 148.11203526 18.60565186 145.01887512 C18.60688049 144.22502914 18.60810913 143.43118317 18.609375 142.61328125 C18.62591125 141.79627243 18.64244751 140.97926361 18.65948486 140.13749695 C18.7080534 137.52908886 18.72935459 134.92126406 18.75 132.3125 C18.77815241 130.5435903 18.80807881 128.77470789 18.83984375 127.00585938 C18.91381428 122.67062094 18.96333439 118.33570797 19 114 C19.88550537 113.73952881 20.77101074 113.47905762 21.68334961 113.21069336 C22.84874268 112.86143799 24.01413574 112.51218262 25.21484375 112.15234375 C26.94528931 111.63788696 26.94528931 111.63788696 28.71069336 111.11303711 C36.23418767 108.56723361 41.28409353 104.75283631 45.25 97.8125 C46.71968547 92.30117949 47.12247157 86.4355674 44.4375 81.25 C40.38655719 75.20211355 34.85796861 71.24442609 28 69 C24.87237733 68.41557037 24.87237733 68.41557037 22 69 C21.360625 69.680625 20.72125 70.36125 20.0625 71.0625 C18 73 18 73 14.4375 73 C11 72 11 72 9.1875 70.3125 C7.8050077 67.62027814 6.93712924 64.873863 6 62 C4.17796419 59.77033253 4.17796419 59.77033253 1.5625 59.6875 C-0.96582165 59.81099153 -0.96582165 59.81099153 -2.6875 61.0625 C-4.23777869 63.12322494 -4.23777869 63.12322494 -4.9375 66.5 C-6 70 -6 70 -7.8125 71.9375 C-10.57641051 73.27997082 -11.96449173 73.5922943 -15 73 C-18.40942379 70.49975589 -19.80525923 68.99317795 -20.625 64.8125 C-19.6103241 58.62297701 -17.59737721 53.22120534 -12.734375 49.0625 C-6.33383896 44.76794679 -1.77858928 43.00606915 6 44 C10.46973927 45.66373628 14.60849147 47.60849147 18 51 C18.12439375 46.16204012 18.2147079 41.32502819 18.2746582 36.48583984 C18.29967054 34.84277106 18.33369226 33.19981206 18.37719727 31.55712891 C18.83136229 18.9140558 18.83136229 18.9140558 13 8 C13 7.34 13 6.68 13 6 C10.14589666 4.49439503 7.31875358 3.36783204 4.25 2.375 C3.05117188 1.98441406 3.05117188 1.98441406 1.828125 1.5859375 C1.22484375 1.39257812 0.6215625 1.19921875 0 1 C0 0.67 0 0.34 0 0 Z " fill="#D8A783" transform="translate(296,0)"/>
<path d="M0 0 C5.445 3.465 5.445 3.465 11 7 C27.85930756 16.71364078 44.08978447 20.04511706 63.35546875 20.01171875 C64.2837146 20.0108728 65.21196045 20.01002686 66.16833496 20.00915527 C68.44555901 20.00695789 70.7227783 20.00388146 73 20 C73.06963455 29.39708544 73.12287941 38.79408151 73.15543652 48.19136906 C73.17106549 52.55532535 73.19225292 56.91910458 73.22631836 61.28295898 C73.25901093 65.49751453 73.27687383 69.71190019 73.28463173 73.9265728 C73.29015752 75.53127146 73.30094803 77.13596126 73.31719017 78.74058723 C73.33909662 80.9953097 73.3419615 83.24933794 73.34057617 85.50415039 C73.35056892 87.42608971 73.35056892 87.42608971 73.36076355 89.38685608 C72.69753793 96.02923889 70.17791272 100.66500331 65 105 C59 108 59 108 33 108 C33 129.12 33 150.24 33 172 C40.26 172 47.52 172 55 172 C62.37110521 173.8427763 65.3217179 174.61626266 70 180 C72.78594123 184.85292989 73.94296265 189.44817496 73 195 C71.05870136 200.92260601 68.00714966 204.40791437 63 208 C60.44885171 209.27557415 58.66300128 209.12772434 55.80548286 209.13142776 C54.14380552 209.13718948 54.14380552 209.13718948 52.44855893 209.1430676 C51.22135754 209.14220112 49.99415615 209.14133463 48.72976685 209.14044189 C47.43387158 209.14341302 46.13797632 209.14638414 44.8028115 209.1494453 C41.19339158 209.15753441 37.58399152 209.15930594 33.9745636 209.16004276 C30.08612024 209.16189014 26.19768726 209.16943614 22.30924988 209.17617798 C13.79850485 209.18977801 5.28776453 209.19578935 -3.22298956 209.20018864 C-8.53817819 209.2029497 -13.853365 209.20718695 -19.1685524 209.21169281 C-33.88564121 209.22389042 -48.60272855 209.23418696 -63.31982231 209.2375679 C-64.73369081 209.23789725 -64.73369081 209.23789725 -66.17612232 209.23823325 C-67.12096901 209.23845153 -68.06581571 209.23866981 -69.03929412 209.2388947 C-70.95393046 209.23933817 -72.86856679 209.23978473 -74.78320312 209.24023438 C-76.2077942 209.24056652 -76.2077942 209.24056652 -77.66116489 209.24090537 C-93.03358609 209.24484927 -108.40595976 209.2622886 -123.77836262 209.2855939 C-139.56249898 209.30932996 -155.34661154 209.32177087 -171.13076603 209.32293582 C-179.99216047 209.32385161 -188.85349308 209.32957918 -197.71487045 209.34775543 C-205.2649941 209.36318724 -212.81503684 209.36825896 -220.36517327 209.36001733 C-224.2147413 209.35612095 -228.06414657 209.35699043 -231.91369438 209.37107468 C-236.09588951 209.38623523 -240.27772083 209.37791664 -244.45993042 209.36749268 C-245.66482459 209.37554908 -246.86971876 209.38360548 -248.11112487 209.39190602 C-265.15559597 209.29284602 -280.26431973 203.3508296 -293 192 C-294.01126953 191.12794922 -294.01126953 191.12794922 -295.04296875 190.23828125 C-305.71478264 180.39213962 -314.19338499 164.76151543 -315.12280273 150.05712891 C-315.84068804 130.30982794 -312.41403048 112.85341555 -300 97 C-299.46632813 96.30132812 -298.93265625 95.60265625 -298.3828125 94.8828125 C-286.7250298 80.5476443 -269.0207923 73.09560343 -251 71 C-247.54251852 70.8634949 -244.0890961 70.8692064 -240.62928772 70.87974548 C-239.5983351 70.87889106 -238.56738249 70.87803663 -237.50518888 70.87715632 C-234.05821034 70.87551207 -230.61128069 70.88100563 -227.16430664 70.88647461 C-224.69039918 70.88675673 -222.21649164 70.88659825 -219.74258423 70.8860321 C-214.42028744 70.88580455 -209.09800581 70.88863699 -203.77571297 70.89426994 C-196.0806427 70.90240886 -188.38557835 70.90500262 -180.69050425 70.90625793 C-168.20471756 70.90844469 -155.71893743 70.91509459 -143.2331543 70.92456055 C-131.10685255 70.93374439 -118.98055258 70.94082047 -106.85424805 70.94506836 C-106.10635122 70.94533108 -105.3584544 70.94559381 -104.58789403 70.94586449 C-100.8357866 70.94716956 -97.08367915 70.94843326 -93.3315717 70.94967639 C-62.221042 70.9600373 -31.11052447 70.97846931 0 71 C0 47.57 0 24.14 0 0 Z " fill="#E05C72" transform="translate(315,303)"/>
<path d="M0 0 C0 123.42 0 246.84 0 374 C-7.26 374.66 -14.52 375.32 -22 376 C-41.62185592 380.50337677 -57.17801703 389.73595869 -68.1328125 406.75 C-73.49629223 416.08559651 -76.07957007 425.445442 -78 436 C-78.33 436 -78.66 436 -79 436 C-79.11452828 387.60783775 -79.20259097 339.21568923 -79.25532665 290.82341802 C-79.26157993 285.10591127 -79.26805156 279.38840479 -79.2746582 273.67089844 C-79.27596976 272.53268056 -79.27728131 271.39446269 -79.2786326 270.22175336 C-79.30036922 251.80938695 -79.33978114 233.39709887 -79.38576398 214.98477888 C-79.43257714 196.08185907 -79.46030567 177.17898019 -79.47044247 158.27600479 C-79.47729154 146.61864168 -79.49889741 134.96149999 -79.53958233 123.30420506 C-79.56608069 115.30249955 -79.57398496 107.30090795 -79.56750689 99.29916179 C-79.56431503 94.68752111 -79.56909125 90.07626643 -79.59602737 85.46469498 C-79.6205663 81.23235388 -79.6214557 77.00065411 -79.60449447 72.76828194 C-79.60240184 71.24713292 -79.60856886 69.72594195 -79.62441591 68.20487404 C-79.81049947 49.22081638 -73.81289933 32.36321882 -60.57421875 18.3828125 C-42.48111505 1.63502304 -24.93904988 0 0 0 Z " fill="#E06E7E" transform="translate(79,0)"/>
<path d="M0 0 C1.47899366 0.00056488 2.95798787 0.00024606 4.4369812 -0.00088501 C8.43229755 -0.00145654 12.4274927 0.0102653 16.42278099 0.02426291 C20.60545607 0.03680367 24.78813422 0.0379434 28.9708252 0.04031372 C36.88251253 0.04651868 44.79414429 0.06291613 52.70580721 0.0830127 C61.71669617 0.10540239 70.72758786 0.11637284 79.73849773 0.12640357 C98.26645182 0.14728327 116.79435424 0.18244004 135.32226562 0.22705078 C133.85585046 3.24803919 132.21672036 5.79070634 130.19726562 8.47705078 C115.26336575 29.72674581 109.48841921 54.7881933 112.78320312 80.54345703 C115.85582238 97.5874568 123.62563374 114.23101327 134.81835938 127.39892578 C136.32226562 129.22705078 136.32226562 129.22705078 136.32226562 130.22705078 C116.45050526 130.36748527 96.5788462 130.47315095 76.70669174 130.53792381 C67.47877113 130.56880431 58.25115964 130.61087306 49.0234375 130.6796875 C40.97642368 130.73966814 32.92963383 130.7782421 24.88240266 130.79158175 C20.62505235 130.79937414 16.36834255 130.81756483 12.11119843 130.86143112 C8.09568958 130.90246833 4.08107874 130.91465804 0.0653801 130.90569687 C-1.40028151 130.90733376 -2.86597635 130.91908335 -4.33145523 130.94228363 C-15.13867568 131.10483458 -23.882463 129.38844296 -32.14844131 122.02658653 C-41.40520028 112.67748915 -42.27619805 102.18250795 -42.22291565 89.62916374 C-42.21831833 88.7836149 -42.21372101 87.93806606 -42.20898438 87.06689453 C-42.21168425 85.30912563 -42.21557077 83.55135819 -42.22058105 81.79359436 C-42.2264513 78.12470157 -42.21799254 74.45620048 -42.19921875 70.78735352 C-42.17641359 66.10466097 -42.18957767 61.42288491 -42.21350861 56.74022579 C-42.22801946 53.11545508 -42.22333677 49.49089875 -42.21299744 45.86612129 C-42.21034561 44.1402939 -42.21354504 42.41444649 -42.22291565 40.6886425 C-42.29561444 23.54261972 -42.29561444 23.54261972 -37.67773438 16.22705078 C-36.99130859 15.03015625 -36.99130859 15.03015625 -36.29101562 13.80908203 C-26.81279234 0.91528279 -15.01990464 -0.08056963 0 0 Z " fill="#FEFEFE" transform="translate(166.677734375,161.77294921875)"/>
<path d="M0 0 C1.1837529 -0.0034177 2.36750581 -0.0068354 3.58713001 -0.01035666 C6.85068934 -0.0157815 10.11360401 -0.00337574 13.37708724 0.01675558 C16.90456836 0.03410215 20.43202189 0.02817881 23.95953369 0.02514648 C30.06379802 0.02305365 36.16789073 0.0355556 42.27211189 0.05809784 C51.09765547 0.09066834 59.92311644 0.10103 68.74871361 0.10604981 C83.06917128 0.11479455 97.38953759 0.14138783 111.70994568 0.17926025 C125.61716761 0.2160016 139.52436467 0.24430296 153.43162537 0.2612915 C154.28951558 0.2623424 155.1474058 0.26339329 156.03129268 0.26447603 C160.33526934 0.26969635 164.63924617 0.27475114 168.94322312 0.27972364 C204.62360178 0.32116015 240.30381135 0.39488417 275.9841156 0.48101807 C275.9841156 21.93101807 275.9841156 43.38101807 275.9841156 65.48101807 C239.71961536 65.5692314 203.45521646 65.6430759 167.19063959 65.68527938 C162.9074426 65.6902821 158.62424584 65.6954594 154.34104919 65.70074463 C153.06201011 65.70231849 153.06201011 65.70231849 151.75713186 65.70392415 C137.95781807 65.72132042 124.15857107 65.75285382 110.35929687 65.78962925 C96.19567732 65.82706033 82.03209271 65.8492585 67.86842573 65.85737205 C59.13152958 65.86285533 50.39482221 65.88016197 41.65798418 65.91268393 C35.6634916 65.93385859 29.66909634 65.94021145 23.67456909 65.93502358 C20.21809601 65.93246636 16.76195239 65.93633394 13.30553818 65.95783997 C9.55153946 65.97777835 5.79834459 65.972942 2.04432678 65.96203613 C0.96064398 65.9736875 -0.12303881 65.98533886 -1.23956048 65.9973433 C-12.27945346 65.91081785 -19.93163333 62.44212136 -27.8830719 54.85211182 C-30.76191088 51.6516443 -32.57946776 48.51703655 -34.0158844 44.48101807 C-34.36522034 43.53613525 -34.71455627 42.59125244 -35.07447815 41.61773682 C-37.78918095 32.57248225 -36.42830036 24.53505527 -32.06446838 16.3135376 C-24.80786289 3.73256939 -13.93163285 -0.14832409 0 0 Z " fill="#FEF3E4" transform="translate(72.01588439941406,410.51898193359375)"/>
<path d="M0 0 C12.93490393 9.70989419 21.52192176 22.92086636 24 39 C25.66859941 56.63947953 20.63429062 71.89472634 9.375 85.625 C-1.5061609 97.24525862 -15.30326615 102.98047614 -31.00292969 103.53857422 C-48.16912818 103.6880843 -61.13411662 98.17208772 -73.67578125 86.41796875 C-80.03142514 79.80596275 -84.05997402 72.63893891 -87 64 C-87.35707031 63.11957031 -87.71414063 62.23914063 -88.08203125 61.33203125 C-92.09525415 46.764886 -88.86212538 30.9086098 -81.9375 17.875 C-73.23066349 3.85143567 -60.57189821 -5.26971567 -44.64453125 -9.34375 C-28.39347811 -12.26998465 -13.95534233 -8.44837469 0 0 Z " fill="#C2E9FA" transform="translate(408,180)"/>
<path d="M0 0 C9.73627628 -0.13949787 19.4723118 -0.24587209 29.20938683 -0.31087303 C33.73158641 -0.3420829 38.2530984 -0.38436373 42.77490234 -0.45263672 C47.14513454 -0.5182024 51.51470868 -0.5537837 55.88539505 -0.56926346 C57.54630507 -0.5802836 59.20718223 -0.60180303 60.8678093 -0.63438034 C70.44974993 -0.81474503 78.39293353 -0.65046855 86 6 C91.91543416 13.09852099 92.28911616 20.10895865 92.22705078 28.96240234 C92.22734283 30.05567841 92.22763489 31.14895447 92.22793579 32.27536011 C92.22654556 35.87896742 92.21099852 39.48236643 92.1953125 43.0859375 C92.19158129 45.58842862 92.18873483 48.0909212 92.18673706 50.59341431 C92.17988827 56.50063139 92.16413491 62.40778195 92.14403808 68.31496489 C92.11944978 75.70345292 92.10873951 83.09195026 92.09765625 90.48046875 C92.07622121 103.65368359 92.04248102 116.82683708 92 130 C91.20449234 130.02014664 90.40898468 130.04029327 89.58937073 130.06105042 C85.93559764 130.15844964 82.28231129 130.2685911 78.62890625 130.37890625 C76.75217224 130.42609802 76.75217224 130.42609802 74.83752441 130.47424316 C56.16327619 131.0640206 42.02541432 136.74044426 26 146 C22.535 147.98 22.535 147.98 19 150 C19 138.12 19 126.24 19 114 C23.29 112.68 27.58 111.36 32 110 C38.07117951 106.75649314 41.79720156 103.85489728 45.25 97.8125 C46.71968547 92.30117949 47.12247157 86.4355674 44.4375 81.25 C40.38655719 75.20211355 34.85796861 71.24442609 28 69 C24.87237733 68.41557037 24.87237733 68.41557037 22 69 C21.360625 69.680625 20.72125 70.36125 20.0625 71.0625 C18 73 18 73 14.4375 73 C11 72 11 72 9.1875 70.3125 C7.8050077 67.62027814 6.93712924 64.873863 6 62 C4.17796419 59.77033253 4.17796419 59.77033253 1.5625 59.6875 C-0.96582165 59.81099153 -0.96582165 59.81099153 -2.6875 61.0625 C-4.23777869 63.12322494 -4.23777869 63.12322494 -4.9375 66.5 C-6 70 -6 70 -7.8125 71.9375 C-10.57641051 73.27997082 -11.96449173 73.5922943 -15 73 C-18.40942379 70.49975589 -19.80525923 68.99317795 -20.625 64.8125 C-19.6103241 58.62297701 -17.59737721 53.22120534 -12.734375 49.0625 C-6.33383896 44.76794679 -1.77858928 43.00606915 6 44 C10.46973927 45.66373628 14.60849147 47.60849147 18 51 C18.12439375 46.16204012 18.2147079 41.32502819 18.2746582 36.48583984 C18.29967054 34.84277106 18.33369226 33.19981206 18.37719727 31.55712891 C18.83136229 18.9140558 18.83136229 18.9140558 13 8 C13 7.34 13 6.68 13 6 C10.14589666 4.49439503 7.31875358 3.36783204 4.25 2.375 C3.45078125 2.11460938 2.6515625 1.85421875 1.828125 1.5859375 C1.22484375 1.39257812 0.6215625 1.19921875 0 1 C0 0.67 0 0.34 0 0 Z " fill="#E06E7E" transform="translate(296,0)"/>
<path d="M0 0 C3.9683873 1.56330409 6.4157171 4.32120171 9.1875 7.4375 C9.91259766 8.23994141 9.91259766 8.23994141 10.65234375 9.05859375 C14.47864311 13.3279383 18.09383728 17.75234062 21.6875 22.21875 C24.19971626 25.24019928 26.82408984 28.12433294 29.5 31 C33.86332839 35.69131827 37.97930685 40.52922179 41.9921875 45.52734375 C44.17986473 48.22150656 46.46081776 50.81205808 48.80859375 53.3671875 C53.24080932 59.44150261 52.77096267 66.83410488 52 74 C49.84167244 80.37459536 44.72431393 84.71108007 39 88 C33.07316152 89.97963648 25.67452763 90.13306228 19.9375 87.5625 C15.67880235 85.10422738 12.19953168 81.75973697 8.625 78.4140625 C6.05743221 76.05281712 3.4115525 73.86515825 0.6875 71.6875 C-3.53396863 68.27579122 -7.54090079 64.70698676 -11.5 61 C-16.33764326 56.47114248 -21.31586685 52.20091383 -26.4765625 48.0390625 C-28.90647405 46.0755736 -31.31025976 44.0894101 -33.6875 42.0625 C-34.33074219 41.51722656 -34.97398437 40.97195313 -35.63671875 40.41015625 C-37 39 -37 39 -37 37 C-35.47675109 35.98043059 -33.90257299 35.03685356 -32.3125 34.125 C-18.69575961 25.68472664 -8.12581162 13.7123071 0 0 Z " fill="#D0876E" transform="translate(460,274)"/>
<path d="M0 0 C3.63 2.31 7.26 4.62 11 7 C31.55238576 18.8414408 49.20540702 20 73 20 C73 36.83 73 53.66 73 71 C48.91 71 24.82 71 0 71 C0 47.57 0 24.14 0 0 Z " fill="#E06E7E" transform="translate(315,303)"/>
<path d="M0 0 C17.16 0 34.32 0 52 0 C52 21.45 52 42.9 52 65 C34.84 65 17.68 65 0 65 C0 43.55 0 22.1 0 0 Z " fill="#F8DDBB" transform="translate(296,411)"/>
<path d="M0 0 C24.09 0 48.18 0 73 0 C73 25.43243243 73 25.43243243 67.6875 31.75 C61.38509333 37.02643349 56.34601325 37.41593924 48.4375 37.25 C46.82029053 37.23356445 46.82029053 37.23356445 45.17041016 37.21679688 C41.11307507 37.16622448 37.05672244 37.08474543 33 37 C31.12614159 36.96277632 29.25228076 36.9256744 27.37841797 36.88867188 C14.25145802 36.62587094 1.12557962 36.32404583 -12 36 C-11.39414062 35.55527344 -10.78828125 35.11054688 -10.1640625 34.65234375 C-6.06186803 31.52016277 -3.31790754 28.63581509 -1 24 C-0.67 16.08 -0.34 8.16 0 0 Z " fill="#DB4D6C" transform="translate(315,374)"/>
<path d="M0 0 C2.98116744 -0.0464456 5.96206836 -0.07710584 8.94348145 -0.10253906 C9.82956085 -0.11740356 10.71564026 -0.13226807 11.62857056 -0.14758301 C19.62030197 -0.18405609 26.41317991 0.69785227 32.41223145 6.35449219 C36.12374118 10.62567402 37.4870974 15.3836205 37.2364502 21.00683594 C36.07382378 27.85196226 32.37582046 32.11736583 26.88879395 36.05371094 C23.92901811 37.53359886 20.92901386 37.18381493 17.68518066 37.16723633 C16.94361725 37.16738235 16.20205383 37.16752838 15.4380188 37.16767883 C12.98147682 37.16698093 10.52501022 37.15919427 8.06848145 37.15136719 C6.36740154 37.14950257 4.66632111 37.14807887 2.96524048 37.14707947 C-1.51627073 37.14325772 -5.99774962 37.13343034 -10.47924805 37.12237549 C-15.05057335 37.11215402 -19.62190387 37.10758027 -24.1932373 37.10253906 C-33.16590776 37.09180778 -42.13855423 37.07473545 -51.11120605 37.05371094 C-50.21401855 36.61091797 -50.21401855 36.61091797 -49.29870605 36.15917969 C-43.61080018 33.28475582 -39.20972034 30.30182974 -37.11120605 24.05371094 C-36.27325242 18.11271385 -36.60278024 13.0824546 -40.11120605 8.05371094 C-43.09032616 5.05790108 -46.30066499 2.8643352 -50.11120605 1.05371094 C-43.82058489 0.90808395 -37.5298981 0.76585919 -31.23913574 0.62646484 C-29.1098841 0.57884273 -26.98065119 0.53037329 -24.85144043 0.48095703 C-16.56802614 0.28913884 -8.2843572 0.14301868 0 0 Z " fill="#DB4D6B" transform="translate(351.1112060546875,474.9462890625)"/>
<path d="M0 0 C0.639375 0.680625 1.27875 1.36125 1.9375 2.0625 C2.618125 2.701875 3.29875 3.34125 4 4 C9.05692899 3.85718492 9.05692899 3.85718492 13 1 C19.28498217 1.57612337 24.399605 5.3035165 28.69140625 9.75390625 C32.82570495 15.39586943 32.83406812 21.23158513 32 28 C30.04327562 34.7833112 23.95173591 39.42538418 18.1953125 43.17578125 C10.62929631 46.72340217 -1.02364959 46.14565662 -8.9375 44 C-15.39516369 41.37231343 -20.46895565 36.5053453 -24.0625 30.625 C-25.66959183 24.41091159 -25.94191535 19.31554191 -23.5 13.3125 C-18.40911845 5.70316115 -9.62319528 -1.49694149 0 0 Z " fill="#FEFDFE" transform="translate(154,68)"/>
<path d="M0 0 C5.07625238 -1.01525048 9.05290759 0.97545726 13.45703125 3.30078125 C18.46330495 6.64598718 23.07550115 11.22650344 25 17 C25.74223659 23.85047874 25.11118822 29.35623866 21 35 C15.63488349 41.00448273 9.21192337 44.61631404 1.18359375 45.34765625 C-11.25102625 45.79830297 -18.64787263 43.80897986 -27.93359375 35.3515625 C-32.26639237 30.42085405 -32.57034708 25.43125112 -32.4296875 19.0703125 C-31.5554233 12.82329737 -28.42249756 8.87400755 -23.515625 5.078125 C-17.02293844 0.89053426 -17.02293844 0.89053426 -13.8828125 1.2265625 C-12 2 -12 2 -9 4 C-5.42823885 3.91832511 -5.42823885 3.91832511 -2 3 C-1.34 2.01 -0.68 1.02 0 0 Z " fill="#FEFDFE" transform="translate(318,68)"/>
<path d="M0 0 C7.38002688 3.25392094 10.80226657 8.14750189 14.328125 15.19921875 C14.60597812 18.88077265 14.55082758 21.59661178 13.265625 25.07421875 C11.328125 27.19921875 11.328125 27.19921875 7.953125 28.32421875 C4.328125 28.19921875 4.328125 28.19921875 1.515625 26.13671875 C-0.70550408 23.1540597 -1.64867996 20.74104772 -2.671875 17.19921875 C-4.49391081 14.96955128 -4.49391081 14.96955128 -7.109375 14.88671875 C-9.63769665 15.01021028 -9.63769665 15.01021028 -11.359375 16.26171875 C-12.90965369 18.32244369 -12.90965369 18.32244369 -13.609375 21.69921875 C-14.671875 25.19921875 -14.671875 25.19921875 -16.484375 27.13671875 C-19.24828551 28.47918957 -20.63636673 28.79151305 -23.671875 28.19921875 C-27.08129879 25.69897464 -28.47713423 24.1923967 -29.296875 20.01171875 C-28.2821991 13.82219576 -26.26925221 8.42042409 -21.40625 4.26171875 C-14.31241976 -0.49801251 -8.51934148 -2.55331141 0 0 Z " fill="#535D70" transform="translate(304.671875,44.80078125)"/>
<path d="M0 0 C6.09300852 3.34875587 9.57769094 8.54557282 11.75 15.0625 C12.23611608 19.43754473 12.21337407 21.38850135 9.6875 25.0625 C6.75 27.0625 6.75 27.0625 3.125 27.0625 C-1.60410334 25.66128419 -1.60410334 25.66128419 -3.25 23.0625 C-3.94356423 20.73701993 -4.61149212 18.40369555 -5.25 16.0625 C-7.07203581 13.83283253 -7.07203581 13.83283253 -9.6875 13.75 C-12.21582165 13.87349153 -12.21582165 13.87349153 -13.9375 15.125 C-15.48777869 17.18572494 -15.48777869 17.18572494 -16.1875 20.5625 C-17.25 24.0625 -17.25 24.0625 -18.9375 26.0625 C-22.42445294 27.57037154 -24.64891314 27.11008891 -28.25 26.0625 C-30.50333976 23.80916024 -31.15831099 22.21643979 -31.41015625 19.046875 C-31.12817191 12.59507336 -28.58685746 7.77291031 -24.25 3.0625 C-16.7655675 -3.06502203 -8.78978391 -3.78211092 0 0 Z " fill="#525D70" transform="translate(184.25,45.9375)"/>
<path d="M0 0 C1.58984375 1.12890625 1.58984375 1.12890625 3.25 2.5 C6.95224502 5.36678265 9.96267585 5.71438336 14.58203125 5.51171875 C17.89714801 4.81013507 19.78283169 3.19245961 22.33984375 1.05859375 C24 0 24 0 27.75 0 C32.51456311 1.46601942 32.51456311 1.46601942 34 4 C34.63175531 7.08858153 34.55025358 9.03705624 32.96875 11.8046875 C29.21428321 16.66463618 24.97495042 19.55923181 19 21 C10.99037101 21.92184655 3.67987678 22.09944472 -3.19140625 17.48828125 C-6.97027094 14.37867553 -9.6560437 11.91086836 -10.5625 6.875 C-9.38766372 0.87028125 -5.86769948 -1.03547638 0 0 Z " fill="#515C6F" transform="translate(224,74)"/>
</svg>
