<?xml version="1.0" encoding="UTF-8"?>
<svg version="1.1" xmlns="http://www.w3.org/2000/svg" width="512" height="512">
<path d="M0 0 C2.375 0.0625 2.375 0.0625 5 1 C7.95373762 4.41469051 10.5359266 8.09865302 13.1875 11.75 C19.51868025 20.19157366 26.54314553 26.92759324 35.03125 33.17578125 C37.15134448 35.14023387 37.65098494 36.17671744 38 39 C37.34515625 39.51046875 36.6903125 40.0209375 36.015625 40.546875 C30.53670937 44.91143491 25.38526196 49.42117832 20.4375 54.375 C19.92541992 54.88643555 19.41333984 55.39787109 18.88574219 55.92480469 C16.65187926 58.19171737 14.77184878 60.34222682 13 63 C13.59611084 63.11480713 14.19222168 63.22961426 14.80639648 63.34790039 C40.37593234 68.33036968 67.35839866 74.03938777 90.33203125 86.859375 C94.38504891 88.5921439 97.02428761 87.78450885 101.03759766 86.19091797 C103.47790703 85.13845228 105.89431412 84.03980436 108.3125 82.9375 C130.60376645 73.11790629 154.10142518 66.7291712 178.1875 63.25 C179.07091064 63.12189941 179.95432129 62.99379883 180.86450195 62.86181641 C185.28486289 62.2566806 189.47022391 61.99065784 193.9375 62.0625 C201.81239744 61.47407364 207.63866463 54.19857174 213 49 C214.30904297 47.78957031 214.30904297 47.78957031 215.64453125 46.5546875 C220.9175153 41.54220862 224.98682709 36.04609251 229 30 C232.27710843 25.18072289 232.27710843 25.18072289 235.5 24.375 C240.34275642 25.58568911 242.7843894 31.11414512 245.5 35.0625 C252.54121937 44.778596 261.26020603 53.01489523 271 60 C270.25 64.75 270.25 64.75 268 67 C271.92128872 68.47809109 275.84242482 69.95030689 279.7890625 71.359375 C309.1714618 81.94052537 309.1714618 81.94052537 315.375 92.6875 C317.59477292 97.57289767 317.80513166 102.69958107 318 108 C318.74765625 108.27714844 319.4953125 108.55429688 320.265625 108.83984375 C333.14688679 114.30517911 342.89083601 126.98391278 348.0625 139.58984375 C348.79945255 141.71921144 349.45463665 143.8143515 350 146 C350.17257702 146.67928023 350.34515404 147.35856047 350.52296066 148.05842495 C351.17596188 152.08503647 351.14456174 156.02747403 351.14044189 160.10035706 C351.14489858 161.47838931 351.14489858 161.47838931 351.1494453 162.88426059 C351.15811967 165.96394663 351.1596395 169.04359373 351.16113281 172.12329102 C351.16576196 174.33113182 351.17078675 176.53897183 351.17617798 178.74681091 C351.18929658 184.7471289 351.19574615 190.74743569 351.20018864 196.74776578 C351.20312085 200.49859788 351.20722599 204.24942693 351.21169281 208.00025749 C351.22380122 218.39654796 351.23418285 228.79283628 351.2375679 239.18913364 C351.23778747 239.85411944 351.23800703 240.51910523 351.23823325 241.20424211 C351.23845153 241.87077434 351.23866981 242.53730657 351.2388947 243.22403675 C351.23933816 244.57456943 351.23978472 245.9251021 351.24023438 247.27563477 C351.2404558 247.94553847 351.24067723 248.61544218 351.24090537 249.30564599 C351.24484908 260.14808386 351.26229057 270.99045434 351.2855939 281.8328662 C351.30935654 292.97952365 351.32151449 304.12615661 351.32293582 315.27284187 C351.32398239 321.52519647 351.32985854 327.77745605 351.34775543 334.02978706 C351.36427549 339.91572457 351.36637245 345.80149603 351.35761642 351.6874485 C351.3568481 353.84163102 351.36116161 355.99582261 351.37107468 358.14998245 C351.4581415 378.25782173 348.80389079 394.60155706 334.25 409.4375 C321.83769103 421.45800629 307.24807352 426.69508893 290.13793945 426.76074219 C279.51749762 426.39381371 269.75623124 423.10354964 259.6796875 419.9765625 C251.24346146 417.38836577 242.76045364 415.93385052 234 415 C233.15026611 414.9086377 232.30053223 414.81727539 231.42504883 414.72314453 C188.29434373 410.43187459 147.12670133 421.39357357 108.11865234 439.07958984 C101.08648759 442.13458652 91.8624829 442.14282906 84.390625 440.38671875 C81.86283118 439.36932656 79.44763243 438.19870371 77 437 C29.68439832 415.99939476 -24.58291468 405.08237339 -75.02880859 421.66699219 C-94.17137018 427.93278386 -112.74877911 428.62561045 -131.078125 419.4609375 C-145.54015244 410.93722859 -155.3703724 397.44899293 -160.03741741 381.44183826 C-161.18092935 376.77676953 -161.28200539 372.31652401 -161.26069641 367.53215027 C-161.26452196 366.61019326 -161.26834751 365.68823625 -161.27228898 364.73834115 C-161.28256338 361.66558975 -161.27863739 358.59302716 -161.2746582 355.52026367 C-161.27900778 353.31035693 -161.28419175 351.1004517 -161.29014587 348.89054871 C-161.30352143 342.89872238 -161.30411608 336.90695919 -161.30158257 330.91512084 C-161.30051177 325.9078147 -161.30539911 320.90052127 -161.310188 315.89321786 C-161.32191218 303.40128511 -161.32106098 290.90938295 -161.31463119 278.41745005 C-161.30946465 267.58745558 -161.32071249 256.75755114 -161.33972941 245.92757448 C-161.35913763 234.7887314 -161.36706754 223.64992107 -161.36360615 212.51105863 C-161.3617956 206.26493614 -161.36440676 200.01889609 -161.37832069 193.77278709 C-161.3909209 187.89665182 -161.38893404 182.02069628 -161.37590981 176.14456367 C-161.37354917 173.9931876 -161.37626023 171.84179878 -161.38453293 169.69043732 C-161.45874778 148.88311894 -161.45874778 148.88311894 -158 140 C-157.5978125 138.91847656 -157.195625 137.83695313 -156.78125 136.72265625 C-151.42527662 125.6024798 -142.60022837 115.48608033 -132 109 C-129.74609375 108.32421875 -129.74609375 108.32421875 -128 108 C-127.96132812 106.948125 -127.96132812 106.948125 -127.921875 105.875 C-127.42222518 97.51722117 -125.85166795 91.54473934 -119.875 85.5 C-91.85764184 62.7229255 -44.99892284 60.7108473 -11 60 C-13.32462757 57.61634868 -15.66126251 55.24480231 -18 52.875 C-18.64839844 52.20984375 -19.29679688 51.5446875 -19.96484375 50.859375 C-24.34777704 46.43304633 -28.90919701 42.58962538 -34 39 C-33.17686555 34.89719759 -31.62832475 33.43014784 -28.4375 30.6875 C-27.53 29.89472656 -26.6225 29.10195312 -25.6875 28.28515625 C-24.09201253 26.92852809 -22.49018221 25.57921289 -20.875 24.24609375 C-13.32501943 17.92907372 -7.29843486 10.26555838 -2 2 C-1.34 1.34 -0.68 0.68 0 0 Z " fill="#F5F5F5" transform="translate(161,60)"/>
<path d="M0 0 C2.375 0.0625 2.375 0.0625 5 1 C7.95373762 4.41469051 10.5359266 8.09865302 13.1875 11.75 C19.51868025 20.19157366 26.54314553 26.92759324 35.03125 33.17578125 C37.15134448 35.14023387 37.65098494 36.17671744 38 39 C37.34515625 39.51046875 36.6903125 40.0209375 36.015625 40.546875 C30.53670937 44.91143491 25.38526196 49.42117832 20.4375 54.375 C19.92541992 54.88643555 19.41333984 55.39787109 18.88574219 55.92480469 C16.65187926 58.19171737 14.77184878 60.34222682 13 63 C13.59611084 63.11480713 14.19222168 63.22961426 14.80639648 63.34790039 C42.76087244 68.79509813 69.43441905 76.21720953 95 89 C95 193.94 95 298.88 95 407 C88.28242761 404.7608092 88.28242761 404.7608092 84.9609375 403.30078125 C62.51163643 393.56216266 40.35253458 387.23256335 16.3125 382.75 C15.44061035 382.58669189 14.5687207 382.42338379 13.67041016 382.25512695 C2.05311013 380.17324113 -9.41485454 379.81354445 -21.1862793 379.81469727 C-23.66537893 379.81251943 -26.14402598 379.79432571 -28.62304688 379.77539062 C-44.08670207 379.71751723 -58.48197364 381.52517123 -73.5 385.4375 C-74.69625 385.73720703 -75.8925 386.03691406 -77.125 386.34570312 C-81.99358904 387.58708562 -86.76951419 388.82443996 -91.4375 390.6953125 C-97.50497608 392.91739256 -104.17434592 393.15702709 -110.40234375 391.2734375 C-112.413463 390.32384952 -114.1751854 389.26816244 -116 388 C-117.051875 387.29875 -118.10375 386.5975 -119.1875 385.875 C-124.4000125 381.20371801 -127.20480579 374.45873584 -127.63923645 367.5651474 C-127.67109853 365.56918725 -127.6763316 363.57268093 -127.65942383 361.57653809 C-127.6698962 360.46840681 -127.68036858 359.36027553 -127.69115829 358.21856451 C-127.71999095 354.52759021 -127.7135374 350.83755257 -127.70703125 347.14648438 C-127.72040298 344.49128181 -127.73572113 341.8361552 -127.75340271 339.1809845 C-127.79180737 332.73129032 -127.80376512 326.2818093 -127.80647987 319.83201182 C-127.81055482 312.31270344 -127.8402578 304.79356025 -127.87074542 297.27432054 C-127.92421561 283.85330251 -127.95335546 270.43234076 -127.96923828 257.01123047 C-127.98464348 244.00363293 -128.01899494 230.99626166 -128.07373047 217.98876953 C-128.13337661 203.80656992 -128.18361822 189.62440159 -128.21658421 175.44211245 C-128.21833017 174.69133076 -128.22007614 173.94054907 -128.22187501 173.16701642 C-128.22537913 171.65934207 -128.22886358 170.15166767 -128.23232812 168.64399323 C-128.24489153 163.409219 -128.26375975 158.17448921 -128.28482056 152.93974304 C-128.31018287 146.55577318 -128.32422136 140.17189033 -128.32423991 133.78786838 C-128.32448108 130.53389011 -128.33103238 127.28015101 -128.34753227 124.02620888 C-128.36456678 120.4918077 -128.36284847 116.95788745 -128.35644531 113.42346191 C-128.36566419 112.40496454 -128.37488306 111.38646716 -128.38438129 110.33710623 C-128.3333878 101.57404211 -127.08400706 93.13324005 -120.84179688 86.57299805 C-114.22603642 80.92276679 -106.10864751 77.51185919 -98.0625 74.4375 C-97.05525879 74.05182861 -96.04801758 73.66615723 -95.01025391 73.26879883 C-67.94352685 63.1203789 -39.76845194 60.40367006 -11 60 C-13.32462757 57.61634868 -15.66126251 55.24480231 -18 52.875 C-18.64839844 52.20984375 -19.29679687 51.5446875 -19.96484375 50.859375 C-24.34777704 46.43304633 -28.90919701 42.58962538 -34 39 C-33.17686555 34.89719759 -31.62832475 33.43014784 -28.4375 30.6875 C-27.53 29.89472656 -26.6225 29.10195312 -25.6875 28.28515625 C-24.09201253 26.92852809 -22.49018221 25.57921289 -20.875 24.24609375 C-13.32501943 17.92907372 -7.29843486 10.26555838 -2 2 C-1.34 1.34 -0.68 0.68 0 0 Z " fill="#FEFEFE" transform="translate(161,60)"/>
<path d="M0 0 C0.00021737 0.55905073 0.00043474 1.11810145 0.00065869 1.69409311 C0.01418176 34.84608032 0.05369815 67.99792305 0.12685562 101.1498306 C0.13562211 105.13260151 0.14417197 109.11537286 0.15258789 113.09814453 C0.15426695 113.89102496 0.15594602 114.68390538 0.15767596 115.50081249 C0.18432792 128.33011846 0.19343975 141.15937975 0.19604143 153.98871057 C0.19910354 167.15798576 0.22107995 180.32713201 0.26052457 193.49634898 C0.28426037 201.61904942 0.29333597 209.74149228 0.28351311 217.8642226 C0.27755663 224.09833214 0.2979473 230.33210545 0.32806015 236.56613922 C0.33629518 239.11944147 0.33604139 241.6727876 0.32659721 244.22608566 C0.31496267 247.71759777 0.33411591 251.20766599 0.36076355 254.69906616 C0.35009029 255.70492999 0.33941703 256.71079383 0.32842034 257.74713838 C0.42753683 264.72798997 2.02214938 270.1988094 6 276 C12.76231407 282.43137311 19.0970876 284.52798185 28.3671875 284.3828125 C32.81018793 283.91462536 36.66738322 282.66335296 40.85131836 281.13720703 C46.30355244 279.16446333 51.80130233 277.66869724 57.4375 276.3125 C58.24638672 276.11052002 59.05527344 275.90854004 59.88867188 275.70043945 C73.36934166 272.51190574 86.7698073 271.66721374 100.56347656 271.73925781 C102.99829997 271.7499925 105.43238597 271.73927942 107.8671875 271.7265625 C118.07887719 271.71625066 127.90270786 272.44874722 138 274 C139.24168945 274.1865918 140.48337891 274.37318359 141.76269531 274.56542969 C166.89047289 278.52952498 191.10993421 284.95501435 213.97753906 296.39575195 C215.07340332 296.93268677 215.07340332 296.93268677 216.19140625 297.48046875 C216.81217041 297.79910889 217.43293457 298.11774902 218.07250977 298.44604492 C222.06517934 299.59352653 225.71452093 297.82941092 229.34375 296.1796875 C230.57834961 295.62909668 230.57834961 295.62909668 231.83789062 295.06738281 C232.71638672 294.67389648 233.59488281 294.28041016 234.5 293.875 C266.64611374 279.84047717 301.74872604 271.78884739 336.875 271.8125 C337.89762939 271.81290787 337.89762939 271.81290787 338.94091797 271.81332397 C362.32655152 271.85608088 387.88064874 273.88620776 409.66015625 283.12890625 C415.08205409 285.14740912 421.95619124 284.94178453 427.44921875 283.2421875 C429.42268358 282.28740642 431.1909147 281.23484104 433 280 C433.886875 279.46375 434.77375 278.9275 435.6875 278.375 C442.30473945 271.57891624 443.73646685 263.86220433 443.63923645 254.69906616 C443.64759213 253.60429699 443.6559478 252.50952781 443.66455668 251.38158381 C443.68639345 247.73631859 443.67290709 244.09206983 443.65942383 240.44677734 C443.66788088 237.82463825 443.67852674 235.20250544 443.69119263 232.5803833 C443.71496437 226.94705825 443.72065867 221.31395189 443.71384621 215.68058395 C443.70402324 207.53587248 443.72181848 199.39140252 443.74621352 191.24673016 C443.78505519 178.03052957 443.80176321 164.81439831 443.80444336 151.59814453 C443.80709351 138.76477504 443.82023527 125.93148653 443.84741211 113.09814453 C443.84908549 112.30623094 443.85075887 111.51431735 443.85248295 110.69840638 C443.86094282 106.72534939 443.86960817 102.75229288 443.87837565 98.77923656 C443.95076996 65.85283309 443.98719765 32.92648142 444 0 C445.27838822 0.61972025 446.55457745 1.24397792 447.82983398 1.87011719 C448.89620338 2.39082794 448.89620338 2.39082794 449.9841156 2.92205811 C454.64486345 5.41427213 458.25967362 9.32712213 462 13 C462.64195312 13.61746094 463.28390625 14.23492187 463.9453125 14.87109375 C474.14220567 25.50238371 478.32521511 39.15676109 478.26069641 53.58137512 C478.26452196 54.50348099 478.26834751 55.42558686 478.27228898 56.37563533 C478.2825475 59.44294697 478.27864046 62.51006891 478.2746582 65.57739258 C478.27900866 67.7858243 478.28419292 69.99425451 478.29014587 72.2026825 C478.30351188 78.18625259 478.30411715 84.16975942 478.30158257 90.15334153 C478.30051113 95.15563293 478.30540072 100.15791163 478.310188 105.1602003 C478.32190845 117.64032677 478.32106287 130.12042263 478.31463119 142.60054924 C478.30946475 153.41687156 478.32071288 164.23310374 478.33972941 175.04940823 C478.35914388 186.17811948 478.36706656 197.30679415 478.36360615 208.43552321 C478.36179649 214.67439687 478.36439779 220.91318798 478.37832069 227.15204811 C478.39092984 233.02163358 478.38892564 238.8910392 478.37590981 244.76062202 C478.37355112 246.9083538 478.37625316 249.05609835 478.38453293 251.20381546 C478.45634478 271.28778114 475.78515497 287.62065598 461.25 302.4375 C448.83769103 314.45800629 434.24807352 319.69508893 417.13793945 319.76074219 C406.51749762 319.39381371 396.75623124 316.10354964 386.6796875 312.9765625 C378.24346146 310.38836577 369.76045364 308.93385052 361 308 C360.15026611 307.9086377 359.30053223 307.81727539 358.42504883 307.72314453 C315.29434373 303.43187459 274.12670133 314.39357357 235.11865234 332.07958984 C228.08648759 335.13458652 218.8624829 335.14282906 211.390625 333.38671875 C208.86283118 332.36932656 206.44763243 331.19870371 204 330 C156.68439832 308.99939476 102.41708532 298.08237339 51.97119141 314.66699219 C32.82862982 320.93278386 14.25122089 321.62561045 -4.078125 312.4609375 C-18.54015244 303.93722859 -28.3703724 290.44899293 -33.03741741 274.44183826 C-34.18092935 269.77676953 -34.28200539 265.31652401 -34.26069641 260.53215027 C-34.26452196 259.61019326 -34.26834751 258.68823625 -34.27228898 257.73834115 C-34.28256338 254.66558975 -34.27863739 251.59302716 -34.2746582 248.52026367 C-34.27900778 246.31035693 -34.28419175 244.1004517 -34.29014587 241.89054871 C-34.30352143 235.89872238 -34.30411608 229.90695919 -34.30158257 223.91512084 C-34.30051177 218.9078147 -34.30539911 213.90052127 -34.310188 208.89321786 C-34.32191218 196.40128511 -34.32106098 183.90938295 -34.31463119 171.41745005 C-34.30946465 160.58745558 -34.32071249 149.75755114 -34.33972941 138.92757448 C-34.35913763 127.7887314 -34.36706754 116.64992107 -34.36360615 105.51105863 C-34.3617956 99.26493614 -34.36440676 93.01889609 -34.37832069 86.77278709 C-34.3909209 80.89665182 -34.38893404 75.02069628 -34.37590981 69.14456367 C-34.37354917 66.9931876 -34.37626023 64.84179878 -34.38453293 62.69043732 C-34.45874778 41.88311894 -34.45874778 41.88311894 -31 33 C-30.5978125 31.91847656 -30.195625 30.83695313 -29.78125 29.72265625 C-25.34766944 20.51756978 -11.70065535 0 0 0 Z " fill="#CC5959" transform="translate(34,167)"/>
<path d="M0 0 C0.33 0 0.66 0 1 0 C1.00331015 1.25675663 1.00662029 2.51351326 1.01003075 3.80835342 C1.08913095 33.6736265 1.17838201 63.53885056 1.28005161 93.40405454 C1.29256976 97.08382257 1.30500264 100.76359088 1.31738281 104.44335938 C1.3210818 105.54217464 1.3210818 105.54217464 1.32485552 106.66318819 C1.36452687 118.50821207 1.39729903 130.35324543 1.42749982 142.19829682 C1.45866703 154.36183661 1.49729877 166.52533636 1.54279006 178.68883109 C1.57060384 186.18804486 1.5926675 193.68722951 1.60726251 201.18648085 C1.61909896 206.94701281 1.64134522 212.70746918 1.66738319 218.46795273 C1.67642418 220.82368547 1.68214104 223.17943378 1.68421364 225.53518295 C1.43811811 253.44597768 1.43811811 253.44597768 15 277 C24.38922367 284.83598778 35.42315212 288.6698093 47.625 287.81640625 C55.30629091 286.75804656 62.66390953 284.41912279 70.08740234 282.25268555 C113.84214315 269.56840336 160.41353006 274.0121902 203 289 C203.71269043 289.24331055 204.42538086 289.48662109 205.15966797 289.73730469 C211.79075287 292.00579163 218.16137193 294.54374151 224.44140625 297.66796875 C225.85377563 298.36732544 225.85377563 298.36732544 227.29467773 299.08081055 C229.14654856 300.00938168 230.98910645 300.9568236 232.82055664 301.92504883 C237.70187264 304.47746553 237.70187264 304.47746553 243.0546875 304.5625 C244.02664063 304.046875 244.99859375 303.53125 246 303 C247.37422826 302.3213517 248.7493143 301.64443906 250.125 300.96875 C251.2840686 300.37852051 251.2840686 300.37852051 252.46655273 299.77636719 C301.0457983 275.30182774 361.74419528 266.5935017 414.29199219 282.70263672 C416.28579289 283.3649261 418.26982502 284.04810699 420.25 284.75 C431.63525053 288.73358104 442.93829386 289.2379762 454.31640625 284.66796875 C465.5866493 279.20570372 473.37099368 271.75608041 478 260 C479.86174856 253.11296948 480.29303383 246.40814611 480.2784729 239.30648804 C480.2871615 237.76233953 480.2871615 237.76233953 480.29602563 236.1869961 C480.31293031 232.76314074 480.31589391 229.33942095 480.31884766 225.91552734 C480.3281524 223.45102614 480.33832189 220.98652806 480.34928894 218.52203369 C480.37090529 213.22926067 480.38654374 207.93652245 480.39665604 202.64371872 C480.41128689 194.99137098 480.43683585 187.33908977 480.46498732 179.68678124 C480.51037556 167.26923251 480.54702318 154.85167416 480.578125 142.43408203 C480.60834327 130.3767732 480.64270852 118.31948785 480.68261719 106.26220703 C480.68507874 105.51808537 480.68754028 104.77396371 480.69007643 104.00729291 C480.70245166 100.27398122 480.71490807 96.54066979 480.72740483 92.8073585 C480.83085324 61.87160425 480.91994927 30.93582407 481 0 C488.9947527 6.15062974 493.57302272 15.27342184 496 25 C496.17257702 25.67928023 496.34515404 26.35856047 496.52296066 27.05842495 C497.17596188 31.08503647 497.14456174 35.02747403 497.14044189 39.10035706 C497.14489858 40.47838931 497.14489858 40.47838931 497.1494453 41.88426059 C497.15811967 44.96394663 497.1596395 48.04359373 497.16113281 51.12329102 C497.16576196 53.33113182 497.17078675 55.53897183 497.17617798 57.74681091 C497.18929658 63.7471289 497.19574615 69.74743569 497.20018864 75.74776578 C497.20312085 79.49859788 497.20722599 83.24942693 497.21169281 87.00025749 C497.22380122 97.39654796 497.23418285 107.79283628 497.2375679 118.18913364 C497.23778747 118.85411944 497.23800703 119.51910523 497.23823325 120.20424211 C497.23845153 120.87077434 497.23866981 121.53730657 497.2388947 122.22403675 C497.23933816 123.57456943 497.23978472 124.9251021 497.24023438 126.27563477 C497.2404558 126.94553847 497.24067723 127.61544218 497.24090537 128.30564599 C497.24484908 139.14808386 497.26229057 149.99045434 497.2855939 160.8328662 C497.30935654 171.97952365 497.32151449 183.12615661 497.32293582 194.27284187 C497.32398239 200.52519647 497.32985854 206.77745605 497.34775543 213.02978706 C497.36427549 218.91572457 497.36637245 224.80149603 497.35761642 230.6874485 C497.3568481 232.84163102 497.36116161 234.99582261 497.37107468 237.14998245 C497.4581415 257.25782173 494.80389079 273.60155706 480.25 288.4375 C467.83769103 300.45800629 453.24807352 305.69508893 436.13793945 305.76074219 C425.51749762 305.39381371 415.75623124 302.10354964 405.6796875 298.9765625 C397.24346146 296.38836577 388.76045364 294.93385052 380 294 C379.15026611 293.9086377 378.30053223 293.81727539 377.42504883 293.72314453 C334.29434373 289.43187459 293.12670133 300.39357357 254.11865234 318.07958984 C247.08648759 321.13458652 237.8624829 321.14282906 230.390625 319.38671875 C227.86283118 318.36932656 225.44763243 317.19870371 223 316 C175.68439832 294.99939476 121.41708532 284.08237339 70.97119141 300.66699219 C51.82862982 306.93278386 33.25122089 307.62561045 14.921875 298.4609375 C0.45984756 289.93722859 -9.3703724 276.44899293 -14.03741741 260.44183826 C-15.18092935 255.77676953 -15.28200539 251.31652401 -15.26069641 246.53215027 C-15.26452196 245.61019326 -15.26834751 244.68823625 -15.27228898 243.73834115 C-15.28256338 240.66558975 -15.27863739 237.59302716 -15.2746582 234.52026367 C-15.27900778 232.31035693 -15.28419175 230.1004517 -15.29014587 227.89054871 C-15.30352143 221.89872238 -15.30411608 215.90695919 -15.30158257 209.91512084 C-15.30051177 204.9078147 -15.30539911 199.90052127 -15.310188 194.89321786 C-15.32191218 182.40128511 -15.32106098 169.90938295 -15.31463119 157.41745005 C-15.30946465 146.58745558 -15.32071249 135.75755114 -15.33972941 124.92757448 C-15.35913763 113.7887314 -15.36706754 102.64992107 -15.36360615 91.51105863 C-15.3617956 85.26493614 -15.36440676 79.01889609 -15.37832069 72.77278709 C-15.3909209 66.89665182 -15.38893404 61.02069628 -15.37590981 55.14456367 C-15.37354917 52.9931876 -15.37626023 50.84179878 -15.38453293 48.69043732 C-15.45020863 30.27720373 -13.53602922 13.8508206 0 0 Z " fill="#DB6F6F" transform="translate(15,181)"/>
<path d="M0 0 C4.7121598 1.57071993 6.30126994 4.98496286 9 9 C18.58201673 22.03809456 29.13333572 32.20815734 42 42 C41.65438685 44.84322 41.39174134 46.5630078 39.45288086 48.72583008 C38.46880249 49.48996216 38.46880249 49.48996216 37.46484375 50.26953125 C36.74151855 50.84413086 36.01819336 51.41873047 35.27294922 52.01074219 C34.50225098 52.60532227 33.73155273 53.19990234 32.9375 53.8125 C31.37408524 55.06103118 29.81285615 56.31230456 28.25390625 57.56640625 C27.51027832 58.16211426 26.76665039 58.75782227 26.00048828 59.37158203 C18.98926147 65.07879253 14.01344238 71.53291994 9 79 C7.95184667 80.53075631 6.89031345 82.05248065 5.8125 83.5625 C5.36519531 84.20316406 4.91789062 84.84382813 4.45703125 85.50390625 C2.59626309 87.41456095 1.68374025 87.9558434 -1 88 C-4.82984138 85.56389294 -6.90686088 82.90206672 -9.125 79 C-17.48104304 65.45744749 -29.70769684 55.79755528 -42 46 C-41.96397879 43.22636658 -41.49218102 41.5087138 -39.54638672 39.49755859 C-37.54898457 37.83733259 -35.50889406 36.25443022 -33.4375 34.6875 C-31.96507192 33.53036077 -30.49499173 32.3702273 -29.02734375 31.20703125 C-28.32464355 30.65225098 -27.62194336 30.0974707 -26.89794922 29.52587891 C-18.86576663 23.06830994 -12.99518204 15.0984149 -7.375 6.51953125 C-3.80635011 1.26878337 -3.80635011 1.26878337 0 0 Z " fill="#FFCD1B" transform="translate(298,10)"/>
<path d="M0 0 C2.375 0.0625 2.375 0.0625 5 1 C7.95373762 4.41469051 10.5359266 8.09865302 13.1875 11.75 C19.51868025 20.19157366 26.54314553 26.92759324 35.03125 33.17578125 C37.15134448 35.14023387 37.65098494 36.17671744 38 39 C37.34515625 39.51046875 36.6903125 40.0209375 36.015625 40.546875 C30.56028376 44.89265531 25.42640937 49.38000488 20.5 54.3125 C19.99629883 54.81555664 19.49259766 55.31861328 18.97363281 55.83691406 C16.91773528 57.92343431 15.00950917 59.98696812 13.28125 62.35546875 C12.8584375 62.89816406 12.435625 63.44085938 12 64 C11.34 64 10.68 64 10 64 C9.7525 64.721875 9.505 65.44375 9.25 66.1875 C7.89016326 69.24713266 6.17082246 71.4673738 4 74 C0.90368478 73.70511284 -0.57207443 73.49720876 -2.640625 71.09375 C-3.17171875 70.2378125 -3.7028125 69.381875 -4.25 68.5 C-8.14614805 62.82679205 -12.63193195 58.04504478 -17.5 53.1875 C-18.56782715 52.11242187 -18.56782715 52.11242187 -19.65722656 51.015625 C-24.15690619 46.57180347 -28.83399613 42.64766457 -34 39 C-33.17686555 34.89719759 -31.62832475 33.43014784 -28.4375 30.6875 C-27.53 29.89472656 -26.6225 29.10195312 -25.6875 28.28515625 C-24.09201253 26.92852809 -22.49018221 25.57921289 -20.875 24.24609375 C-13.32501943 17.92907372 -7.29843486 10.26555838 -2 2 C-1.34 1.34 -0.68 0.68 0 0 Z " fill="#FAA330" transform="translate(161,60)"/>
<path d="M0 0 C2.6875 0.375 2.6875 0.375 4.63671875 2.58203125 C6.5369821 5.17000896 8.36817231 7.79229329 10.1875 10.4375 C17.22871937 20.153596 25.94770603 28.38989523 35.6875 35.375 C35.35995083 38.33806019 35.12284041 39.94263458 32.97265625 42.078125 C32.23917969 42.58859375 31.50570312 43.0990625 30.75 43.625 C18.91890493 52.37216034 10.79368272 62.21572593 2.6875 74.375 C0.359375 74.9609375 0.359375 74.9609375 -2.3125 74.375 C-4.14999377 72.26370749 -5.57416457 70.33718683 -7.0625 68 C-7.93946176 66.70394179 -8.8210284 65.41098823 -9.70703125 64.12109375 C-10.1448291 63.48155762 -10.58262695 62.84202148 -11.03369141 62.18310547 C-16.2666084 54.78429233 -22.72914938 48.93802458 -29.83203125 43.3828125 C-32.15565438 41.5019585 -34.24183986 39.52771427 -36.3125 37.375 C-33.19456694 34.20510139 -30.00600648 31.15756331 -26.70727539 28.17700195 C-18.28080604 20.54602533 -10.51717883 12.74850626 -4.40625 3.08984375 C-2.71646896 0.44050848 -2.71646896 0.44050848 0 0 Z " fill="#F9A330" transform="translate(396.3125,84.625)"/>
<path d="M0 0 C0.91990723 0.14985352 1.83981445 0.29970703 2.78759766 0.45410156 C14.79953101 2.45361406 26.42915017 5.21043279 38 9 C39.01707031 9.32750244 39.01707031 9.32750244 40.0546875 9.66162109 C51.61131419 13.41697129 51.61131419 13.41697129 54 17 C54.60546838 20.97879218 54.29845414 22.54750501 52.0625 25.9375 C47.77529819 28.82479918 44.9222079 27.91902441 40 27 C36.75306792 26.20179728 33.56941472 25.23535715 30.375 24.25 C22.69892185 21.97754482 15.00679162 19.96838148 7.1875 18.25 C6.30690918 18.05180664 5.42631836 17.85361328 4.51904297 17.64941406 C-9.66021424 14.60821683 -23.61021591 13.61917433 -38.0625 13.6875 C-38.86748932 13.68932281 -39.67247864 13.69114563 -40.50186157 13.69302368 C-58.07940631 13.75974772 -75.15970506 14.89714747 -91.9831543 20.3737793 C-96.96873058 21.95687698 -101.76630014 22.64955104 -107 22 C-109.0625 20.4375 -109.0625 20.4375 -110 18 C-110.4375 14.5 -110.4375 14.5 -110 11 C-101.7273125 0.68799883 -77.78527283 -0.77793511 -65.25 -2.25 C-43.53241268 -4.4465246 -21.4993505 -3.57755243 0 0 Z " fill="#3F4C4E" transform="translate(178,245)"/>
<path d="M0 0 C1.98254871 0.30009594 3.96933452 0.57208395 5.95703125 0.8359375 C12.05087601 1.70648675 17.97818817 3.17963434 23.92578125 4.7421875 C25.09439697 5.03778564 25.09439697 5.03778564 26.28662109 5.33935547 C30.66161366 6.54192832 33.58079704 7.61500169 36.42578125 11.3671875 C37.7012565 15.11389604 37.76757726 16.65252312 36.05078125 20.2421875 C32.28113192 23.29380839 29.12689423 22.78686252 24.42578125 22.3671875 C21.51055588 21.77959157 18.70496622 20.92502706 15.86328125 20.0546875 C-16.52621058 11.04837684 -52.00003201 11.96396324 -84.57421875 19.3671875 C-85.70859375 19.62371094 -86.84296875 19.88023437 -88.01171875 20.14453125 C-97.75343792 22.39004221 -107.23462793 24.7925211 -116.57421875 28.3671875 C-119.76171875 28.8671875 -119.76171875 28.8671875 -122.57421875 28.3671875 C-125.93766364 25.88116301 -127.37479624 24.45293227 -128.13671875 20.3046875 C-127.43754552 16.65344952 -126.38604962 15.74424788 -123.57421875 13.3671875 C-87.33627081 -4.31779907 -38.96514023 -5.90887677 0 0 Z " fill="#3F4C4E" transform="translate(407.57421875,244.6328125)"/>
<path d="M0 0 C2.00164623 2.91094865 2.00174373 3.9662878 1.8125 7.625 C1 11 1 11 -2 13 C-10.01790242 13.77592604 -16.44072506 11.47456085 -24 9 C-45.32697028 2.55231131 -66.96465945 -0.19197318 -89.17285156 -0.24023438 C-91.83431319 -0.24985296 -94.49497153 -0.28091213 -97.15625 -0.3125 C-112.83452088 -0.4101178 -128.27191351 1.11579924 -143.3125 5.75 C-148.96932764 7.49278434 -153.0537569 8.36582488 -159 7 C-160.9375 5.9375 -160.9375 5.9375 -162 4 C-162.80454545 -1.63181818 -162.80454545 -1.63181818 -162 -4 C-156.97156066 -8.46972385 -150.99624248 -9.59342031 -144.5625 -11.0625 C-143.45285889 -11.31854004 -142.34321777 -11.57458008 -141.19995117 -11.83837891 C-99.64409207 -21.12028047 -38.26459799 -22.89042915 0 0 Z " fill="#3F4B4D" transform="translate(230,359)"/>
<path d="M0 0 C1.15571503 -0.00524185 1.15571503 -0.00524185 2.33477783 -0.0105896 C17.18545196 -0.04795053 31.93563541 1.11417317 46.5 4.125 C47.3235498 4.29241699 48.14709961 4.45983398 48.99560547 4.63232422 C67.5194087 8.5819087 67.5194087 8.5819087 72.25 13.3125 C72.82105775 20.50782771 72.82105775 20.50782771 70.875 23.25 C66.65928239 26.00643074 63.03072481 25.15088681 58.25 24.3125 C55.80764456 23.70675159 53.37055396 23.07959008 50.9375 22.4375 C34.78531072 18.23205056 18.65502114 16.72938413 2 16.8125 C0.65367493 16.81364807 0.65367493 16.81364807 -0.71984863 16.81481934 C-24.61138658 16.88758544 -47.00654125 20.50529088 -69.86328125 27.578125 C-76.32813935 29.56731211 -81.98071707 31.20027481 -88.75 30.3125 C-90.875 28.8125 -90.875 28.8125 -91.75 26.3125 C-92.03718223 23.39281398 -91.82083866 21.0547535 -90.75 18.3125 C-84.925942 13.43654447 -76.95067827 12.24420597 -69.75 10.3125 C-67.43694682 9.62686343 -65.12443804 8.93938742 -62.8125 8.25 C-56.22176944 6.38153154 -49.62618214 4.85865973 -42.87597656 3.68457031 C-41.42817444 3.43118832 -39.98221815 3.16707907 -38.53808594 2.89355469 C-25.70738453 0.50832568 -13.01288104 0.01882414 0 0 Z " fill="#3F4B4D" transform="translate(371.75,341.6875)"/>
<path d="M0 0 C1.00272949 0.19682373 2.00545898 0.39364746 3.03857422 0.59643555 C8.20899809 1.67643197 13.30200095 2.96403092 18.36328125 4.4765625 C19.33563721 4.76611816 20.30799316 5.05567383 21.30981445 5.35400391 C24.43087741 6.93904476 25.3716694 8.47544721 26.8125 11.625 C26.73508581 14.79898194 26.02387233 16.31216895 24.25 18.9375 C20.72963609 21.37467501 17.890727 21.26759115 13.8125 20.625 C10.42586849 19.73148718 7.08313813 18.72428452 3.73046875 17.7109375 C-0.40508491 16.5143293 -4.57532576 15.68568658 -8.8125 14.9375 C-9.46790771 14.81850342 -10.12331543 14.69950684 -10.79858398 14.5769043 C-38.52243757 9.86048274 -67.90243548 11.42384897 -95.1875 17.625 C-96.321875 17.88152344 -97.45625 18.13804687 -98.625 18.40234375 C-108.36671917 20.64785471 -117.84790918 23.0503336 -127.1875 26.625 C-130.375 27.125 -130.375 27.125 -133.1875 26.625 C-136.55094489 24.13897551 -137.98807749 22.71074477 -138.75 18.5625 C-138.04847508 14.89898098 -137.02794586 13.99439348 -134.1875 11.625 C-93.7818363 -6.56871045 -42.82273672 -8.41149464 0 0 Z " fill="#3F4C4E" transform="translate(418.1875,196.375)"/>
<path d="M0 0 C0.67804688 0.21301758 1.35609375 0.42603516 2.0546875 0.64550781 C4.02208322 1.26644353 5.98048992 1.90965466 7.9375 2.5625 C9.06027344 2.93503906 10.18304688 3.30757813 11.33984375 3.69140625 C14 5 14 5 15.38671875 6.9296875 C16.36283688 10.22486334 15.83755705 12.70959731 15 16 C13.4375 18 13.4375 18 11 19 C4.85267306 18.88823042 -0.65274228 16.95036044 -6.48046875 15.10546875 C-28.96871707 8.04201228 -51.66265767 4.81085623 -75.17285156 4.75976562 C-77.83431319 4.75014704 -80.49497153 4.71908787 -83.15625 4.6875 C-98.85030171 4.5898742 -114.29073682 6.1649537 -129.375 10.6875 C-138.84819208 13.47044953 -138.84819208 13.47044953 -144 13 C-146.375 11.5 -146.375 11.5 -148 9 C-148.58428517 6.0368395 -148.39344818 4.09840439 -148 1 C-117.31879007 -28.6134184 -34.93085062 -11.36284068 0 0 Z " fill="#3F4C4E" transform="translate(216,304)"/>
<path d="M0 0 C3.38582157 1.07067847 6.80057865 2.03972626 10.21679688 3.00854492 C13.14710933 4.01818242 14.68208348 5.10817081 16.33544922 7.73852539 C17.10421113 11.75317092 16.65612974 13.25233234 14.39794922 16.67602539 C10.73599321 19.14224066 9.2774534 19.16645853 5.06884766 18.37451172 C2.14472493 17.69414912 -0.66311522 16.82106467 -3.52001953 15.89868164 C-10.28415558 13.79482309 -17.10016965 12.10442557 -24.01098633 10.5559082 C-25.96743092 10.11568995 -27.92040323 9.66193648 -29.87353516 9.20727539 C-45.15238374 5.71049436 -60.0867083 4.35208296 -75.72705078 4.42602539 C-76.5320401 4.42784821 -77.33702942 4.42967102 -78.16641235 4.43154907 C-95.7439571 4.49827311 -112.82425584 5.63567286 -129.64770508 11.11230469 C-134.63328136 12.69540237 -139.43085092 13.38807643 -144.66455078 12.73852539 C-146.72705078 11.17602539 -146.72705078 11.17602539 -147.66455078 8.73852539 C-148.12346463 5.0672146 -148.40876158 2.78444326 -146.21923828 -0.29272461 C-142.55435948 -3.11703488 -138.78890975 -4.08953434 -134.35205078 -5.26147461 C-132.92179565 -5.64166748 -132.92179565 -5.64166748 -131.46264648 -6.02954102 C-88.26435728 -16.8453816 -42.17892698 -13.66016849 0 0 Z " fill="#3F4C4E" transform="translate(215.66455078125,204.261474609375)"/>
<path d="M0 0 C1.96204618 0.30303116 3.92904053 0.57383777 5.89697266 0.8359375 C11.99525807 1.70354582 17.92607671 3.17864346 23.87744141 4.7421875 C25.04605713 5.03778564 25.04605713 5.03778564 26.23828125 5.33935547 C30.61202436 6.54158488 33.53644755 7.61301705 36.37744141 11.3671875 C37.37744141 14.3671875 37.37744141 14.3671875 37.37744141 17.3671875 C35.53602222 19.71658439 34.03745201 21.0371822 31.37744141 22.3671875 C25.7061536 22.07384503 20.5525435 20.94038178 15.06494141 19.4921875 C-1.08724787 15.28673806 -17.21753745 13.78407163 -33.87255859 13.8671875 C-35.21888367 13.86833557 -35.21888367 13.86833557 -36.59240723 13.86950684 C-60.48394517 13.94227294 -82.87909985 17.55997838 -105.73583984 24.6328125 C-112.20069794 26.62199961 -117.85327566 28.25496231 -124.62255859 27.3671875 C-126.74755859 25.8671875 -126.74755859 25.8671875 -127.62255859 23.3671875 C-128.02658801 20.37981846 -127.89045464 18.12571808 -126.62255859 15.3671875 C-123.93516148 13.24022747 -120.85675946 12.40548969 -117.62255859 11.3671875 C-116.63771484 10.99207031 -115.65287109 10.61695313 -114.63818359 10.23046875 C-78.26437953 -3.05351269 -38.07570479 -5.8973877 0 0 Z " fill="#3F4B4D" transform="translate(407.62255859375,294.6328125)"/>
</svg>
