<?xml version="1.0" encoding="UTF-8"?>
<svg version="1.1" xmlns="http://www.w3.org/2000/svg" width="512" height="512">
<path d="M0 0 C0.69661635 -0.00367669 1.3932327 -0.00735338 2.11095864 -0.01114148 C4.44516014 -0.02215391 6.77931708 -0.02601808 9.11354065 -0.02983093 C10.78759909 -0.03609768 12.46165614 -0.04274467 14.13571167 -0.04974365 C19.63555435 -0.07077019 25.13539724 -0.08114818 30.63526917 -0.09111023 C32.53194251 -0.09515902 34.42861572 -0.09927598 36.32528877 -0.10346031 C45.24149604 -0.12251287 54.15769505 -0.13674093 63.07391876 -0.14507228 C73.3459282 -0.15483009 83.6177213 -0.18111121 93.88965458 -0.22157317 C101.84061752 -0.25181072 109.79151875 -0.26654858 117.74253803 -0.26985329 C122.48537204 -0.27219605 127.22797498 -0.28105443 131.97074699 -0.30631447 C136.44007669 -0.32973269 140.90902547 -0.33377365 145.3784008 -0.32355309 C147.00970228 -0.32306086 148.64102339 -0.32928788 150.27226639 -0.34310913 C167.68379451 -0.48225567 182.56437511 3.68880361 195.45167542 15.95967102 C199.85209951 20.61396573 203.17034439 25.45332124 206.07667542 31.14717102 C206.46597229 31.89869446 206.85526917 32.6502179 207.25636292 33.42451477 C211.93452571 43.13938568 212.36677697 52.85265986 212.30804443 63.48901367 C212.3093246 65.46065206 212.3093246 65.46065206 212.31063062 67.47212154 C212.31283542 71.09596798 212.30278538 74.71969044 212.29073632 78.34351361 C212.27998534 82.26102361 212.2809838 86.17853182 212.2808075 90.09605408 C212.27921089 96.87685269 212.27113605 103.65761789 212.25937462 110.43840599 C212.24146263 121.15692167 212.24540803 131.87537892 212.25302124 142.59390259 C212.25537606 146.26454825 212.25761586 149.93519398 212.25983906 153.60583973 C212.26068586 154.98156216 212.26068586 154.98156216 212.26154977 156.38507697 C212.2677359 166.81106436 212.27009125 177.23705102 212.27027893 187.66304016 C212.27031409 189.09178439 212.27031409 189.09178439 212.27034996 190.54939214 C212.27009925 206.00228851 212.25096366 221.45511786 212.22668227 236.9079925 C212.2023713 252.78393766 212.20477666 268.6597331 212.23036367 284.5356763 C212.24516295 294.32361073 212.23812903 304.11104216 212.20306257 313.89892719 C212.18090261 320.60215729 212.18412094 327.30507099 212.20736196 334.00829633 C212.21997303 337.87578261 212.22114539 341.7423934 212.19177818 345.60980797 C212.16021118 349.80262895 212.18268634 353.99343175 212.21038818 358.1862793 C212.192525 359.40806261 212.17466182 360.62984593 212.15625733 361.88865298 C212.23745073 367.53621079 212.38451503 371.16878276 216.45967579 375.31123066 C217.63928968 376.28886066 218.8435454 377.23797373 220.07667542 378.14717102 C220.98030823 378.9180304 221.88394104 379.68888977 222.81495667 380.48310852 C223.66444885 381.15599915 224.51394104 381.82888977 225.38917542 382.52217102 C229.0744629 385.48751847 232.64684499 388.5193503 236.13917542 391.70967102 C240.02662923 395.24482433 244.02265602 398.56257333 248.15089417 401.81123352 C250.38528351 403.5951652 252.59043989 405.39974823 254.78370667 407.23310852 C264.11216948 415.02263723 273.6547576 422.44079791 283.42042542 429.67451477 C284.97300271 430.83140423 286.52508426 431.9889593 288.07667542 433.14717102 C288.89853333 433.75456116 289.72039124 434.36195129 290.56715393 434.98774719 C291.36564758 435.58949768 292.16414124 436.19124817 292.98683167 436.81123352 C293.70234192 437.34571106 294.41785217 437.8801886 295.15504456 438.43086243 C300.33193209 443.05461028 303.36955884 450.29930524 304.07667542 457.14717102 C304.30718741 466.15069841 302.0442371 473.62599608 296.06105042 480.44404602 C285.94927573 490.13155043 274.8432918 489.56205572 261.69776917 489.44013977 C259.91701619 489.43453649 258.13625855 489.43026985 256.35549927 489.42727661 C251.69477817 489.41588545 247.03434268 489.38646831 242.37373352 489.35316467 C237.60743573 489.32233954 232.84109127 489.30874481 228.07472229 489.2936554 C218.74191531 489.26159252 209.40931922 489.21046637 200.07667542 489.14717102 C199.77809631 489.76809631 199.47951721 490.38902161 199.17189026 491.02876282 C194.05596764 500.92418424 182.4844507 506.75555872 172.41700745 510.21736145 C164.25969764 512.67724682 156.43700457 512.71109782 148.01808167 512.66474915 C146.34269099 512.67018214 144.66730511 512.67731136 142.9919281 512.68598938 C138.47945104 512.70408583 133.96734346 512.69721232 129.45486069 512.68447304 C124.70973031 512.67427388 119.96462943 512.68375777 115.21949768 512.6900177 C107.25418986 512.69727411 99.28903089 512.6877593 91.32374573 512.6686554 C82.14356207 512.64689054 72.9637339 512.65394333 63.78355885 512.67596102 C55.87060177 512.69417243 47.95775106 512.69664539 40.04477978 512.68620634 C35.3322995 512.68000285 30.61998575 512.67904842 25.90751648 512.69235229 C21.47494677 512.70399419 17.04283082 512.69573459 12.6103096 512.67277527 C10.99353408 512.66753235 9.37671969 512.66892519 7.75996017 512.67782593 C-10.30961413 512.76805501 -24.29952336 508.04759333 -37.60301208 495.55732727 C-51.68052711 480.93472328 -54.23173471 463.94700015 -54.19075012 444.48710632 C-54.19449081 442.79870864 -54.199094 441.11031269 -54.20448077 439.42191947 C-54.21667453 434.8007375 -54.21645458 430.17962814 -54.21409202 425.55843377 C-54.21368293 420.56710723 -54.22473181 415.57580367 -54.23420715 410.58448792 C-54.25079854 400.8120546 -54.25631587 391.03964542 -54.25743191 381.2671992 C-54.25838332 373.32039337 -54.26249828 365.37359547 -54.26883316 357.42679214 C-54.28644095 334.87853356 -54.29567282 312.33029399 -54.29417221 289.78202848 C-54.2940923 288.5672179 -54.29401239 287.35240732 -54.29393005 286.1007843 C-54.29384829 284.88448423 -54.29376653 283.66818415 -54.29368229 282.4150265 C-54.29286966 262.70999926 -54.3120029 243.00504851 -54.34020679 223.30004339 C-54.36896148 203.04982188 -54.38274564 182.79963764 -54.38101923 162.5493952 C-54.3803562 151.18740649 -54.38581053 139.82549796 -54.40737534 128.46352768 C-54.42562121 118.78846511 -54.42990655 109.11351905 -54.41635649 99.43844669 C-54.40984389 94.50681453 -54.40964769 89.57540568 -54.42706299 84.64379501 C-54.44287467 80.11955349 -54.43984814 75.59571084 -54.42249472 71.07147856 C-54.41944254 69.44431466 -54.42298915 67.81712039 -54.43421488 66.18999235 C-54.56198952 46.3373262 -50.12180006 29.41531151 -35.84910583 14.88154602 C-28.71468043 7.99117436 -20.34106526 3.98623061 -10.92332458 1.14717102 C-10.35640868 0.97022107 -9.78949278 0.79327112 -9.20539761 0.61095905 C-6.11151905 -0.01781305 -3.15762466 0.01081414 0 0 Z " fill="#DDDDDD" transform="translate(130.92332458496094,-0.1471710205078125)"/>
<path d="M0 0 C0 24.42 0 48.84 0 74 C1.32 74.33 2.64 74.66 4 75 C6.09772001 76.57455334 6.88654574 77.43245449 7.40405273 80.02124023 C7.43599379 82.49442844 7.45781921 84.96409777 7.4375 87.4375 C7.45748047 88.29666016 7.47746094 89.15582031 7.49804688 90.04101562 C7.49318834 96.30367252 7.49318834 96.30367252 5.16015625 99.59765625 C3 101 3 101 0 101 C0.08199046 134.00281088 0.17425191 167.00557489 0.28005161 200.00831757 C0.29256863 203.9155383 0.30500169 207.8227593 0.31738281 211.72998047 C0.31984881 212.50775071 0.3223148 213.28552095 0.32485552 214.08685999 C0.36444553 226.63644697 0.39725332 239.1860428 0.42749982 251.73565538 C0.45875014 264.63826955 0.49741609 277.54084657 0.54279006 290.44341886 C0.57049963 298.38789092 0.59260741 306.3323362 0.60726251 314.27684323 C0.61917441 320.3960863 0.64146524 326.51525398 0.66738319 332.63445282 C0.67636571 335.12466587 0.68212704 337.61489324 0.68421364 340.10512161 C0.70402994 360.18328031 1.44146142 380.01649151 5.75 399.6875 C6.01240479 400.9144458 6.27480957 402.1413916 6.54516602 403.40551758 C8.7648986 413.4973188 11.50196467 423.28128818 15 433 C15.25861816 433.73686035 15.51723633 434.4737207 15.78369141 435.23291016 C24.20074275 459.01172371 37.1214115 481.43297496 53 501 C54.54239484 502.91608074 56.08411985 504.83270097 57.625 506.75 C58.27726562 507.54921875 58.92953125 508.3484375 59.6015625 509.171875 C61 511 61 511 61 512 C51.96733877 512.09322537 42.93484652 512.16402865 33.90180683 512.20724869 C29.70609189 512.22800607 25.51070929 512.25610288 21.31518555 512.30175781 C17.25619999 512.34564386 13.19753139 512.36922586 9.13832664 512.37950897 C7.59996752 512.38682453 6.06162312 512.4011069 4.52340126 512.42292023 C-13.49594174 512.66797819 -27.43152224 507.84848069 -40.6796875 495.41015625 C-54.75720252 480.78755226 -57.30841013 463.79982913 -57.26742554 444.3399353 C-57.27116623 442.65153762 -57.27576941 440.96314167 -57.28115618 439.27474844 C-57.29334994 434.65356648 -57.29313 430.03245712 -57.29076743 425.41126275 C-57.29035834 420.41993621 -57.30140722 415.42863265 -57.31088257 410.43731689 C-57.32747395 400.66488358 -57.33299128 390.8924744 -57.33410732 381.12002818 C-57.33505874 373.17322235 -57.3391737 365.22642445 -57.34550858 357.27962112 C-57.36311637 334.73136254 -57.37234824 312.18312297 -57.37084763 289.63485746 C-57.37076772 288.42004688 -57.3706878 287.2052363 -57.37060547 285.95361328 C-57.37052371 284.73731321 -57.37044195 283.52101313 -57.37035771 282.26785548 C-57.36954507 262.56282824 -57.38867832 242.85787749 -57.4168822 223.15287237 C-57.4456369 202.90265086 -57.45942105 182.65246662 -57.45769465 162.40222418 C-57.45703161 151.04023547 -57.46248595 139.67832694 -57.48405075 128.31635666 C-57.50229663 118.64129409 -57.50658196 108.96634803 -57.4930319 99.29127567 C-57.4865193 94.35964351 -57.48632311 89.42823466 -57.5037384 84.49662399 C-57.51955008 79.97238247 -57.51652356 75.44853982 -57.49917014 70.92430754 C-57.49611795 69.29714364 -57.49966456 67.66994937 -57.51089029 66.04282133 C-57.63866493 46.19015518 -53.19847547 29.26814049 -38.92578125 14.734375 C-28.04374312 4.22458859 -14.85746802 0 0 0 Z " fill="#CDCDCD" transform="translate(134,0)"/>
<path d="M0 0 C4.01847378 1.86035467 6.89184261 4.5275535 10.0625 7.5625 C14.95518047 12.16313143 19.96050218 16.52281651 25.19921875 20.73046875 C28.28195646 23.22847518 31.29695351 25.79682974 34.3125 28.375 C39.89652214 33.1302863 45.61994764 37.68190985 51.40625 42.1875 C53.83952011 44.08417561 56.25464471 46.00088637 58.65625 47.9375 C59.26823242 48.43088867 59.88021484 48.92427734 60.51074219 49.43261719 C61.75200465 50.43460014 62.99224294 51.43785317 64.23144531 52.44238281 C67.53254476 55.09802548 70.87478105 57.65414295 74.328125 60.109375 C88.38896497 70.13722404 88.38896497 70.13722404 91 78 C91.2475 78.64195312 91.495 79.28390625 91.75 79.9453125 C94.14662929 87.34490544 93.11600332 95.16840601 90 102.1875 C85.90623983 109.57509019 80.13349768 114.76932208 72.04379272 117.37162781 C65.04481519 118.81652345 57.73786899 118.35897209 50.62109375 118.29296875 C48.84034077 118.28736547 47.05958313 118.28309883 45.27882385 118.28010559 C40.61810275 118.26871443 35.95766726 118.23929729 31.29705811 118.20599365 C26.53076032 118.17516852 21.76441586 118.16157379 16.99804688 118.14648438 C7.66523989 118.1144215 -1.6673562 118.06329535 -11 118 C-10.16855469 116.38931641 -10.16855469 116.38931641 -9.3203125 114.74609375 C-8.58821742 113.31006109 -7.85646477 111.87385382 -7.125 110.4375 C-6.76019531 109.73302734 -6.39539063 109.02855469 -6.01953125 108.30273438 C-2.1511319 100.67143747 -0.70243786 93.98974495 -0.68115234 85.48461914 C-0.67110672 84.55700775 -0.6610611 83.62939636 -0.65071106 82.67367554 C-0.61998115 79.62750837 -0.60287228 76.58142868 -0.5859375 73.53515625 C-0.56721766 71.41522982 -0.54764364 69.29531079 -0.5272522 67.17539978 C-0.4760113 61.61062991 -0.43634251 56.0458359 -0.39910889 50.48095703 C-0.35901881 44.79648914 -0.3079493 39.11212096 -0.2578125 33.42773438 C-0.16114842 22.28522638 -0.07671319 11.14266197 0 0 Z " fill="#CDCDCD" transform="translate(342,371)"/>
<path d="M0 0 C5.09452211 3.66805592 9.88716401 7.57766466 14.625 11.6875 C20.43095832 16.71501887 26.37707189 21.51193789 32.44140625 26.22265625 C34.86313636 28.10459107 37.26493402 30.00830428 39.65234375 31.93359375 C40.26489014 32.42754639 40.87743652 32.92149902 41.50854492 33.43041992 C42.75056019 34.43329242 43.99161309 35.43735795 45.23168945 36.44262695 C48.53273865 39.09814527 51.87487573 41.65421027 55.328125 44.109375 C69.38896497 54.13722404 69.38896497 54.13722404 72 62 C72.2475 62.64195312 72.495 63.28390625 72.75 63.9453125 C74.84325398 70.40823417 74.12466885 77.62599345 72 84 C56.13101974 83.08448191 41.53893693 73.25291801 30 63 C29.28972656 62.37351562 28.57945312 61.74703125 27.84765625 61.1015625 C12.41018902 46.61174177 2.41083271 24.90587772 0 4 C0 2.68 0 1.36 0 0 Z " fill="#DDDDDD" transform="translate(361,387)"/>
<path d="M0 0 C0.89251968 -0.00619858 1.78503937 -0.01239716 2.7046051 -0.01878357 C4.58992422 -0.02587909 6.47530603 -0.02271236 8.3605957 -0.01000977 C11.2409235 0.00384381 14.11799409 -0.03020157 16.99804688 -0.06835938 C18.83203204 -0.06931073 20.66602127 -0.06745086 22.5 -0.0625 C23.35847031 -0.07575821 24.21694061 -0.08901642 25.10142517 -0.10267639 C29.49158758 -0.03454247 31.29790727 0.17259969 34.90258789 2.91040039 C36.81640625 5.56640625 36.81640625 5.56640625 36.75390625 8.69140625 C35.81640625 11.56640625 35.81640625 11.56640625 33.81640625 14.56640625 C29.85843748 15.88572917 26.04289949 15.76867528 21.9140625 15.8046875 C21.03995224 15.81275925 20.16584198 15.82083099 19.26524353 15.82914734 C17.41683935 15.84297148 15.56840982 15.8537011 13.7199707 15.86157227 C10.89290274 15.87882085 8.06699375 15.92272494 5.24023438 15.96679688 C3.44401901 15.97692111 1.64779372 15.98543805 -0.1484375 15.9921875 C-0.99333237 16.00969559 -1.83822723 16.02720367 -2.70872498 16.04524231 C-8.54282062 16.02366028 -8.54282062 16.02366028 -11.71704102 13.75854492 C-13.87228401 10.53698227 -13.7242362 8.35090342 -13.18359375 4.56640625 C-9.79103921 -0.51645776 -5.57583458 -0.03213897 0 0 Z " fill="#2F2F2F" transform="translate(187.18359375,91.43359375)"/>
<path d="M0 0 C3.24043827 0.74260044 5.0750911 1.67657386 7.0859375 4.375 C9.19170002 9.7023992 8.73521828 16.1059679 8 21.6875 C6.57989748 24.55531815 5.25587383 26.43162617 3 28.6875 C0.1875 29.125 0.1875 29.125 -3 28.6875 C-5.72848705 26.67218577 -7.67154455 25.06621218 -8.48071289 21.66967773 C-8.67349374 19.32268003 -8.6823182 17.04136761 -8.625 14.6875 C-8.64433594 13.8934375 -8.66367188 13.099375 -8.68359375 12.28125 C-8.64759615 7.96153827 -8.38222891 6.17830224 -5.6484375 2.66796875 C-3 0.6875 -3 0.6875 0 0 Z " fill="#353535" transform="translate(264,73.3125)"/>
<path d="M0 0 C2.1875 1.4375 2.1875 1.4375 4 4 C4.59172757 7.17712187 4.55833755 10.27685041 4.5 13.5 C4.51546875 14.35464844 4.5309375 15.20929688 4.546875 16.08984375 C4.5079522 22.32722249 4.5079522 22.32722249 2.0859375 25.53515625 C-1.31139489 27.92092338 -1.31139489 27.92092338 -4 28 C-7.1875 26.75 -7.1875 26.75 -10 25 C-11.33826135 20.98521596 -11.26263692 17.26761992 -11.3125 13.0625 C-11.34150391 12.25103516 -11.37050781 11.43957031 -11.40039062 10.60351562 C-11.46384965 4.65301176 -11.46384965 4.65301176 -9.19921875 1.46484375 C-5.97221617 -0.6845807 -3.78674967 -0.54096424 0 0 Z " fill="#303030" transform="translate(137,74)"/>
</svg>
