<?xml version="1.0" encoding="UTF-8"?>
<svg version="1.1" xmlns="http://www.w3.org/2000/svg" width="256" height="256">
<path d="M0 0 C24.19540697 20.72454817 42.38410498 51.38485865 44.87890625 83.609375 C46.7977396 123.33379393 37.59830353 157.45408899 10.56640625 187.328125 C-10.28768751 209.54220338 -40.86877383 225.29298922 -71.51757812 226.7734375 C-110.89229953 228.00582315 -144.5606417 217.90599673 -173.65429688 190.59350586 C-197.38781227 167.46244661 -210.87610797 135.54327672 -211.47265625 102.58398438 C-211.6920115 65.3849894 -199.51011391 33.11669464 -173.37109375 6.296875 C-126.59902164 -39.86003071 -50.09663451 -41.55860439 0 0 Z " fill="#FC4646" transform="translate(211.12109375,29.390625)"/>
<path d="M0 0 C24.19540697 20.72454817 42.38410498 51.38485865 44.87890625 83.609375 C46.7977396 123.33379393 37.59830353 157.45408899 10.56640625 187.328125 C-10.28768751 209.54220338 -40.86877383 225.29298922 -71.51757812 226.7734375 C-110.89229953 228.00582315 -144.5606417 217.90599673 -173.65429688 190.59350586 C-197.38781227 167.46244661 -210.87610797 135.54327672 -211.47265625 102.58398438 C-211.6920115 65.3849894 -199.51011391 33.11669464 -173.37109375 6.296875 C-126.59902164 -39.86003071 -50.09663451 -41.55860439 0 0 Z M-146.12109375 22.609375 C-146.98734375 23.30933594 -147.85359375 24.00929688 -148.74609375 24.73046875 C-166.0318718 39.45038912 -177.87346868 61.14259559 -181.12109375 83.609375 C-182.78611478 114.74779099 -176.97965078 142.14977046 -155.83203125 165.7109375 C-137.92582772 184.85561044 -113.68694635 195.8474421 -87.61328125 197.796875 C-62.8306133 198.46894735 -39.39479427 189.99538892 -20.12109375 174.609375 C-19.12916016 173.84560547 -19.12916016 173.84560547 -18.1171875 173.06640625 C-16.73591701 171.97356811 -15.41799278 170.80112005 -14.12109375 169.609375 C-14.12109375 168.949375 -14.12109375 168.289375 -14.12109375 167.609375 C-13.27804688 167.28839844 -13.27804688 167.28839844 -12.41796875 166.9609375 C-2.43963084 161.0893305 3.31007541 146.75613782 7.87890625 136.609375 C8.30042969 135.6915625 8.72195312 134.77375 9.15625 133.828125 C14.03134169 122.4958364 15.41518423 111.04612881 15.31640625 98.796875 C15.31336487 98.13984589 15.31032349 97.48281677 15.30718994 96.80587769 C15.23628962 86.43253023 14.43095287 77.37198759 10.87890625 67.609375 C10.66459961 66.9807959 10.45029297 66.3522168 10.22949219 65.70458984 C2.11466421 42.01567062 -15.62162375 21.98477306 -37.953125 10.68212891 C-45.10253661 7.28922024 -52.4638796 4.59010547 -60.12109375 2.609375 C-61.36375 2.2690625 -62.60640625 1.92875 -63.88671875 1.578125 C-92.77523358 -5.56497226 -123.62700026 4.30236142 -146.12109375 22.609375 Z " fill="#FCE374" transform="translate(211.12109375,29.390625)"/>
<path d="M0 0 C4.73807298 2.14961239 6.36047068 4.80170594 8.6875 9.375 C9.01782227 10.01405273 9.34814453 10.65310547 9.68847656 11.31152344 C11.75049031 15.34987169 13.68480376 19.44392445 15.59765625 23.5546875 C16.03827393 24.49779785 16.4788916 25.4409082 16.93286133 26.41259766 C17.79947076 28.27946232 18.65511242 30.15146425 19.4987793 32.02880859 C19.89621338 32.89070801 20.29364746 33.75260742 20.703125 34.640625 C21.22374512 35.79353027 21.22374512 35.79353027 21.75488281 36.96972656 C23.60369031 39.98437032 25.61914171 41.62759119 29.04858398 42.55249023 C29.77376221 42.63700439 30.49894043 42.72151855 31.24609375 42.80859375 C32.48758179 42.96593994 32.48758179 42.96593994 33.75415039 43.12646484 C34.63965576 43.22910645 35.52516113 43.33174805 36.4375 43.4375 C38.3207716 43.68533808 40.20357551 43.93675165 42.0859375 44.19140625 C43.5414502 44.38694092 43.5414502 44.38694092 45.02636719 44.58642578 C49.88803034 45.26258813 54.72703268 46.03262701 59.5625 46.875 C60.44800537 47.01220459 61.33351074 47.14940918 62.24584961 47.29077148 C66.33290181 48.02638518 68.46009511 48.49239003 71.546875 51.39453125 C73.56562632 55.01417407 74.07595319 58.03495638 73 62 C68.07338152 69.23085886 60.8484924 75.23645615 54.625 81.375 C52.63514379 83.33826571 50.64864065 85.30483831 48.6640625 87.2734375 C47.35622803 88.56386963 47.35622803 88.56386963 46.02197266 89.88037109 C43.00044306 93.04783305 42.75373187 95.07896647 42.80859375 99.42285156 C43.31223184 106.20397872 44.91561778 112.89623006 46.22265625 119.55859375 C49.59102523 137.40132545 49.59102523 137.40132545 46.125 143.0625 C42.76281005 146.12802613 40.17659439 146.44380319 35.61669922 146.38818359 C30.55045605 145.63661365 26.41298251 142.88776827 22.0625 140.3125 C18.37956924 138.20026863 14.69185163 136.09659888 11 134 C10.14132324 133.50161621 9.28264648 133.00323242 8.39794922 132.48974609 C2.87236214 129.46268534 -1.71662438 127.39292383 -8 129 C-13.3659428 131.30492995 -18.41305524 134.07971332 -23.5 136.9375 C-24.89491048 137.70155703 -26.29073773 138.46394285 -27.6875 139.22460938 C-33.698164 142.13899405 -33.698164 142.13899405 -39 146 C-42.05381556 146.44166754 -44.95105642 146.48223087 -48 146 C-51 143.5625 -51 143.5625 -53 141 C-53.33 140.67 -53.66 140.34 -54 140 C-54.84838003 131.82206304 -53.0661107 123.85793182 -51.5 115.875 C-50.60011873 111.25885228 -49.74489138 106.64384053 -49 102 C-48.86722656 101.21915039 -48.73445313 100.43830078 -48.59765625 99.63378906 C-48.3233271 96.76592976 -48.62834583 94.59110562 -50.16845703 92.14160156 C-52.00166356 89.95766103 -53.95730235 87.99002818 -56 86 C-56.86592773 85.1224707 -57.73185547 84.24494141 -58.62402344 83.34082031 C-61.5174702 80.41153826 -64.44367759 77.51631086 -67.375 74.625 C-69.36485621 72.66173429 -71.35135935 70.69516169 -73.3359375 68.7265625 C-74.20782715 67.86627441 -75.0797168 67.00598633 -75.97802734 66.11962891 C-79.06513696 62.88341957 -79.38774686 60.5244239 -79.36328125 56.0390625 C-78.75965397 52.650961 -76.5844052 51.08013101 -74 49 C-73.505 48.505 -73.505 48.505 -73 48 C-70.42438431 47.59120229 -67.86020587 47.2365734 -65.2734375 46.9140625 C-63.66792411 46.70346502 -62.06245681 46.49251599 -60.45703125 46.28125 C-57.9231955 45.9524727 -55.38907057 45.62677143 -52.85400391 45.30761719 C-50.40920917 44.9980039 -47.96635571 44.67560681 -45.5234375 44.3515625 C-44.7752475 44.26081451 -44.0270575 44.17006653 -43.25619507 44.0765686 C-38.37363454 43.41840534 -34.39699477 42.26105414 -30 40 C-27.786973 37.16156227 -27.786973 37.16156227 -26.1875 33.625 C-25.86547607 32.98522217 -25.54345215 32.34544434 -25.21166992 31.6862793 C-23.20587108 27.65712436 -21.33306659 23.56589618 -19.4453125 19.48046875 C-18.78946167 18.0725708 -18.78946167 18.0725708 -18.12036133 16.63623047 C-17.26231174 14.78366344 -16.41788433 12.92471314 -15.58862305 11.05908203 C-12.13082299 3.52417444 -9.04964776 -1.13120597 0 0 Z " fill="#FCE274" transform="translate(131,48)"/>
<path d="M0 0 C9.57 0 19.14 0 29 0 C29.391875 2.97 29.78375 5.94 30.1875 9 C33.10148065 29.03851715 40.13140708 47.17310986 53 63 C53.97839844 64.24136719 53.97839844 64.24136719 54.9765625 65.5078125 C71.22773174 84.92400347 96.18948328 95.62009432 121 98 C148.49415633 100.05563786 173.83625263 89.17446129 194.6875 72 C195.8321875 71.01 195.8321875 71.01 197 70 C200.46629835 71.48653506 202.69022036 73.45722351 205.328125 76.1328125 C206.52695312 77.34130859 206.52695312 77.34130859 207.75 78.57421875 C208.575 79.41597656 209.4 80.25773437 210.25 81.125 C211.09046875 81.97449219 211.9309375 82.82398438 212.796875 83.69921875 C214.86915683 85.79504923 216.93662393 87.89540713 219 90 C201.06261202 112.0554638 170.66090468 124.85658642 143 128 C138.07936037 128.28355433 133.17802279 128.33464131 128.25 128.3125 C126.2704834 128.30404053 126.2704834 128.30404053 124.25097656 128.29541016 C89.50810401 127.86379513 58.25560256 113.11888395 33.94726562 88.48657227 C13.54337494 66.90575981 -0.41576788 36.37698222 -0.1875 6.4375 C-0.125625 4.313125 -0.06375 2.18875 0 0 Z " fill="#FCE274" transform="translate(0,128)"/>
<path d="M0 0 C1.58941406 0.01353516 1.58941406 0.01353516 3.2109375 0.02734375 C4.40589844 0.04474609 4.40589844 0.04474609 5.625 0.0625 C2.74668382 1.98137745 0.38793032 2.74500558 -2.9206543 3.60791016 C-26.37115811 9.77376419 -47.04295022 24.99787426 -59.47412109 45.91162109 C-69.26680789 62.81130611 -73.54536263 78.62934257 -73.625 98.25 C-73.645625 99.50103516 -73.66625 100.75207031 -73.6875 102.04101562 C-73.72136107 110.17190507 -72.79712895 117.30207915 -70.375 125.0625 C-70.15054199 125.79073975 -69.92608398 126.51897949 -69.69482422 127.26928711 C-65.09427997 141.36215975 -58.24722037 153.94408218 -48.375 165.0625 C-47.77300781 165.74699219 -47.17101562 166.43148437 -46.55078125 167.13671875 C-32.37297141 182.26566049 -12.45365007 191.225578 7.625 195.0625 C7.625 195.3925 7.625 195.7225 7.625 196.0625 C-7.49330345 196.91290457 -20.73364892 193.5674921 -34.375 187.0625 C-35.26316406 186.64484375 -36.15132812 186.2271875 -37.06640625 185.796875 C-59.66187995 174.35113286 -76.65929308 153.949135 -84.75 130.0703125 C-92.87641671 105.19527117 -91.67045005 78.71338368 -80.375 55.0625 C-79.94574219 54.16273437 -79.51648438 53.26296875 -79.07421875 52.3359375 C-67.27788662 29.27493892 -46.55466147 11.90577754 -21.99389648 3.85498047 C-14.63584004 1.53709519 -7.76538658 -0.08628207 0 0 Z " fill="#FD100F" transform="translate(119.375,29.9375)"/>
<path d="M0 0 C3.46629835 1.48653506 5.69022036 3.45722351 8.328125 6.1328125 C9.12734375 6.93847656 9.9265625 7.74414062 10.75 8.57421875 C11.575 9.41597656 12.4 10.25773438 13.25 11.125 C14.09046875 11.97449219 14.9309375 12.82398438 15.796875 13.69921875 C17.86915683 15.79504923 19.93662393 17.89540713 22 20 C4.86342054 41.0708052 -24.19273071 53.97851395 -50.6015625 57.6953125 C-56.75114043 58.24665397 -62.82628416 58.11539656 -69 58 C-69 48.43 -69 38.86 -69 29 C-66.11562469 28.03854156 -63.51785894 27.72767007 -60.50561523 27.45654297 C-37.22157067 25.26370074 -17.58210429 15.20614425 0 0 Z " fill="#FCE374" transform="translate(197,198)"/>
<path d="M0 0 C0.33 0 0.66 0 1 0 C1 2.31 1 4.62 1 7 C10.57 7 20.14 7 30 7 C30.92320807 38.69681057 19.63718419 67.91474425 -1 92 C-2.62512963 93.71983415 -4.29064147 95.36225394 -6 97 C-9.33018799 95.55217309 -11.49895042 93.73557065 -14.0390625 91.15625 C-15.15667969 90.02896484 -15.15667969 90.02896484 -16.296875 88.87890625 C-17.06515625 88.09386719 -17.8334375 87.30882812 -18.625 86.5 C-19.40101563 85.71496094 -20.17703125 84.92992187 -20.9765625 84.12109375 C-22.41194779 82.66826454 -23.84527222 81.21339433 -25.27587891 79.75585938 C-26.51113219 78.49786708 -27.75332537 77.24667463 -29 76 C-28.34 75.38125 -27.68 74.7625 -27 74.125 C-18.4445184 65.42491871 -13.01518953 55.99811944 -8 45 C-7.57589844 44.07832031 -7.15179688 43.15664062 -6.71484375 42.20703125 C-0.83050571 28.49182509 -0.35840224 14.7063727 0 0 Z " fill="#FDAF57" transform="translate(226,121)"/>
<path d="M0 0 C21.0708052 17.13657946 33.97851395 46.19273071 37.6953125 72.6015625 C38.24665397 78.75114043 38.11539656 84.82628416 38 91 C28.43 91 18.86 91 9 91 C8.62875 87.90625 8.2575 84.8125 7.875 81.625 C4.73597794 58.35256341 -4.70861164 39.75774132 -20 22 C-18.51346494 18.53370165 -16.54277649 16.30977964 -13.8671875 13.671875 C-12.65869141 12.47304688 -12.65869141 12.47304688 -11.42578125 11.25 C-10.58402344 10.425 -9.74226562 9.6 -8.875 8.75 C-8.02550781 7.90953125 -7.17601562 7.0690625 -6.30078125 6.203125 C-4.20495077 4.13084317 -2.10459287 2.06337607 0 0 Z " fill="#FCE374" transform="translate(218,37)"/>
<path d="M0 0 C3.46629835 1.48653506 5.69022036 3.45722351 8.328125 6.1328125 C9.12734375 6.93847656 9.9265625 7.74414062 10.75 8.57421875 C11.575 9.41597656 12.4 10.25773437 13.25 11.125 C14.09046875 11.97449219 14.9309375 12.82398438 15.796875 13.69921875 C17.86915683 15.79504923 19.93662393 17.89540713 22 20 C21.61835693 20.50716553 21.23671387 21.01433105 20.84350586 21.53686523 C6.11589835 41.13617705 -4.40924418 59.76805367 -5.5625 84.875 C-5.60568359 85.75414063 -5.64886719 86.63328125 -5.69335938 87.5390625 C-5.79869339 89.69255797 -5.89977649 91.84626064 -6 94 C-6.33 92.68 -6.66 91.36 -7 90 C-16.57 90 -26.14 90 -36 90 C-36.92320807 58.30318943 -25.63718419 29.08525575 -5 5 C-3.37487037 3.28016585 -1.70935853 1.63774606 0 0 Z " fill="#FDAF57" transform="translate(36,38)"/>
<path d="M0 0 C31.69681057 -0.92320807 60.91474425 10.36281581 85 31 C86.71983415 32.62512963 88.36225394 34.29064147 90 36 C88.51346494 39.46629835 86.54277649 41.69022036 83.8671875 44.328125 C83.06152344 45.12734375 82.25585938 45.9265625 81.42578125 46.75 C80.58402344 47.575 79.74226563 48.4 78.875 49.25 C78.02550781 50.09046875 77.17601562 50.9309375 76.30078125 51.796875 C74.20495077 53.86915683 72.10459287 55.93662393 70 58 C69.49210937 57.61835693 68.98421875 57.23671387 68.4609375 56.84350586 C67.02542149 55.76569275 65.58918169 54.68884318 64.15234375 53.61279297 C62.41185208 52.30860876 60.67422814 51.000598 58.9375 49.69140625 C48.00739148 41.76998452 36.09401898 36.35130285 23 33 C21.1746875 32.4740625 21.1746875 32.4740625 19.3125 31.9375 C13.00265103 30.38289953 6.4340428 29.80425535 0 29 C0 19.43 0 9.86 0 0 Z " fill="#FDAF57" transform="translate(128,0)"/>
<path d="M0 0 C0.50716553 0.38164307 1.01433105 0.76328613 1.53686523 1.15649414 C23.40088778 17.5858844 42.63972995 25.46964257 70 29 C70 38.57 70 48.14 70 58 C38.30318943 58.92320807 9.08525575 47.63718419 -15 27 C-16.71983415 25.37487037 -18.36225394 23.70935853 -20 22 C-18.51346494 18.53370165 -16.54277649 16.30977964 -13.8671875 13.671875 C-12.65869141 12.47304687 -12.65869141 12.47304687 -11.42578125 11.25 C-10.58402344 10.425 -9.74226563 9.6 -8.875 8.75 C-8.02550781 7.90953125 -7.17601562 7.0690625 -6.30078125 6.203125 C-4.20495077 4.13084317 -2.10459287 2.06337607 0 0 Z " fill="#FDAF57" transform="translate(58,198)"/>
<path d="M0 0 C2.2109885 0.42793326 3.98119242 0.99059621 6 2 C10.05142119 2.25860135 11.54337669 2.30441554 15 0 C17.1875 0.375 17.1875 0.375 19 1 C19.33 2.65 19.66 4.3 20 6 C15.12188859 9.97951194 12.58345286 11.38738595 6.33203125 11.3671875 C2.46691306 10.75860943 0.68410021 8.7529233 -2 6 C-1.125 1.125 -1.125 1.125 0 0 Z " fill="#42434D" transform="translate(119,118)"/>
<path d="M0 0 C3.53571429 0.53571429 3.53571429 0.53571429 5 2 C5.09823937 3.66429051 5.12973631 5.33281931 5.125 7 C5.12757813 7.9075 5.13015625 8.815 5.1328125 9.75 C5 12 5 12 4 13 C1.5 13.125 1.5 13.125 -1 13 C-2.66561399 11.33438601 -2.17115945 9.34037295 -2.1875 7.0625 C-2.20167969 6.16660156 -2.21585938 5.27070312 -2.23046875 4.34765625 C-2 2 -2 2 0 0 Z " fill="#40414D" transform="translate(156,113)"/>
<path d="M0 0 C3.53571429 0.53571429 3.53571429 0.53571429 5 2 C5.09823937 3.66429051 5.12973631 5.33281931 5.125 7 C5.12757812 7.9075 5.13015625 8.815 5.1328125 9.75 C5 12 5 12 4 13 C1.5 13.125 1.5 13.125 -1 13 C-2.66561399 11.33438601 -2.17115945 9.34037295 -2.1875 7.0625 C-2.20167969 6.16660156 -2.21585937 5.27070312 -2.23046875 4.34765625 C-2 2 -2 2 0 0 Z " fill="#40414D" transform="translate(97,113)"/>
</svg>
