<?xml version="1.0" encoding="UTF-8"?>
<svg version="1.1" xmlns="http://www.w3.org/2000/svg" width="512" height="512">
<path d="M0 0 C1.69068765 -0.00417829 3.38137249 -0.00965851 5.07205218 -0.01631981 C9.69487241 -0.03072831 14.31751366 -0.0265441 18.9403435 -0.019153 C23.93502816 -0.01441219 28.92967461 -0.02693929 33.92434692 -0.03717041 C43.700665 -0.05434623 53.47691877 -0.05520089 63.25324801 -0.04995751 C71.2019572 -0.04591208 79.15064741 -0.0473638 87.0993557 -0.05270576 C88.7979041 -0.0538284 88.7979041 -0.0538284 90.5307666 -0.05497371 C92.8313595 -0.05650523 95.13195238 -0.05804358 97.43254527 -0.05958868 C118.99622453 -0.07330948 140.55986748 -0.06787912 162.12354591 -0.05640347 C181.83633048 -0.04647295 201.54902117 -0.05940939 221.26179127 -0.08333766 C241.51881917 -0.10774068 261.77580337 -0.11733348 282.03284568 -0.11068493 C293.39922197 -0.10719521 304.76552609 -0.10940843 316.13189125 -0.12693596 C325.8084569 -0.14167301 335.48489954 -0.14227375 345.16146282 -0.12486505 C350.09487485 -0.11636485 355.02806728 -0.11418154 359.96146774 -0.1295166 C364.48495526 -0.14340295 369.00803585 -0.13855002 373.53150006 -0.11927737 C375.16061433 -0.11552911 376.7897615 -0.11840516 378.41884635 -0.12888902 C397.48877002 -0.2428045 412.93522748 4.77450743 427.02653503 18.14549255 C440.84196649 32.35706542 444.67136712 48.99982791 444.59390259 68.18145752 C444.59808088 69.87214517 444.6035611 71.56283001 444.6102224 73.2535097 C444.6246309 77.87632993 444.62044668 82.49897118 444.61305559 87.12180102 C444.60831478 92.11648568 444.62084188 97.11113213 444.631073 102.10580444 C444.64824882 111.88212252 444.64910348 121.65837629 444.64386009 131.43470553 C444.63981467 139.38341472 444.64126638 147.33210493 444.64660835 155.28081322 C444.64735677 156.41317882 444.6481052 157.54554441 444.6488763 158.71222412 C444.65040782 161.01281701 444.65194616 163.3134099 444.65349127 165.61400279 C444.66721207 187.17768204 444.66178171 208.741325 444.65030605 230.30500343 C444.64037554 250.017788 444.65331198 269.73047869 444.67724025 289.44324879 C444.70164326 309.70027669 444.71123606 329.95726089 444.70458752 350.2143032 C444.7010978 361.58067949 444.70331102 372.94698361 444.72083855 384.31334877 C444.73557559 393.98991442 444.73617634 403.66635706 444.71876764 413.34292034 C444.71026744 418.27633237 444.70808412 423.2095248 444.72341919 428.14292526 C444.73730554 432.66641278 444.73245261 437.18949337 444.71317995 441.71295758 C444.70943169 443.34207185 444.71230775 444.97121902 444.7227916 446.60030387 C444.83670708 465.67022754 439.81939516 481.11668499 426.44841003 495.20799255 C412.23683717 509.02342401 395.59407467 512.85282464 376.41244507 512.77536011 C374.72175742 512.7795384 373.03107258 512.78501862 371.34039289 512.79167992 C366.71757266 512.80608842 362.09493141 512.8019042 357.47210157 512.79451311 C352.47741691 512.7897723 347.48277046 512.8022994 342.48809814 512.81253052 C332.71178007 512.82970634 322.9355263 512.83056099 313.15919705 512.82531761 C305.21048787 512.82127219 297.26179765 512.8227239 289.31308937 512.82806587 C287.61454097 512.82918851 287.61454097 512.82918851 285.88167847 512.83033382 C283.58108557 512.83186534 281.28049268 512.83340368 278.9798998 512.83494879 C257.41622054 512.84866959 235.85257759 512.84323923 214.28889916 512.83176357 C194.57611459 512.82183306 174.8634239 512.8347695 155.1506538 512.85869776 C134.8936259 512.88310078 114.6366417 512.89269358 94.37959939 512.88604504 C83.0132231 512.88255532 71.64691898 512.88476854 60.28055382 512.90229607 C50.60398817 512.91703311 40.92754552 512.91763386 31.25098225 512.90022516 C26.31757022 512.89172496 21.38437779 512.88954164 16.45097733 512.90487671 C11.92748981 512.91876306 7.40440922 512.91391013 2.880945 512.89463747 C1.25183074 512.89088921 -0.37731643 512.89376527 -2.00640128 512.90424912 C-21.07632495 513.0181646 -36.52278241 508.00085268 -50.61408997 494.62986755 C-64.42952143 480.41829469 -68.25892205 463.77553219 -68.18145752 444.59390259 C-68.18563581 442.90321494 -68.19111603 441.2125301 -68.19777733 439.52185041 C-68.21218583 434.89903017 -68.20800162 430.27638893 -68.20061052 425.65355909 C-68.19586971 420.65887443 -68.20839681 415.66422798 -68.21862793 410.66955566 C-68.23580375 400.89323759 -68.23665841 391.11698382 -68.23141503 381.34065457 C-68.2273696 373.39194539 -68.22882132 365.44325517 -68.23416328 357.49454689 C-68.23491171 356.36218129 -68.23566013 355.22981569 -68.23643123 354.06313599 C-68.23796275 351.76254309 -68.2395011 349.4619502 -68.2410462 347.16135732 C-68.254767 325.59767806 -68.24933664 304.03403511 -68.23786099 282.47035668 C-68.22793047 262.7575721 -68.24086691 243.04488142 -68.26479518 223.33211132 C-68.2891982 203.07508342 -68.298791 182.81809922 -68.29214245 162.56105691 C-68.28865273 151.19468061 -68.29086595 139.8283765 -68.30839348 128.46201134 C-68.32313052 118.78544569 -68.32373127 109.10900304 -68.30632257 99.43243977 C-68.29782237 94.49902774 -68.29563906 89.56583531 -68.31097412 84.63243484 C-68.32486047 80.10894733 -68.32000754 75.58586674 -68.30073489 71.06240252 C-68.29698663 69.43328826 -68.29986268 67.80414109 -68.31034654 66.17505624 C-68.42426201 47.10513257 -63.40695009 31.65867511 -50.03596497 17.56736755 C-35.8243921 3.75193609 -19.1816296 -0.07746453 0 0 Z " fill="#F06599" transform="translate(67.79377746582031,-0.3876800537109375)"/>
<path d="M0 0 C168.96 0 337.92 0 512 0 C512 113.10585017 512 113.10585017 494.2421875 131.8203125 C480.03061464 145.63574396 463.38785214 149.46514458 444.20622253 149.38768005 C442.51553489 149.39185834 440.82485004 149.39733857 439.13417035 149.40399987 C434.51135012 149.41840837 429.88870887 149.41422415 425.26587903 149.40683305 C420.27119437 149.40209225 415.27654792 149.41461934 410.28187561 149.42485046 C400.50555753 149.44202628 390.72930377 149.44288094 380.95297452 149.43763756 C373.00426533 149.43359213 365.05557512 149.43504385 357.10686684 149.44038582 C355.40831844 149.44150845 355.40831844 149.44150845 353.67545593 149.44265376 C351.37486304 149.44418528 349.07427015 149.44572363 346.77367727 149.44726873 C325.20999801 149.46098953 303.64635505 149.45555917 282.08267663 149.44408352 C262.36989205 149.43415301 242.65720136 149.44708944 222.94443127 149.47101771 C202.68740336 149.49542073 182.43041916 149.50501353 162.17337686 149.49836498 C150.80700056 149.49487526 139.44069645 149.49708849 128.07433128 149.51461601 C118.39776563 149.52935306 108.72132299 149.5299538 99.04475971 149.5125451 C94.11134768 149.50404491 89.17815525 149.50186159 84.24475479 149.51719666 C79.72126728 149.53108301 75.19818668 149.52623008 70.67472247 149.50695742 C69.0456082 149.50320916 67.41646103 149.50608522 65.78737619 149.51656907 C46.71745252 149.63048455 31.27099506 144.61317263 17.1796875 131.2421875 C-15.2106314 97.92311393 0 37.76701637 0 0 Z " fill="#5C576E" transform="translate(0,363)"/>
<path d="M0 0 C1.69068765 -0.00417829 3.38137249 -0.00965851 5.07205218 -0.01631981 C9.69487241 -0.03072831 14.31751366 -0.0265441 18.9403435 -0.019153 C23.93502816 -0.01441219 28.92967461 -0.02693929 33.92434692 -0.03717041 C43.700665 -0.05434623 53.47691877 -0.05520089 63.25324801 -0.04995751 C71.2019572 -0.04591208 79.15064741 -0.0473638 87.0993557 -0.05270576 C88.7979041 -0.0538284 88.7979041 -0.0538284 90.5307666 -0.05497371 C92.8313595 -0.05650523 95.13195238 -0.05804358 97.43254527 -0.05958868 C118.99622453 -0.07330948 140.55986748 -0.06787912 162.12354591 -0.05640347 C181.83633048 -0.04647295 201.54902117 -0.05940939 221.26179127 -0.08333766 C241.51881917 -0.10774068 261.77580337 -0.11733348 282.03284568 -0.11068493 C293.39922197 -0.10719521 304.76552609 -0.10940843 316.13189125 -0.12693596 C325.8084569 -0.14167301 335.48489954 -0.14227375 345.16146282 -0.12486505 C350.09487485 -0.11636485 355.02806728 -0.11418154 359.96146774 -0.1295166 C364.48495526 -0.14340295 369.00803585 -0.13855002 373.53150006 -0.11927737 C375.16061433 -0.11552911 376.7897615 -0.11840516 378.41884635 -0.12888902 C397.48877002 -0.2428045 412.93522748 4.77450743 427.02653503 18.14549255 C459.41685394 51.46456612 444.20622253 111.62066368 444.20622253 149.38768005 C275.24622253 149.38768005 106.28622253 149.38768005 -67.79377747 149.38768005 C-67.79377747 36.28182989 -67.79377747 36.28182989 -50.03596497 17.56736755 C-35.8243921 3.75193609 -19.1816296 -0.07746453 0 0 Z " fill="#5C576E" transform="translate(67.79377746582031,-0.3876800537109375)"/>
<path d="M0 0 C168.96 0 337.92 0 512 0 C512 0.33 512 0.66 512 1 C373.4 1 234.8 1 92 1 C92 5.29 92 9.58 92 14 C91.84429708 16.22554103 91.64990413 18.44960175 91.37890625 20.6640625 C91.24806641 21.80875 91.11722656 22.9534375 90.98242188 24.1328125 C90.70901168 26.40656797 90.43309854 28.68002432 90.15429688 30.953125 C87.31882945 55.90523838 87.81188172 81.20037267 87.81469727 106.27758789 C87.81477854 109.96220811 87.80781344 113.64670402 87.79418945 117.33129883 C87.67692374 149.65765161 89.65484851 180.6635356 93 213 C231.27 213 369.54 213 512 213 C512 213.33 512 213.66 512 214 C343.04 214 174.08 214 0 214 C0 143.38 0 72.76 0 0 Z " fill="#E64587" transform="translate(0,149)"/>
<path d="M0 0 C1.59853209 0.00560774 3.19706939 0.00987226 4.79560852 0.01286316 C8.96640713 0.02421936 13.13688335 0.05360491 17.30755615 0.0869751 C21.57803997 0.11787703 25.8485768 0.13141113 30.11914062 0.14648438 C38.47150074 0.17848529 46.82360069 0.22956722 55.17578125 0.29296875 C54.50857457 5.19439624 53.59247964 9.83218943 52.28515625 14.60546875 C51.90339446 16.01509069 51.52180951 17.42476053 51.14038086 18.83447266 C50.94169403 19.56321594 50.7430072 20.29195923 50.53829956 21.04278564 C46.63723113 35.37397889 43.12650139 49.73212866 40.17578125 64.29296875 C39.84578125 64.29296875 39.51578125 64.29296875 39.17578125 64.29296875 C38.92828125 63.09671875 38.68078125 61.90046875 38.42578125 60.66796875 C37.09580549 55.4496611 35.22253492 51.55438379 30.50976562 48.64990234 C26.64128539 47.07542862 23.75140077 46.90527705 19.58203125 46.89453125 C18.87228149 46.89166107 18.16253174 46.88879089 17.43127441 46.88583374 C15.93871253 46.88380279 14.44612344 46.88926453 12.95361328 46.90185547 C10.68200603 46.91792472 8.41217758 46.9019755 6.140625 46.8828125 C4.68358986 46.88479511 3.22655582 46.88863914 1.76953125 46.89453125 C0.45662109 46.89791504 -0.85628906 46.90129883 -2.20898438 46.90478516 C-7.39616737 47.46175578 -10.64695435 48.98843252 -14.13671875 52.85546875 C-16.98671487 56.97212981 -16.99927299 60.08380503 -17.02734375 64.96875 C-17.03589386 66.11200996 -17.03589386 66.11200996 -17.0446167 67.27836609 C-17.05406956 68.89316417 -17.06060182 70.50798157 -17.06445312 72.12280273 C-17.07414008 74.58546967 -17.10515178 77.04729531 -17.13671875 79.50976562 C-17.14325085 81.07942213 -17.14850051 82.64908461 -17.15234375 84.21875 C-17.16469055 84.95225174 -17.17703735 85.68575348 -17.1897583 86.44148254 C-17.17020242 90.96305847 -16.3999151 93.60156235 -13.82421875 97.29296875 C-13.82421875 97.95296875 -13.82421875 98.61296875 -13.82421875 99.29296875 C-13.04046875 99.60234375 -12.25671875 99.91171875 -11.44921875 100.23046875 C-8.82421875 101.29296875 -8.82421875 101.29296875 -6.82421875 102.29296875 C-4.24474027 102.39182078 -1.69289239 102.43281188 0.88671875 102.42578125 C2.03353622 102.42721634 2.03353622 102.42721634 3.20352173 102.42868042 C4.82253095 102.42936145 6.44154289 102.42751253 8.06054688 102.42333984 C10.53391703 102.41800512 13.00710437 102.42327982 15.48046875 102.4296875 C17.05338582 102.42902642 18.62630277 102.42774463 20.19921875 102.42578125 C20.93788177 102.42780548 21.6765448 102.42982971 22.43759155 102.43191528 C25.82266138 102.41653954 28.94008879 102.35259227 32.17578125 101.29296875 C30.92491248 111.7443065 29.53496925 122.17611469 28.11328125 132.60546875 C27.93893555 133.89928467 27.76458984 135.19310059 27.58496094 136.52612305 C27.41770508 137.74468994 27.25044922 138.96325684 27.078125 140.21875 C26.92851318 141.31614502 26.77890137 142.41354004 26.62475586 143.54418945 C26.17578125 146.29296875 26.17578125 146.29296875 25.17578125 149.29296875 C-5.51421875 149.29296875 -36.20421875 149.29296875 -67.82421875 149.29296875 C-67.98465399 125.39703146 -67.98465399 125.39703146 -68.01953125 115.140625 C-68.04335946 108.16670419 -68.07142113 101.19299525 -68.12597656 94.21923828 C-68.16972473 88.59116431 -68.19341668 82.96331783 -68.20372772 77.33508682 C-68.21106738 75.19748483 -68.2253987 73.05989402 -68.24713898 70.92238998 C-68.45311485 49.81412057 -65.15472722 33.37381606 -50.06640625 17.47265625 C-35.83691369 3.6398046 -19.21186453 -0.19996661 0 0 Z " fill="#4F4C5E" transform="translate(67.82421875,-0.29296875)"/>
<path d="M0 0 C30.69 0 61.38 0 93 0 C99.25 40.625 99.25 40.625 99 47 C97.3125769 46.97643433 97.3125769 46.97643433 95.59106445 46.95239258 C91.40721835 46.89798784 87.22340338 46.86361164 83.03930664 46.83520508 C81.23033383 46.82014245 79.4213974 46.79968823 77.61254883 46.77368164 C75.00853485 46.7371868 72.4050048 46.72024843 69.80078125 46.70703125 C68.99538406 46.69154739 68.18998688 46.67606354 67.36018372 46.66011047 C62.65066285 46.65870709 59.94695348 47.18154363 56 50 C55.34 50 54.68 50 54 50 C51.41076861 55.00584736 50.81811184 59.15559643 50.76171875 64.73828125 C50.753647 65.49666794 50.74557526 66.25505463 50.73725891 67.03642273 C50.72343818 68.6410393 50.71270704 70.24568502 50.70483398 71.8503418 C50.69331519 73.48649748 50.67286471 75.12261562 50.64331055 76.75854492 C50.60052497 79.12704919 50.58445056 81.49443795 50.57421875 83.86328125 C50.55671066 84.58848465 50.53920258 85.31368805 50.52116394 86.06086731 C50.54292113 91.19672451 51.78147931 94.04277241 55 98 C61.09237106 103.18499664 68.10862568 102.61139452 75.76049805 102.52148438 C77.9293647 102.50008029 80.09490765 102.52131676 82.26367188 102.546875 C89.67901171 102.562558 95.70945579 102.35499215 102 98 C105.19462068 94.12834226 106.51519924 89.96920781 107 85 C107.33 85 107.66 85 108 85 C108.17015625 85.75168457 108.3403125 86.50336914 108.515625 87.27783203 C109.33800568 90.89488536 110.16670267 94.51044894 111 98.125 C111.15284454 98.78828308 111.30568909 99.45156616 111.46316528 100.13494873 C114.20794222 111.99926172 117.25994137 123.76497022 120.50976562 135.50048828 C120.83525391 136.68884277 121.16074219 137.87719727 121.49609375 139.1015625 C121.78669678 140.14650879 122.0772998 141.19145508 122.37670898 142.26806641 C123 145 123 145 123 149 C113.85422486 149.09327568 104.7086171 149.16405363 95.56246758 149.20724869 C91.31409606 149.22799533 87.06605342 149.25607179 82.81787109 149.30175781 C78.70701051 149.34568306 74.59646332 149.36923386 70.48538589 149.37950897 C68.92831626 149.38681766 67.37126094 149.40108585 65.81432724 149.42292023 C46.76934334 149.67903075 31.30044511 144.64111725 17.1796875 131.2421875 C1.47812061 115.09039647 -0.4551116 96.90626762 -0.29296875 75.48828125 C-0.28736549 73.30682163 -0.28309885 71.1253582 -0.28010559 68.94389343 C-0.26871431 63.23435838 -0.23929682 57.52505647 -0.20599365 51.81561279 C-0.16973837 44.94804959 -0.15610438 38.08040793 -0.13863373 31.21277618 C-0.10965577 20.80835588 -0.05212842 10.40444597 0 0 Z " fill="#4F4C5E" transform="translate(0,363)"/>
<path d="M0 0 C2.84559302 1.46748625 5.22116646 3.34508294 7.6875 5.375 C8.71387573 6.18203369 8.71387573 6.18203369 9.76098633 7.00537109 C11.16990488 8.11603953 12.57254165 9.23472344 13.96875 10.36132812 C15.86197795 11.88865337 17.76978507 13.39422623 19.6875 14.890625 C22.01301622 16.70547369 24.33174933 18.52832687 26.64453125 20.359375 C29.86148768 22.90029763 33.11530474 25.38913153 36.375 27.875 C41.26865275 31.6121888 46.05147302 35.47065829 50.8125 39.375 C56.23865983 43.82143653 61.74640763 48.12523813 67.375 52.3125 C76.85097747 59.37213192 76.85097747 59.37213192 80.875 62.5 C81.63554687 63.0878125 82.39609375 63.675625 83.1796875 64.28125 C86.18633824 67.12014769 86.93316359 69.27816673 87.3125 73.375 C86.91156167 78.0258846 85.8121927 81.27151321 82.35620117 84.56787109 C80.257745 86.27380085 78.11392065 87.89472614 75.9375 89.5 C74.30447789 90.73670243 72.67167145 91.97368969 71.0390625 93.2109375 C70.2027832 93.83838867 69.36650391 94.46583984 68.50488281 95.11230469 C64.57448261 98.0742788 60.69377756 101.09911897 56.8125 104.125 C56.06709961 104.70411133 55.32169922 105.28322266 54.55371094 105.87988281 C49.10733222 110.11648436 43.71399129 114.41578894 38.33569336 118.73828125 C32.82425054 123.15988237 27.23498929 127.47219683 21.61914062 131.76025391 C19.34778859 133.49938624 17.08594681 135.25071892 14.82373047 137.00170898 C13.17621032 138.27298459 11.52248754 139.53575438 9.8671875 140.796875 C8.20633714 142.07305974 6.55789038 143.36646349 4.9453125 144.703125 C0.59070828 148.1948353 -3.49458293 149.35251258 -9 149 C-13.21612542 147.31354983 -15.68712674 144.87606477 -18 141 C-18.62264595 136.75393751 -18.56666253 132.52780415 -18.54931641 128.24267578 C-18.5646492 126.29797897 -18.5646492 126.29797897 -18.58029175 124.31399536 C-18.60703572 120.76423279 -18.60823326 117.21489655 -18.60316515 113.66505289 C-18.6010229 110.69794516 -18.61079977 107.7309232 -18.62037599 104.76383388 C-18.64255451 97.76127299 -18.64344837 90.75892666 -18.63134766 83.75634766 C-18.61927133 76.54143722 -18.64388287 69.32730717 -18.68648779 62.11252987 C-18.72176206 55.9101974 -18.73371589 49.70811283 -18.72721231 43.50568378 C-18.72359234 39.80475255 -18.72879923 36.10437782 -18.75664139 32.40353775 C-18.78654776 28.27388415 -18.76782352 24.14581001 -18.74462891 20.01611328 C-18.75991638 18.79613647 -18.77520386 17.57615967 -18.79095459 16.31921387 C-18.710704 9.85567102 -18.2216667 5.86128992 -13.57929039 1.17130852 C-9.39592154 -1.93136063 -4.77247661 -1.18257793 0 0 Z " fill="#D4D1FE" transform="translate(240,182)"/>
<path d="M0 0 C0.7527269 -0.0038269 1.5054538 -0.00765381 2.2809906 -0.01159668 C3.86173858 -0.01430202 5.44253238 -0.00703789 7.02319336 0.00976562 C9.43119679 0.03122864 11.83622778 0.00990491 14.24414062 -0.015625 C15.78776694 -0.01298206 17.33139142 -0.00785778 18.875 0 C19.94398277 -0.01214539 19.94398277 -0.01214539 21.03456116 -0.02453613 C26.10310621 0.06976728 28.95112038 1.37877073 32.87109375 4.53125 C38.87324859 11.18228645 38.153916 17.91780749 38.22119141 26.41723633 C38.2376978 27.94278272 38.26491781 29.46825346 38.30322266 30.9934082 C38.69755276 46.79918746 38.69755276 46.79918746 34.43969727 52.07739258 C27.61259639 58.40507907 19.84138023 58.15716046 10.98022461 58.05273438 C8.80925251 58.03125652 6.64157555 58.05261707 4.47070312 58.078125 C-8.44189794 58.10430823 -8.44189794 58.10430823 -14.12890625 53.53125 C-18.60717243 48.58158738 -19.30157801 45.43883115 -19.3671875 38.92578125 C-19.37525925 38.16835129 -19.38333099 37.41092133 -19.39164734 36.63053894 C-19.40548927 35.02414233 -19.41621094 33.4177163 -19.42407227 31.8112793 C-19.44121938 29.37035103 -19.48509355 26.93080093 -19.52929688 24.49023438 C-19.53943002 22.92709326 -19.54794418 21.36394066 -19.5546875 19.80078125 C-19.58094963 18.7160125 -19.58094963 18.7160125 -19.60774231 17.60932922 C-19.58587318 12.42348459 -18.54613149 8.52988562 -15.12890625 4.53125 C-10.55816843 0.65138278 -5.90262262 -0.06725444 0 0 Z " fill="#FCFCFD" transform="translate(69.12890625,408.46875)"/>
<path d="M0 0 C1.47698573 -0.01148713 2.95393102 -0.03188726 4.43066406 -0.06152344 C20.69491378 -0.38771959 20.69491378 -0.38771959 26.54125977 4.29516602 C30.89985574 8.93024971 32.28916624 13.04574165 32.17016602 19.42407227 C32.17257797 20.17679916 32.17498993 20.92952606 32.17747498 21.70506287 C32.17650144 23.28585108 32.16322616 24.86667549 32.13818359 26.44726562 C32.10379164 28.85543385 32.11756709 31.25994147 32.13696289 33.66821289 C32.13006518 35.21184816 32.12039346 36.75547405 32.10766602 38.29907227 C32.11262589 39.01172745 32.11758575 39.72438263 32.12269592 40.45863342 C32.00445176 45.51861897 30.69105557 48.38167388 27.54125977 52.29516602 C22.51184563 56.72584037 19.46446416 57.46760791 12.90063477 57.53344727 C12.14083313 57.54151901 11.38103149 57.54959076 10.59820557 57.5579071 C8.98761272 57.57174739 7.37699055 57.58246981 5.76635742 57.59033203 C3.31444866 57.60750362 0.86390317 57.65138235 -1.58764648 57.69555664 C-3.15404284 57.70568757 -4.72045064 57.71420242 -6.28686523 57.72094727 C-7.01520569 57.73845535 -7.74354614 57.75596344 -8.49395752 57.77400208 C-13.64098704 57.75229899 -16.48954366 56.51636698 -20.45874023 53.29516602 C-24.8189694 48.34571669 -25.6299556 45.36748215 -25.69702148 38.90844727 C-25.70509323 38.17321335 -25.71316498 37.43797943 -25.72148132 36.6804657 C-25.73532243 35.12114824 -25.74604447 33.56180048 -25.75390625 32.00244141 C-25.77105018 29.63392333 -25.81492417 27.26682682 -25.85913086 24.89868164 C-25.86926435 23.38111375 -25.8777784 21.86353401 -25.88452148 20.34594727 C-25.90202957 19.64464188 -25.91953766 18.94333649 -25.93757629 18.22077942 C-25.91368317 12.71849425 -24.46838866 9.73197808 -21.45874023 5.29516602 C-14.98915877 -0.70103144 -8.3315834 0.04508532 0 0 Z " fill="#FDFCFD" transform="translate(322.458740234375,45.704833984375)"/>
<path d="M0 0 C1.52554639 -0.01650639 3.05101714 -0.04372641 4.57617188 -0.08203125 C20.31527402 -0.47469786 20.31527402 -0.47469786 25.66015625 3.84741211 C32.07787132 10.48066757 31.73941701 17.26649241 31.63549805 26.1105957 C31.61409396 28.27946236 31.63533043 30.44500531 31.66088867 32.61376953 C31.67597622 40.05112962 31.41164419 46.00597641 27.11401367 52.35009766 C22.23232987 56.88308975 18.98727933 57.5231151 12.50854492 57.58837891 C11.75111496 57.59645065 10.993685 57.6045224 10.21330261 57.61283875 C8.60690601 57.62668067 7.00047997 57.63740235 5.39404297 57.64526367 C2.9531147 57.66241079 0.5135646 57.70628496 -1.92700195 57.75048828 C-3.49014306 57.76062143 -5.05329567 57.76913559 -6.61645508 57.77587891 C-7.33963425 57.79338699 -8.06281342 57.81089508 -8.8079071 57.82893372 C-13.99375174 57.80706459 -17.88735071 56.7673229 -21.88598633 53.35009766 C-25.76585354 48.77935984 -26.48449077 44.12381403 -26.41723633 38.22119141 C-26.42106323 37.46846451 -26.42489014 36.71573761 -26.42883301 35.94020081 C-26.43153835 34.35945283 -26.42427421 32.77865902 -26.4074707 31.19799805 C-26.38600769 28.78999462 -26.40733141 26.38496362 -26.43286133 23.97705078 C-26.43021839 22.43342447 -26.42509411 20.88979998 -26.41723633 19.34619141 C-26.42533325 18.63353622 -26.43343018 17.92088104 -26.44177246 17.18663025 C-26.34746904 12.1180852 -25.0384656 9.27007102 -21.88598633 5.35009766 C-15.23494988 -0.65205719 -8.49942884 0.0672754 0 0 Z " fill="#FCFCFD" transform="translate(75.885986328125,45.64990234375)"/>
<path d="M0 0 C0.75742996 -0.00807175 1.51485992 -0.01614349 2.29524231 -0.02445984 C3.90163892 -0.03830177 5.50806495 -0.04902344 7.11450195 -0.05688477 C9.55543022 -0.07403188 11.99498032 -0.11790605 14.43554688 -0.16210938 C15.99868799 -0.17224252 17.56184059 -0.18075668 19.125 -0.1875 C19.84817917 -0.20500809 20.57135834 -0.22251617 21.31645203 -0.24055481 C26.7546807 -0.21762135 29.8870318 1.18749318 34.39453125 4.23828125 C38.71472644 8.84648945 38.56922914 13.7936822 38.6328125 19.85546875 C38.64088425 20.59024445 38.64895599 21.32502014 38.65727234 22.08206177 C38.67107136 23.63362293 38.68181213 25.18521392 38.68969727 26.73681641 C38.7012278 28.31763655 38.72169685 29.89841743 38.7512207 31.47900391 C38.7940094 33.77142603 38.81007901 36.06269632 38.8203125 38.35546875 C38.83782059 39.05566132 38.85532867 39.75585388 38.87336731 40.4772644 C38.85118991 45.53607731 37.4911333 48.30355917 34.39453125 52.23828125 C33.94078125 52.81578125 33.48703125 53.39328125 33.01953125 53.98828125 C27.04416227 58.58471892 18.84471124 57.64538312 11.70947266 57.66381836 C9.53173234 57.6757146 7.35683127 57.72495961 5.1796875 57.77539062 C-7.94465914 57.9359947 -7.94465914 57.9359947 -13.12744141 53.8046875 C-19.5150929 47.03508525 -19.23112395 39.18690774 -19.12695312 30.34741211 C-19.10547527 28.17644001 -19.12683582 26.00876305 -19.15234375 23.83789062 C-19.17852698 10.92528956 -19.17852698 10.92528956 -14.60546875 5.23828125 C-9.65580613 0.76001507 -6.5130499 0.06560949 0 0 Z " fill="#FDFCFD" transform="translate(423.60546875,408.76171875)"/>
<path d="M0 0 C0.75980164 -0.00807175 1.51960327 -0.01614349 2.3024292 -0.02445984 C3.91302205 -0.03830013 5.52364422 -0.04902254 7.13427734 -0.05688477 C9.5861861 -0.07405635 12.0367316 -0.11793509 14.48828125 -0.16210938 C16.0546776 -0.17224031 17.62108541 -0.18075516 19.1875 -0.1875 C19.91584045 -0.20500809 20.64418091 -0.22251617 21.39459229 -0.24055481 C26.54162181 -0.21885173 29.39017842 1.01708028 33.359375 4.23828125 C39.29213753 10.97276845 38.64425157 16.93211229 38.70947266 25.47607422 C38.72596373 27.05695385 38.75316292 28.63776106 38.79150391 30.21826172 C39.18587027 46.57246331 39.18587027 46.57246331 34.92797852 51.80419922 C28.05818206 58.08485049 20.34486584 57.86437089 11.46850586 57.75976562 C9.29753376 57.73828777 7.1298568 57.75964832 4.95898438 57.78515625 C-8.02462494 57.81213697 -8.02462494 57.81213697 -13.640625 53.23828125 C-17.85023809 47.81009595 -18.8068773 43.64149496 -18.87890625 36.9375 C-18.886978 36.2235054 -18.89504974 35.5095108 -18.90336609 34.77388 C-18.9171838 33.26342175 -18.92791629 31.75293257 -18.93579102 30.24243164 C-18.94730752 28.7032756 -18.96775448 27.16415939 -18.99731445 25.62524414 C-19.04013009 23.39572138 -19.05617822 21.16738357 -19.06640625 18.9375 C-19.08391434 18.25604416 -19.10142242 17.57458832 -19.11946106 16.8724823 C-19.09695514 11.86791722 -17.74269752 9.10355928 -14.640625 5.23828125 C-9.61121087 0.8076069 -6.56382939 0.06583936 0 0 Z " fill="#FDFDFD" transform="translate(315.640625,408.76171875)"/>
<path d="M0 0 C2.16886666 0.02140409 4.3344096 0.00016762 6.50317383 -0.02539062 C13.94053392 -0.04047818 19.89538071 0.22385386 26.23950195 4.52148438 C30.77249405 9.40316817 31.41251939 12.64821872 31.4777832 19.12695312 C31.48585495 19.88438309 31.4939267 20.64181305 31.50224304 21.42219543 C31.51608497 23.02859204 31.52680665 24.63501807 31.53466797 26.24145508 C31.55181509 28.68238334 31.59568926 31.12193345 31.63989258 33.5625 C31.65002573 35.12564111 31.65853988 36.68879372 31.6652832 38.25195312 C31.68279129 38.97513229 31.70029938 39.69831146 31.71833801 40.44340515 C31.69646888 45.62924979 30.6567272 49.52284876 27.23950195 53.52148438 C22.66876414 57.40135159 18.01321832 58.11998881 12.1105957 58.05273438 C11.3578688 58.05656128 10.60514191 58.06038818 9.8296051 58.06433105 C8.24885713 58.06703639 6.66806332 58.05977226 5.08740234 58.04296875 C2.67939892 58.02150574 0.27436792 58.04282946 -2.13354492 58.06835938 C-3.67717124 58.06571644 -5.22079572 58.06059215 -6.7644043 58.05273438 C-7.47705948 58.0608313 -8.18971466 58.06892822 -8.92396545 58.07727051 C-13.98971412 57.98301912 -16.86082821 56.70371288 -20.76049805 53.52148438 C-26.25105257 46.25020947 -26.03912534 39.80820554 -26.1105957 31.06274414 C-26.12709904 29.58569521 -26.15431508 28.10872428 -26.19262695 26.63208008 C-26.58567404 11.38014422 -26.58567404 11.38014422 -22.26318359 5.99291992 C-15.66679226 -0.4662922 -8.83055002 -0.10375971 0 0 Z " fill="#FDFDFD" transform="translate(430.760498046875,45.478515625)"/>
<path d="M0 0 C3.36970474 1.15135714 5.30031393 2.85572284 7.96484375 5.21875 C12.75348342 9.37438233 17.68275689 13.25723763 22.77734375 17.03125 C32.41120808 24.20613296 32.41120808 24.20613296 36.52734375 27.40625 C37.28789062 27.9940625 38.0484375 28.581875 38.83203125 29.1875 C41.83868199 32.02639769 42.58550734 34.18441673 42.96484375 38.28125 C42.56390542 42.9321346 41.46453645 46.17776321 38.00854492 49.47412109 C35.91008864 51.18005094 33.76638927 52.80114829 31.58984375 54.40625 C29.97236478 55.62982313 28.35518647 56.85379379 26.73828125 58.078125 C25.90393555 58.70396484 25.06958984 59.32980469 24.20996094 59.97460938 C20.00491911 63.15046762 15.8636365 66.40748685 11.71484375 69.65625 C10.22759123 70.81902534 8.73938512 71.98058255 7.25 73.140625 C6.62617432 73.62756836 6.00234863 74.11451172 5.35961914 74.61621094 C0.97696011 77.927804 0.97696011 77.927804 -1.2890625 77.77734375 C-7.98965407 74.94198906 -12.22969802 66.92048806 -15.2421875 60.65625 C-18.11776986 53.50285784 -19.88648044 47.35582119 -19.78515625 39.59375 C-19.77685791 38.76415771 -19.76855957 37.93456543 -19.76000977 37.07983398 C-19.40385502 24.05166802 -13.93968834 11.82177808 -5.22265625 2.09375 C-2.34765625 -0.09375 -2.34765625 -0.09375 0 0 Z " fill="#EDEBFE" transform="translate(284.34765625,217.09375)"/>
<path d="M0 0 C2.17948574 0.02898511 4.35653635 0.02058307 6.53613281 0.00756836 C21.11733798 0.07237325 21.11733798 0.07237325 26.92951965 4.92274475 C30.52257015 8.6319162 31.88004958 11.57183915 31.99259949 16.72131348 C31.97731705 17.47255493 31.96203461 18.22379639 31.94628906 18.99780273 C31.94965775 19.79255005 31.95302643 20.58729736 31.95649719 21.40612793 C31.95619982 23.07688913 31.9410902 24.74770729 31.91186523 26.41821289 C31.87216051 28.96077646 31.89118721 31.49812072 31.91699219 34.04077148 C31.90943213 35.67230193 31.89847769 37.3038209 31.88378906 38.93530273 C31.89426521 40.06216492 31.89426521 40.06216492 31.904953 41.21179199 C31.75764748 46.77901095 30.25394825 50.5762085 26.18457031 54.46655273 C21.3120013 57.26177254 16.87420535 57.94341069 11.34472656 57.97045898 C10.61893906 57.98044418 9.89315155 57.99042938 9.14537048 58.00071716 C7.62016447 58.01580989 6.09486069 58.02294572 4.56958008 58.02246094 C2.25531888 58.02902932 -0.05465886 58.08360622 -2.36816406 58.14038086 C-9.66390733 58.22420375 -15.7435648 58.26914764 -21.4699707 53.14990234 C-25.01101408 48.71958224 -25.1353258 44.74191189 -25.15136719 39.19311523 C-25.16135239 37.99106949 -25.16135239 37.99106949 -25.17153931 36.76473999 C-25.18164845 35.07194305 -25.18635686 33.37910639 -25.18603516 31.6862793 C-25.19040326 29.10715462 -25.22672459 26.52974926 -25.26464844 23.95092773 C-25.27051816 22.30249606 -25.27448651 20.65405629 -25.27636719 19.00561523 C-25.29073822 18.23980133 -25.30510925 17.47398743 -25.31991577 16.68496704 C-25.27601604 11.49538641 -24.20622322 8.60094134 -20.81542969 4.46655273 C-14.71027494 -0.74537625 -7.66977827 -0.11146929 0 0 Z " fill="#FDFDFD" transform="translate(198.8154296875,45.533447265625)"/>
<path d="M0 0 C0.7493985 -0.00619858 1.498797 -0.01239716 2.27090454 -0.01878357 C3.84920968 -0.02585569 5.42758984 -0.02275336 7.00585938 -0.01000977 C9.4011606 0.0038317 11.79252956 -0.03021507 14.1875 -0.06835938 C27.94424082 -0.14077841 27.94424082 -0.14077841 33.61572266 4.00415039 C37.76726425 8.56087674 38.48824504 12.47552079 38.4375 18.5 C38.44037018 19.25555679 38.44324036 20.01111359 38.44619751 20.78956604 C38.44823238 22.38226067 38.44274295 23.97498061 38.43017578 25.56762695 C38.41413513 27.99292488 38.43003129 30.41655092 38.44921875 32.84179688 C38.44723578 34.3945349 38.44339098 35.94727189 38.4375 37.5 C38.44660904 38.57839394 38.44660904 38.57839394 38.4559021 39.67857361 C38.37569922 45.48089782 36.8733293 49.43628997 33.1015625 53.81640625 C28.75477765 57.50458733 25.04657711 57.8845998 19.45703125 57.90234375 C18.72462723 57.90900055 17.99222321 57.91565735 17.23762512 57.92251587 C15.69026187 57.93262189 14.14285521 57.93733352 12.59545898 57.93701172 C10.24453637 57.94137291 7.8955111 57.9776765 5.54492188 58.015625 C4.0364647 58.02149632 2.52799868 58.0254636 1.01953125 58.02734375 C-0.02301567 58.0489003 -0.02301567 58.0489003 -1.08662415 58.07089233 C-6.27437037 58.02305303 -10.03297377 56.89578017 -13.9609375 53.56640625 C-17.96209698 48.88084344 -18.55830389 44.20010419 -18.4921875 38.21875 C-18.4960144 37.44382706 -18.49984131 36.66890411 -18.50378418 35.87049866 C-18.50649024 34.24267263 -18.49922103 32.61480214 -18.48242188 30.98706055 C-18.46096131 28.50665838 -18.48228022 26.02914226 -18.5078125 23.54882812 C-18.50516956 21.95962908 -18.50004527 20.37043182 -18.4921875 18.78125 C-18.50028442 18.04672104 -18.50838135 17.31219208 -18.51672363 16.55540466 C-18.42360476 11.40266568 -17.30117023 8.46972867 -13.9609375 4.56640625 C-9.46544163 0.74519489 -5.74670576 -0.04017221 0 0 Z " fill="#FDFDFD" transform="translate(191.9609375,408.43359375)"/>
</svg>
